<?xml version="1.0" encoding="utf-8"?><!DOCTYPE svg PUBLIC "-//W3C//DTD SVG 1.1//EN" "http://www.w3.org/Graphics/SVG/1.1/DTD/svg11.dtd"><svg version="1.1" id="图层_1" xmlns="http://www.w3.org/2000/svg" xmlns:xlink="http://www.w3.org/1999/xlink" x="0" y="0" width="1589" height="2056" viewBox="0 0 1589.167 2056.822" enable-background="new 0 0 1589.167 2056.822" xml:space="preserve">
<g>
	<path id="caipian" fill="#fefefe" d="M2.647,2056.822l-1.221-31.613l-0.331-9.188l-0.277-8.353l-0.225-7.491l-0.235-8.664
		l-0.223-9.113L0,1976.299l0.171-7.751l0.219-8.714l0.247-8.859l0.27-8.84l0.275-8.235l0.289-7.921l0.294-7.418l0.312-7.224
		l0.318-6.794l0.342-6.794l0.366-6.79l0.391-6.794l0.416-6.79l0.44-6.789l0.466-6.79l0.491-6.789l0.516-6.785l0.542-6.785
		l0.568-6.786l0.594-6.781l0.63-6.884l0.647-6.781l0.674-6.776l0.703-6.778l0.729-6.773l0.757-6.771l0.786-6.772l0.732-6.095
		l0.754-6.088l0.78-6.091l0.803-6.084l0.827-6.082l0.852-6.081l0.914-6.333l0.901-6.073l1.025-6.73l1.053-6.73l1.076-6.717
		l1.209-7.378l1.235-7.368l1.373-8.027l1.398-8.019l1.539-8.67l1.683-9.326l1.827-9.976l2.132-11.488l2.49-13.259l2.758-14.562
		l5.531-29.068l2.746-14.507l2.316-12.35l1.953-10.527l1.806-9.865l1.66-9.203l1.515-8.538l1.374-7.881l1.349-7.879l1.21-7.217
		l1.186-7.219l1.053-6.559l1.058-6.734l1.004-6.559l0.978-6.559l0.855-5.9l0.833-5.902l0.807-5.9l0.773-5.836l0.759-5.928
		l0.732-5.938l0.616-5.188l0.596-5.213l0.581-5.293l0.548-5.214l0.542-5.419l0.499-5.247l0.467-5.204l0.447-5.282l0.414-5.234
		l0.336-4.549l0.318-4.636l0.288-4.521l0.271-4.624l0.24-4.529l0.236-5.011l0.188-4.535l0.163-4.544l0.142-4.641l0.114-4.545
		l0.092-4.629l0.066-4.554l0.044-4.592l0.021-4.586l-0.002-4.635l-0.03-5.195l-0.052-4.761l-0.085-5.267l-0.111-5.219l-0.142-5.302
		l-0.166-5.237l-0.194-5.283l-0.217-5.244l-0.244-5.289l-0.265-5.228l-0.295-5.345l-0.313-5.252l-0.378-5.915l-0.406-5.921
		l-0.433-5.935l-0.459-5.934l-0.484-5.935l-0.508-5.937l-0.592-6.602l-0.619-6.6l-0.646-6.6l-0.671-6.602l-0.695-6.604l-0.792-7.268
		l-0.818-7.268l-0.843-7.268l-0.912-7.647l-0.972-7.936l-0.996-7.935l-1.104-8.602l-1.216-9.268l-1.241-9.265l-1.354-9.937
		l-1.561-11.268l-1.772-12.6l-2.079-14.602l-4.162-28.983l-2.098-14.647l-1.988-14.002l-1.685-12.021l-1.476-10.699l-1.383-10.198
		l-1.249-9.383l-1.313-10.052l-1.287-10.058l-1.262-10.056l-1.238-10.061l-1.213-10.063l-1.19-10.064l-1.243-10.734l-1.232-10.86
		l-1.264-11.379l-1.294-11.883l-1.304-12.205l-1.351-12.868l-1.405-13.619l-1.37-13.513l-1.314-13.196l-2.771-28.373l19.061-8.24
		l3.561-1.564l3.328-1.487l3.343-1.517l2.984-1.379l2.765-1.304l2.579-1.241l2.514-1.236l2.303-1.156l2.292-1.178l2.293-1.206
		l1.993-1.071l2.079-1.143l2.208-1.239l2.261-1.299l2.179-1.279l2.255-1.352l2.067-1.264l2.198-1.372l1.973-1.258l1.967-1.278
		l1.942-1.289l1.913-1.297l1.952-1.352l1.9-1.346l1.673-1.211l1.687-1.247l1.673-1.264l1.664-1.285l1.629-1.286l1.612-1.304
		l1.559-1.291l1.412-1.197l1.344-1.167l1.37-1.217l1.325-1.207l1.313-1.227l1.281-1.229l1.276-1.259l1.06-1.073l1.101-1.144
		l1.066-1.137l1.075-1.175l1.106-1.238l1.162-1.336l1.15-1.36l1.145-1.391l1.122-1.4l1.081-1.384l1.096-1.443l1.084-1.465
		l1.049-1.453l1.028-1.464l0.999-1.458l0.996-1.492l1.006-1.544l0.971-1.53l0.963-1.558l0.98-1.626l1.043-1.777l1.009-1.77
		l1.007-1.813l0.973-1.804l0.891-1.696l0.951-1.859l0.927-1.862l0.898-1.856l0.877-1.863l0.876-1.911l0.918-2.063l0.825-1.905
		l0.812-1.928l0.889-2.171l0.847-2.133l0.835-2.167l0.82-2.196l0.797-2.196l0.773-2.201l0.75-2.197l0.744-2.25l0.732-2.285
		l0.767-2.476l0.732-2.44l0.719-2.486l0.689-2.466l0.677-2.508l0.653-2.505l0.637-2.535l0.621-2.563l0.581-2.485l0.624-2.774
		l0.592-2.744l0.581-2.809l0.542-2.735l0.522-2.753l0.511-2.805l0.491-2.82l0.495-2.989l0.477-3.028l0.457-3.053l0.429-3.029
		l0.424-3.165l0.379-3l0.369-3.103l0.342-3.062l0.339-3.254l0.325-3.344l0.294-3.278l0.273-3.308l0.258-3.416l0.227-3.313
		l0.207-3.325l0.196-3.551l0.172-3.568l0.146-3.529l0.125-3.566l0.101-3.556l0.079-3.578l0.056-3.532l0.034-3.591l0.012-3.567
		l-0.011-3.783l-0.035-3.781l-0.06-3.831l-0.083-3.77l-0.105-3.741l-0.13-3.792l-0.154-3.8l-0.177-3.806l-0.201-3.818l-0.221-3.781
		l-0.243-3.77l-0.285-4.053l-0.308-4.029l-0.335-4.065l-0.348-3.932l-0.386-4.098l-0.4-3.999l-0.426-4.033l-0.447-4.013
		l-0.494-4.229l-0.527-4.29l-0.539-4.201l-0.575-4.297l-0.587-4.222l-0.63-4.356l-0.668-4.461l-0.689-4.443l-0.72-4.492
		l-0.775-4.688l-0.797-4.685l-0.871-4.968l-0.877-4.87l-0.953-5.153l-0.971-5.125l-1.054-5.431l-1.11-5.593l-1.164-5.735
		l-1.205-5.817l-1.275-6.039l-1.347-6.259l-1.371-6.266l-1.494-6.71l-1.569-6.937l-1.644-7.163l-1.771-7.613l-1.954-8.287
		l-2.138-8.966l-2.486-10.317l-3.058-12.573l-3.387-13.837l-3.429-13.933l-3.449-13.951l-3.448-13.889l-3.443-13.813l-3.445-13.775
		l-3.489-13.897l-8.993-35.667L587.743,0.001l1.164,31.93l0.177,4.154l0.204,4.248l0.229,4.326l0.253,4.338l0.255,3.99l0.282,4.063
		l0.285,3.78l0.299,3.665l0.302,3.422l0.312,3.284l0.332,3.25l0.358,3.283l0.374,3.207l0.389,3.148l0.401,3.069l0.433,3.134
		l0.45,3.091l0.473,3.093l0.5,3.116l0.515,3.063l0.542,3.091l0.561,3.063l0.589,3.084l0.608,3.066l0.632,3.07l0.653,3.054
		l0.643,2.908l0.667,2.916l0.694,2.933l0.714,2.917l0.732,2.898l0.716,2.745l0.75,2.791l0.765,2.759l0.784,2.745l0.807,2.738
		l0.786,2.593l0.808,2.594l0.832,2.595l0.847,2.57l0.86,2.539l0.889,2.553l0.869,2.43l0.889,2.419l0.914,2.422l0.917,2.368
		l0.94,2.365l0.926,2.27l0.936,2.238l0.953,2.219l0.985,2.24l0.942,2.088l0.993,2.146l0.97,2.046l1.009,2.077l1.016,2.039
		l0.972,1.905l1.005,1.924l1.028,1.922l1.026,1.872l1.042,1.854l1.085,1.886l1.002,1.699l1.034,1.713l1.042,1.686l1.066,1.685
		l1.09,1.681l1.094,1.646l1.048,1.541l1.089,1.562l1.087,1.522l1.076,1.47l1.113,1.485l1.123,1.461l1.096,1.392l1.077,1.335
		l1.098,1.329l1.076,1.271l1.135,1.308l1.065,1.197l1.15,1.262l1.152,1.232l1.155,1.202l1.091,1.107l1.14,1.127l1.107,1.069
		l1.145,1.077l1.134,1.039l1.138,1.014l1.154,1.001l1.172,0.99l1.18,0.968l1.206,0.961l1.191,0.923l1.224,0.92l1.127,0.823
		l1.215,0.863l1.246,0.858l1.259,0.841l1.307,0.848l1.301,0.82l1.345,0.824l1.338,0.797l1.452,0.84l1.5,0.842l1.509,0.823
		l1.532,0.813l1.615,0.832l1.655,0.828l1.681,0.816l1.671,0.788l1.732,0.794l1.799,0.8l1.837,0.793l1.831,0.769l1.926,0.784
		l1.998,0.789l1.969,0.754l2.041,0.759l2.006,0.723l2.184,0.763l2.175,0.735l2.188,0.717l2.179,0.691l2.329,0.716l2.31,0.687
		l2.357,0.677l2.392,0.665l2.444,0.656l2.518,0.653l2.459,0.615l2.55,0.615l2.471,0.573l2.556,0.571l2.625,0.563l2.68,0.551
		l2.644,0.521l2.813,0.531l2.802,0.506l2.928,0.505l2.975,0.491l3,0.471l2.957,0.444l5.816,0.823
		c5.571,0.686,14.552,1.541,24.677,1.541c5.138,0,9.962-0.223,14.424-0.664l8.499-1.227l3.343-0.473l2.957-0.444l2.994-0.47
		l2.958-0.488l2.98-0.514l2.773-0.5l2.813-0.531l2.631-0.519l2.688-0.553l2.658-0.57l2.507-0.56l2.503-0.581l2.538-0.611l2.46-0.615
		l2.512-0.651l2.482-0.667l2.337-0.649l2.361-0.679l2.338-0.695l2.331-0.716l2.147-0.682l2.218-0.727l2.17-0.734l2.176-0.76
		l2.005-0.723l2.044-0.76l1.969-0.754l1.998-0.789l1.926-0.784l1.83-0.768l1.839-0.794l1.816-0.808l1.679-0.77l1.724-0.813
		l1.666-0.809l1.65-0.825l1.619-0.834l1.518-0.805l1.537-0.839l1.491-0.837l1.436-0.83l1.356-0.808l1.337-0.819l1.299-0.818
		l1.309-0.85l1.254-0.838l1.252-0.863l1.221-0.867l1.113-0.813l1.228-0.923l1.194-0.925l1.21-0.966l1.175-0.964l1.172-0.99
		l1.154-1.001l1.138-1.014l1.134-1.039l1.143-1.074l1.117-1.077l1.126-1.114l1.098-1.115l1.153-1.202l1.164-1.244l1.135-1.245
		l1.068-1.201l1.124-1.295l1.1-1.299l1.087-1.315l1.077-1.335l1.097-1.392l1.122-1.461l1.113-1.484l1.077-1.473l1.078-1.51
		l1.1-1.579l1.044-1.533l1.1-1.654l1.081-1.666l1.071-1.693l1.039-1.681l1.03-1.706l1.029-1.746l1.051-1.824l1.061-1.887
		l1.023-1.867l1.023-1.914l1.003-1.919l0.984-1.928l1.013-2.035l0.998-2.054l0.975-2.058l1.001-2.163l0.942-2.087l0.972-2.21
		l0.96-2.237l0.937-2.238l0.928-2.276l0.937-2.354l0.923-2.384l0.906-2.402l0.89-2.421l0.869-2.431l0.89-2.551l0.871-2.575
		l0.841-2.549l0.828-2.582l0.797-2.561l0.802-2.646l0.805-2.732l0.78-2.731l0.767-2.766l0.75-2.789l0.712-2.728l0.742-2.936
		l0.711-2.905l0.688-2.911l0.67-2.928l0.641-2.896l0.666-3.12l0.62-3.007l0.608-3.069l0.586-3.073l0.563-3.073l0.546-3.107
		l0.516-3.069l0.496-3.093l0.475-3.102l0.449-3.094l0.432-3.118l0.404-3.099l0.386-3.12l0.375-3.225l0.356-3.267l0.335-3.268
		l0.313-3.297l0.298-3.388l0.301-3.679l0.285-3.78l0.282-4.063l0.257-4.012l0.251-4.283l0.229-4.333l0.207-4.313l0.176-4.133
		L1001.42,0l488.405,126.917l-9.026,35.806l-3.458,13.776l-3.446,13.774l-3.442,13.813l-3.448,13.89l-3.449,13.953l-3.43,13.936
		l-3.39,13.849l-3.061,12.584l-2.489,10.327l-2.139,8.968l-1.954,8.292l-1.772,7.618l-1.645,7.166l-1.568,6.938l-1.495,6.717
		l-1.372,6.264l-1.346,6.263l-1.277,6.046l-1.202,5.813l-1.166,5.747l-1.11,5.594l-1.042,5.369l-0.974,5.136l-0.942,5.097
		l-0.879,4.881l-0.866,4.94l-0.802,4.711l-0.774,4.685l-0.727,4.53l-0.677,4.362l-0.68,4.536l-0.626,4.33l-0.59,4.241l-0.573,4.287
		l-0.535,4.175l-0.531,4.319l-0.488,4.176l-0.454,4.091l-0.423,3.989l-0.401,4.014l-0.383,4.057l-0.352,3.988l-0.335,4.047
		l-0.308,4.021l-0.285,4.058l-0.244,3.774l-0.22,3.771l-0.202,3.841l-0.177,3.789l-0.153,3.792l-0.129,3.797l-0.107,3.748
		l-0.081,3.732l-0.062,3.871l-0.035,3.739l-0.01,3.862l0.012,3.523l0.033,3.557l0.058,3.591l0.078,3.547l0.102,3.552l0.125,3.6
		l0.146,3.509l0.173,3.576l0.195,3.544l0.205,3.312l0.228,3.321l0.258,3.41l0.273,3.302l0.299,3.332l0.316,3.262l0.347,3.316
		l0.34,3.043l0.368,3.095l0.383,3.029l0.418,3.124l0.429,3.027l0.461,3.081l0.472,2.996l0.503,3.036l0.487,2.796l0.51,2.802
		l0.515,2.711l0.564,2.843l0.562,2.717l0.598,2.768l0.626,2.79l0.577,2.47l0.621,2.561l0.64,2.547l0.653,2.509l0.674,2.496
		l0.689,2.468l0.717,2.477l0.736,2.457l0.761,2.452l0.752,2.352l0.717,2.166l0.766,2.245l0.768,2.181l0.802,2.214l0.817,2.188
		l0.837,2.174l0.844,2.125l0.889,2.171l0.804,1.905l0.842,1.945l0.918,2.062l0.858,1.875l0.89,1.888l0.899,1.855l0.923,1.856
		l0.943,1.845l0.91,1.732l0.964,1.785l1.01,1.819l1.007,1.766l1.03,1.756l0.997,1.654l0.954,1.543l0.981,1.546l0.993,1.525
		l1.018,1.523l0.966,1.412l1.051,1.495l1.041,1.442l1.09,1.472l1.09,1.436l1.084,1.389l1.125,1.402l1.141,1.386l1.147,1.357
		l1.168,1.343l1.109,1.242l1.066,1.164l1.067,1.139l1.108,1.15l1.055,1.069l1.285,1.269l1.271,1.222l1.304,1.218l1.342,1.221
		l1.35,1.2l1.355,1.177l1.407,1.193l1.57,1.301l1.603,1.297l1.633,1.289l1.669,1.289l1.652,1.248l1.688,1.247l1.7,1.23l1.877,1.33
		l1.966,1.361l1.901,1.29l1.954,1.297l1.961,1.274l1.972,1.257l2.184,1.362l2.1,1.284l2.228,1.335l2.199,1.29l2.218,1.274
		l2.252,1.264l2.252,1.236l2.221,1.192l2.266,1.187l2.293,1.176l2.308,1.155l2.326,1.142l2.537,1.217l2.581,1.213l2.79,1.284
		l3.078,1.39l3.295,1.463l3.28,1.432l19.869,8.5l-2.805,28.726l-1.326,13.32l-1.379,13.589l-1.41,13.667l-1.356,12.903
		l-1.307,12.221l-1.296,11.893l-1.266,11.381l-1.167,10.278l-1.243,10.733l-1.189,10.065l-1.213,10.063l-1.238,10.062l-1.262,10.057
		l-1.288,10.057l-1.313,10.055l-1.247,9.38l-1.383,10.197l-1.479,10.707l-1.685,12.026l-1.989,14.015l-2.101,14.667l-4.167,29.014
		l-2.08,14.616l-1.773,12.608l-1.562,11.272l-1.354,9.939l-1.243,9.277l-1.216,9.267l-1.104,8.604l-0.995,7.938l-0.973,7.94
		l-0.911,7.643l-0.843,7.271l-0.818,7.271l-0.792,7.271l-0.695,6.604l-0.672,6.604l-0.646,6.604l-0.619,6.604l-0.593,6.603
		l-0.507,5.934l-0.483,5.938l-0.46,5.938l-0.427,5.854l-0.405,5.91l-0.383,5.982l-0.313,5.269l-0.286,5.188l-0.271,5.335
		l-0.239,5.196l-0.22,5.304l-0.193,5.27l-0.166,5.238l-0.142,5.296l-0.112,5.242l-0.085,5.246l-0.051,4.755l-0.031,5.205
		l-0.002,4.644l0.02,4.56l0.045,4.616l0.066,4.545l0.092,4.629l0.115,4.563l0.14,4.59l0.165,4.593l0.188,4.523l0.235,4.967
		l0.245,4.614l0.266,4.558l0.292,4.589l0.313,4.552l0.34,4.589l0.413,5.228l0.446,5.286l0.465,5.179l0.501,5.271l0.544,5.431
		l0.549,5.234l0.58,5.28l0.599,5.242l0.617,5.196l0.725,5.871l0.758,5.922l0.788,5.949l0.808,5.897l0.832,5.895l0.857,5.9
		l0.978,6.565l1.004,6.553l1.056,6.724l1.054,6.558l1.186,7.219l1.211,7.213l1.349,7.878l1.374,7.873l1.516,8.541l1.659,9.195
		l1.804,9.862l1.952,10.519l2.314,12.336l2.743,14.495l5.522,29.027l2.757,14.548l2.487,13.249l2.13,11.477l1.826,9.972l1.682,9.317
		l1.539,8.67l1.398,8.011l1.372,8.028l1.235,7.364l1.209,7.377l1.077,6.717l1.052,6.725l1.026,6.731l0.901,6.073l0.913,6.32
		l0.853,6.084l0.828,6.088l0.804,6.082l0.779,6.09l0.756,6.093l0.732,6.088l0.786,6.773l0.757,6.773l0.731,6.771l0.702,6.783
		l0.675,6.78l0.647,6.778l0.631,6.877l0.594,6.789l0.567,6.785l0.543,6.782l0.518,6.792l0.491,6.786l0.465,6.795l0.441,6.787
		l0.415,6.795l0.392,6.788l0.366,6.799l0.343,6.788l0.318,6.798l0.312,7.221l0.295,7.421l0.289,7.929l0.275,8.238l0.271,8.845
		l0.245,8.861l0.22,8.702l0.173,7.819l-0.135,6.053l-0.225,9.105l-0.233,8.655l-0.224,7.482l-0.277,8.364l-0.33,9.188l-1.229,31.676
		H2.647z" stroke="none" style="stroke-width: 5; stroke-dasharray: 26;" mygroup="clFEFEFE"></path>
</g>
<desc>Created with Snap</desc><defs></defs><defs><clipPath id="clip_pathfront"><path id="pathSjq96sw9c69" fill="none" d="M2.647,2056.822l-1.221-31.613l-0.331-9.188l-0.277-8.353l-0.225-7.491l-0.235-8.664
		l-0.223-9.113L0,1976.299l0.171-7.751l0.219-8.714l0.247-8.859l0.27-8.84l0.275-8.235l0.289-7.921l0.294-7.418l0.312-7.224
		l0.318-6.794l0.342-6.794l0.366-6.79l0.391-6.794l0.416-6.79l0.44-6.789l0.466-6.79l0.491-6.789l0.516-6.785l0.542-6.785
		l0.568-6.786l0.594-6.781l0.63-6.884l0.647-6.781l0.674-6.776l0.703-6.778l0.729-6.773l0.757-6.771l0.786-6.772l0.732-6.095
		l0.754-6.088l0.78-6.091l0.803-6.084l0.827-6.082l0.852-6.081l0.914-6.333l0.901-6.073l1.025-6.73l1.053-6.73l1.076-6.717
		l1.209-7.378l1.235-7.368l1.373-8.027l1.398-8.019l1.539-8.67l1.683-9.326l1.827-9.976l2.132-11.488l2.49-13.259l2.758-14.562
		l5.531-29.068l2.746-14.507l2.316-12.35l1.953-10.527l1.806-9.865l1.66-9.203l1.515-8.538l1.374-7.881l1.349-7.879l1.21-7.217
		l1.186-7.219l1.053-6.559l1.058-6.734l1.004-6.559l0.978-6.559l0.855-5.9l0.833-5.902l0.807-5.9l0.773-5.836l0.759-5.928
		l0.732-5.938l0.616-5.188l0.596-5.213l0.581-5.293l0.548-5.214l0.542-5.419l0.499-5.247l0.467-5.204l0.447-5.282l0.414-5.234
		l0.336-4.549l0.318-4.636l0.288-4.521l0.271-4.624l0.24-4.529l0.236-5.011l0.188-4.535l0.163-4.544l0.142-4.641l0.114-4.545
		l0.092-4.629l0.066-4.554l0.044-4.592l0.021-4.586l-0.002-4.635l-0.03-5.195l-0.052-4.761l-0.085-5.267l-0.111-5.219l-0.142-5.302
		l-0.166-5.237l-0.194-5.283l-0.217-5.244l-0.244-5.289l-0.265-5.228l-0.295-5.345l-0.313-5.252l-0.378-5.915l-0.406-5.921
		l-0.433-5.935l-0.459-5.934l-0.484-5.935l-0.508-5.937l-0.592-6.602l-0.619-6.6l-0.646-6.6l-0.671-6.602l-0.695-6.604l-0.792-7.268
		l-0.818-7.268l-0.843-7.268l-0.912-7.647l-0.972-7.936l-0.996-7.935l-1.104-8.602l-1.216-9.268l-1.241-9.265l-1.354-9.937
		l-1.561-11.268l-1.772-12.6l-2.079-14.602l-4.162-28.983l-2.098-14.647l-1.988-14.002l-1.685-12.021l-1.476-10.699l-1.383-10.198
		l-1.249-9.383l-1.313-10.052l-1.287-10.058l-1.262-10.056l-1.238-10.061l-1.213-10.063l-1.19-10.064l-1.243-10.734l-1.232-10.86
		l-1.264-11.379l-1.294-11.883l-1.304-12.205l-1.351-12.868l-1.405-13.619l-1.37-13.513l-1.314-13.196l-2.771-28.373l19.061-8.24
		l3.561-1.564l3.328-1.487l3.343-1.517l2.984-1.379l2.765-1.304l2.579-1.241l2.514-1.236l2.303-1.156l2.292-1.178l2.293-1.206
		l1.993-1.071l2.079-1.143l2.208-1.239l2.261-1.299l2.179-1.279l2.255-1.352l2.067-1.264l2.198-1.372l1.973-1.258l1.967-1.278
		l1.942-1.289l1.913-1.297l1.952-1.352l1.9-1.346l1.673-1.211l1.687-1.247l1.673-1.264l1.664-1.285l1.629-1.286l1.612-1.304
		l1.559-1.291l1.412-1.197l1.344-1.167l1.37-1.217l1.325-1.207l1.313-1.227l1.281-1.229l1.276-1.259l1.06-1.073l1.101-1.144
		l1.066-1.137l1.075-1.175l1.106-1.238l1.162-1.336l1.15-1.36l1.145-1.391l1.122-1.4l1.081-1.384l1.096-1.443l1.084-1.465
		l1.049-1.453l1.028-1.464l0.999-1.458l0.996-1.492l1.006-1.544l0.971-1.53l0.963-1.558l0.98-1.626l1.043-1.777l1.009-1.77
		l1.007-1.813l0.973-1.804l0.891-1.696l0.951-1.859l0.927-1.862l0.898-1.856l0.877-1.863l0.876-1.911l0.918-2.063l0.825-1.905
		l0.812-1.928l0.889-2.171l0.847-2.133l0.835-2.167l0.82-2.196l0.797-2.196l0.773-2.201l0.75-2.197l0.744-2.25l0.732-2.285
		l0.767-2.476l0.732-2.44l0.719-2.486l0.689-2.466l0.677-2.508l0.653-2.505l0.637-2.535l0.621-2.563l0.581-2.485l0.624-2.774
		l0.592-2.744l0.581-2.809l0.542-2.735l0.522-2.753l0.511-2.805l0.491-2.82l0.495-2.989l0.477-3.028l0.457-3.053l0.429-3.029
		l0.424-3.165l0.379-3l0.369-3.103l0.342-3.062l0.339-3.254l0.325-3.344l0.294-3.278l0.273-3.308l0.258-3.416l0.227-3.313
		l0.207-3.325l0.196-3.551l0.172-3.568l0.146-3.529l0.125-3.566l0.101-3.556l0.079-3.578l0.056-3.532l0.034-3.591l0.012-3.567
		l-0.011-3.783l-0.035-3.781l-0.06-3.831l-0.083-3.77l-0.105-3.741l-0.13-3.792l-0.154-3.8l-0.177-3.806l-0.201-3.818l-0.221-3.781
		l-0.243-3.77l-0.285-4.053l-0.308-4.029l-0.335-4.065l-0.348-3.932l-0.386-4.098l-0.4-3.999l-0.426-4.033l-0.447-4.013
		l-0.494-4.229l-0.527-4.29l-0.539-4.201l-0.575-4.297l-0.587-4.222l-0.63-4.356l-0.668-4.461l-0.689-4.443l-0.72-4.492
		l-0.775-4.688l-0.797-4.685l-0.871-4.968l-0.877-4.87l-0.953-5.153l-0.971-5.125l-1.054-5.431l-1.11-5.593l-1.164-5.735
		l-1.205-5.817l-1.275-6.039l-1.347-6.259l-1.371-6.266l-1.494-6.71l-1.569-6.937l-1.644-7.163l-1.771-7.613l-1.954-8.287
		l-2.138-8.966l-2.486-10.317l-3.058-12.573l-3.387-13.837l-3.429-13.933l-3.449-13.951l-3.448-13.889l-3.443-13.813l-3.445-13.775
		l-3.489-13.897l-8.993-35.667L587.743,0.001l1.164,31.93l0.177,4.154l0.204,4.248l0.229,4.326l0.253,4.338l0.255,3.99l0.282,4.063
		l0.285,3.78l0.299,3.665l0.302,3.422l0.312,3.284l0.332,3.25l0.358,3.283l0.374,3.207l0.389,3.148l0.401,3.069l0.433,3.134
		l0.45,3.091l0.473,3.093l0.5,3.116l0.515,3.063l0.542,3.091l0.561,3.063l0.589,3.084l0.608,3.066l0.632,3.07l0.653,3.054
		l0.643,2.908l0.667,2.916l0.694,2.933l0.714,2.917l0.732,2.898l0.716,2.745l0.75,2.791l0.765,2.759l0.784,2.745l0.807,2.738
		l0.786,2.593l0.808,2.594l0.832,2.595l0.847,2.57l0.86,2.539l0.889,2.553l0.869,2.43l0.889,2.419l0.914,2.422l0.917,2.368
		l0.94,2.365l0.926,2.27l0.936,2.238l0.953,2.219l0.985,2.24l0.942,2.088l0.993,2.146l0.97,2.046l1.009,2.077l1.016,2.039
		l0.972,1.905l1.005,1.924l1.028,1.922l1.026,1.872l1.042,1.854l1.085,1.886l1.002,1.699l1.034,1.713l1.042,1.686l1.066,1.685
		l1.09,1.681l1.094,1.646l1.048,1.541l1.089,1.562l1.087,1.522l1.076,1.47l1.113,1.485l1.123,1.461l1.096,1.392l1.077,1.335
		l1.098,1.329l1.076,1.271l1.135,1.308l1.065,1.197l1.15,1.262l1.152,1.232l1.155,1.202l1.091,1.107l1.14,1.127l1.107,1.069
		l1.145,1.077l1.134,1.039l1.138,1.014l1.154,1.001l1.172,0.99l1.18,0.968l1.206,0.961l1.191,0.923l1.224,0.92l1.127,0.823
		l1.215,0.863l1.246,0.858l1.259,0.841l1.307,0.848l1.301,0.82l1.345,0.824l1.338,0.797l1.452,0.84l1.5,0.842l1.509,0.823
		l1.532,0.813l1.615,0.832l1.655,0.828l1.681,0.816l1.671,0.788l1.732,0.794l1.799,0.8l1.837,0.793l1.831,0.769l1.926,0.784
		l1.998,0.789l1.969,0.754l2.041,0.759l2.006,0.723l2.184,0.763l2.175,0.735l2.188,0.717l2.179,0.691l2.329,0.716l2.31,0.687
		l2.357,0.677l2.392,0.665l2.444,0.656l2.518,0.653l2.459,0.615l2.55,0.615l2.471,0.573l2.556,0.571l2.625,0.563l2.68,0.551
		l2.644,0.521l2.813,0.531l2.802,0.506l2.928,0.505l2.975,0.491l3,0.471l2.957,0.444l5.816,0.823
		c5.571,0.686,14.552,1.541,24.677,1.541c5.138,0,9.962-0.223,14.424-0.664l8.499-1.227l3.343-0.473l2.957-0.444l2.994-0.47
		l2.958-0.488l2.98-0.514l2.773-0.5l2.813-0.531l2.631-0.519l2.688-0.553l2.658-0.57l2.507-0.56l2.503-0.581l2.538-0.611l2.46-0.615
		l2.512-0.651l2.482-0.667l2.337-0.649l2.361-0.679l2.338-0.695l2.331-0.716l2.147-0.682l2.218-0.727l2.17-0.734l2.176-0.76
		l2.005-0.723l2.044-0.76l1.969-0.754l1.998-0.789l1.926-0.784l1.83-0.768l1.839-0.794l1.816-0.808l1.679-0.77l1.724-0.813
		l1.666-0.809l1.65-0.825l1.619-0.834l1.518-0.805l1.537-0.839l1.491-0.837l1.436-0.83l1.356-0.808l1.337-0.819l1.299-0.818
		l1.309-0.85l1.254-0.838l1.252-0.863l1.221-0.867l1.113-0.813l1.228-0.923l1.194-0.925l1.21-0.966l1.175-0.964l1.172-0.99
		l1.154-1.001l1.138-1.014l1.134-1.039l1.143-1.074l1.117-1.077l1.126-1.114l1.098-1.115l1.153-1.202l1.164-1.244l1.135-1.245
		l1.068-1.201l1.124-1.295l1.1-1.299l1.087-1.315l1.077-1.335l1.097-1.392l1.122-1.461l1.113-1.484l1.077-1.473l1.078-1.51
		l1.1-1.579l1.044-1.533l1.1-1.654l1.081-1.666l1.071-1.693l1.039-1.681l1.03-1.706l1.029-1.746l1.051-1.824l1.061-1.887
		l1.023-1.867l1.023-1.914l1.003-1.919l0.984-1.928l1.013-2.035l0.998-2.054l0.975-2.058l1.001-2.163l0.942-2.087l0.972-2.21
		l0.96-2.237l0.937-2.238l0.928-2.276l0.937-2.354l0.923-2.384l0.906-2.402l0.89-2.421l0.869-2.431l0.89-2.551l0.871-2.575
		l0.841-2.549l0.828-2.582l0.797-2.561l0.802-2.646l0.805-2.732l0.78-2.731l0.767-2.766l0.75-2.789l0.712-2.728l0.742-2.936
		l0.711-2.905l0.688-2.911l0.67-2.928l0.641-2.896l0.666-3.12l0.62-3.007l0.608-3.069l0.586-3.073l0.563-3.073l0.546-3.107
		l0.516-3.069l0.496-3.093l0.475-3.102l0.449-3.094l0.432-3.118l0.404-3.099l0.386-3.12l0.375-3.225l0.356-3.267l0.335-3.268
		l0.313-3.297l0.298-3.388l0.301-3.679l0.285-3.78l0.282-4.063l0.257-4.012l0.251-4.283l0.229-4.333l0.207-4.313l0.176-4.133
		L1001.42,0l488.405,126.917l-9.026,35.806l-3.458,13.776l-3.446,13.774l-3.442,13.813l-3.448,13.89l-3.449,13.953l-3.43,13.936
		l-3.39,13.849l-3.061,12.584l-2.489,10.327l-2.139,8.968l-1.954,8.292l-1.772,7.618l-1.645,7.166l-1.568,6.938l-1.495,6.717
		l-1.372,6.264l-1.346,6.263l-1.277,6.046l-1.202,5.813l-1.166,5.747l-1.11,5.594l-1.042,5.369l-0.974,5.136l-0.942,5.097
		l-0.879,4.881l-0.866,4.94l-0.802,4.711l-0.774,4.685l-0.727,4.53l-0.677,4.362l-0.68,4.536l-0.626,4.33l-0.59,4.241l-0.573,4.287
		l-0.535,4.175l-0.531,4.319l-0.488,4.176l-0.454,4.091l-0.423,3.989l-0.401,4.014l-0.383,4.057l-0.352,3.988l-0.335,4.047
		l-0.308,4.021l-0.285,4.058l-0.244,3.774l-0.22,3.771l-0.202,3.841l-0.177,3.789l-0.153,3.792l-0.129,3.797l-0.107,3.748
		l-0.081,3.732l-0.062,3.871l-0.035,3.739l-0.01,3.862l0.012,3.523l0.033,3.557l0.058,3.591l0.078,3.547l0.102,3.552l0.125,3.6
		l0.146,3.509l0.173,3.576l0.195,3.544l0.205,3.312l0.228,3.321l0.258,3.41l0.273,3.302l0.299,3.332l0.316,3.262l0.347,3.316
		l0.34,3.043l0.368,3.095l0.383,3.029l0.418,3.124l0.429,3.027l0.461,3.081l0.472,2.996l0.503,3.036l0.487,2.796l0.51,2.802
		l0.515,2.711l0.564,2.843l0.562,2.717l0.598,2.768l0.626,2.79l0.577,2.47l0.621,2.561l0.64,2.547l0.653,2.509l0.674,2.496
		l0.689,2.468l0.717,2.477l0.736,2.457l0.761,2.452l0.752,2.352l0.717,2.166l0.766,2.245l0.768,2.181l0.802,2.214l0.817,2.188
		l0.837,2.174l0.844,2.125l0.889,2.171l0.804,1.905l0.842,1.945l0.918,2.062l0.858,1.875l0.89,1.888l0.899,1.855l0.923,1.856
		l0.943,1.845l0.91,1.732l0.964,1.785l1.01,1.819l1.007,1.766l1.03,1.756l0.997,1.654l0.954,1.543l0.981,1.546l0.993,1.525
		l1.018,1.523l0.966,1.412l1.051,1.495l1.041,1.442l1.09,1.472l1.09,1.436l1.084,1.389l1.125,1.402l1.141,1.386l1.147,1.357
		l1.168,1.343l1.109,1.242l1.066,1.164l1.067,1.139l1.108,1.15l1.055,1.069l1.285,1.269l1.271,1.222l1.304,1.218l1.342,1.221
		l1.35,1.2l1.355,1.177l1.407,1.193l1.57,1.301l1.603,1.297l1.633,1.289l1.669,1.289l1.652,1.248l1.688,1.247l1.7,1.23l1.877,1.33
		l1.966,1.361l1.901,1.29l1.954,1.297l1.961,1.274l1.972,1.257l2.184,1.362l2.1,1.284l2.228,1.335l2.199,1.29l2.218,1.274
		l2.252,1.264l2.252,1.236l2.221,1.192l2.266,1.187l2.293,1.176l2.308,1.155l2.326,1.142l2.537,1.217l2.581,1.213l2.79,1.284
		l3.078,1.39l3.295,1.463l3.28,1.432l19.869,8.5l-2.805,28.726l-1.326,13.32l-1.379,13.589l-1.41,13.667l-1.356,12.903
		l-1.307,12.221l-1.296,11.893l-1.266,11.381l-1.167,10.278l-1.243,10.733l-1.189,10.065l-1.213,10.063l-1.238,10.062l-1.262,10.057
		l-1.288,10.057l-1.313,10.055l-1.247,9.38l-1.383,10.197l-1.479,10.707l-1.685,12.026l-1.989,14.015l-2.101,14.667l-4.167,29.014
		l-2.08,14.616l-1.773,12.608l-1.562,11.272l-1.354,9.939l-1.243,9.277l-1.216,9.267l-1.104,8.604l-0.995,7.938l-0.973,7.94
		l-0.911,7.643l-0.843,7.271l-0.818,7.271l-0.792,7.271l-0.695,6.604l-0.672,6.604l-0.646,6.604l-0.619,6.604l-0.593,6.603
		l-0.507,5.934l-0.483,5.938l-0.46,5.938l-0.427,5.854l-0.405,5.91l-0.383,5.982l-0.313,5.269l-0.286,5.188l-0.271,5.335
		l-0.239,5.196l-0.22,5.304l-0.193,5.27l-0.166,5.238l-0.142,5.296l-0.112,5.242l-0.085,5.246l-0.051,4.755l-0.031,5.205
		l-0.002,4.644l0.02,4.56l0.045,4.616l0.066,4.545l0.092,4.629l0.115,4.563l0.14,4.59l0.165,4.593l0.188,4.523l0.235,4.967
		l0.245,4.614l0.266,4.558l0.292,4.589l0.313,4.552l0.34,4.589l0.413,5.228l0.446,5.286l0.465,5.179l0.501,5.271l0.544,5.431
		l0.549,5.234l0.58,5.28l0.599,5.242l0.617,5.196l0.725,5.871l0.758,5.922l0.788,5.949l0.808,5.897l0.832,5.895l0.857,5.9
		l0.978,6.565l1.004,6.553l1.056,6.724l1.054,6.558l1.186,7.219l1.211,7.213l1.349,7.878l1.374,7.873l1.516,8.541l1.659,9.195
		l1.804,9.862l1.952,10.519l2.314,12.336l2.743,14.495l5.522,29.027l2.757,14.548l2.487,13.249l2.13,11.477l1.826,9.972l1.682,9.317
		l1.539,8.67l1.398,8.011l1.372,8.028l1.235,7.364l1.209,7.377l1.077,6.717l1.052,6.725l1.026,6.731l0.901,6.073l0.913,6.32
		l0.853,6.084l0.828,6.088l0.804,6.082l0.779,6.09l0.756,6.093l0.732,6.088l0.786,6.773l0.757,6.773l0.731,6.771l0.702,6.783
		l0.675,6.78l0.647,6.778l0.631,6.877l0.594,6.789l0.567,6.785l0.543,6.782l0.518,6.792l0.491,6.786l0.465,6.795l0.441,6.787
		l0.415,6.795l0.392,6.788l0.366,6.799l0.343,6.788l0.318,6.798l0.312,7.221l0.295,7.421l0.289,7.929l0.275,8.238l0.271,8.845
		l0.245,8.861l0.22,8.702l0.173,7.819l-0.135,6.053l-0.225,9.105l-0.233,8.655l-0.224,7.482l-0.277,8.364l-0.33,9.188l-1.229,31.676
		H2.647z" style=""></path></clipPath></defs></svg>