<?xml version="1.0" encoding="utf-8"?><!DOCTYPE svg PUBLIC "-//W3C//DTD SVG 1.1//EN" "http://www.w3.org/Graphics/SVG/1.1/DTD/svg11.dtd"><svg version="1.1" id="图层_1" xmlns="http://www.w3.org/2000/svg" xmlns:xlink="http://www.w3.org/1999/xlink" x="0" y="0" width="1467" height="577" viewBox="0 0 1467.662 577.93" enable-background="new 0 0 1467.662 577.93" xml:space="preserve">
<g>
	<polygon id="caipian" fill="#fefefe" points="1219.628,563.741 1176.786,556.458 1168.079,555 1159.374,553.566 1150.666,552.156 
		1141.953,550.769 1133.235,549.405 1124.515,548.065 1115.785,546.746 1106.385,545.351 1096.978,543.982 1087.523,542.631 
		1078.784,541.406 1070.043,540.205 1061.303,539.029 1053.232,537.965 1045.167,536.927 1037.095,535.913 1029.027,534.924 
		1021.632,534.041 1014.238,533.182 1006.84,532.347 999.22,531.511 991.824,530.727 984.421,529.966 977.016,529.229 
		969.603,528.515 961.508,527.761 953.411,527.033 945.311,526.329 937.2,525.647 928.414,524.935 919.621,524.248 910.719,523.576 
		901.92,522.935 893.114,522.318 884.313,521.724 875.512,521.156 866.705,520.611 857.9,520.091 849.095,519.597 840.288,519.127 
		831.486,518.686 822.68,518.271 814.354,517.902 804.951,517.509 795.078,517.125 784.896,516.754 774.637,516.405 
		764.059,516.067 753.297,515.747 742.792,515.458 733.939,515.238 724.688,515.492 713.827,515.816 702.414,516.181 
		691.354,516.559 680.046,516.97 669.605,517.374 659.58,517.784 650.151,518.194 640.635,518.631 631.9,519.059 623.175,519.51 
		614.457,519.987 605.738,520.489 597.023,521.017 588.311,521.572 580.397,522.1 572.483,522.651 564.571,523.225 556.664,523.824 
		548.757,524.446 540.467,525.124 532.569,525.795 524.667,526.491 516.768,527.209 508.871,527.952 500.976,528.716 
		492.285,529.584 483.602,530.478 474.918,531.398 466.241,532.344 457.604,533.311 448.929,534.307 440.254,535.328 
		431.584,536.374 422.914,537.444 414.249,538.54 405.583,539.659 396.926,540.802 388.265,541.97 379.615,543.163 370.601,544.431 
		361.957,545.672 352.513,547.053 342.289,548.575 332.055,550.122 321.035,551.811 308.431,553.768 294.248,555.998 
		279.663,558.308 265.646,560.541 251.541,562.797 237.435,565.061 210.963,569.33 164.452,576.842 215.313,486.653 0,267.171 
		58.047,258.223 71.64,256.104 83.994,254.155 92.329,252.822 96.583,252.12 100.066,251.523 103.009,250.996 105.804,250.473 
		108.471,249.95 111.374,249.356 114.249,248.742 117.162,248.096 120.085,247.424 122.999,246.731 126.146,245.959 
		129.295,245.162 132.511,244.324 135.68,243.473 138.793,242.615 141.908,241.729 144.759,240.895 147.624,240.033 
		150.471,239.152 153.317,238.246 156.131,237.323 158.706,236.455 161.26,235.572 163.817,234.663 166.339,233.742 168.853,232.8 
		171.436,231.805 173.919,230.822 176.175,229.905 178.41,228.974 180.616,228.03 182.812,227.064 184.881,226.13 187.041,225.129 
		189.208,224.096 191.365,223.042 193.503,221.97 195.641,220.87 197.728,219.771 199.834,218.634 201.966,217.458 204.061,216.276 
		206.197,215.046 208.475,213.708 210.693,212.378 212.998,210.971 215.296,209.541 217.792,207.959 220.294,206.344 
		222.783,204.709 225.262,203.054 227.925,201.248 230.614,199.395 233.283,197.528 236.159,195.488 239.035,193.419 
		242.108,191.18 245.375,188.769 248.844,186.178 252.543,183.385 256.47,180.39 261.048,176.866 266.172,172.891 272.538,167.919 
		283.672,159.188 291.351,153.181 297.008,148.783 301.862,145.04 306.401,141.569 310.471,138.485 314.345,135.582 
		318.038,132.843 321.527,130.286 325.044,127.738 328.375,125.355 331.703,123.005 335.047,120.671 338.62,118.21 342.215,115.765 
		345.822,113.344 349.434,110.952 353.07,108.574 356.716,106.22 360.376,103.889 364.04,101.584 367.725,99.297 371.427,97.028 
		375.141,94.783 378.876,92.556 382.611,90.36 386.134,88.315 389.673,86.29 393.226,84.284 396.773,82.31 400.356,80.341 
		403.936,78.404 407.535,76.483 411.144,74.585 414.773,72.705 418.401,70.854 422.049,69.019 425.705,67.208 429.322,65.445 
		432.995,63.684 436.693,61.936 440.399,60.214 444.113,58.518 447.842,56.842 451.579,55.192 455.329,53.564 459.095,51.958 
		462.744,50.431 466.52,48.878 470.32,47.344 473.863,45.941 477.429,44.554 480.999,43.191 484.576,41.851 488.162,40.533 
		491.767,39.234 495.502,37.916 499.125,36.663 502.741,35.439 506.383,34.232 510.017,33.055 513.675,31.896 517.332,30.764 
		521.005,29.654 524.528,28.617 528.212,27.557 531.896,26.524 535.588,25.516 539.287,24.531 542.993,23.569 546.695,22.636 
		550.411,21.722 554.126,20.834 558.084,19.915 562.064,19.019 566.056,18.146 570.042,17.3 574.037,16.477 578.04,15.677 
		582.299,14.854 586.561,14.056 590.776,13.291 595.05,12.541 599.312,11.818 603.587,11.117 607.865,10.439 612.41,9.745 
		616.952,9.078 621.503,8.435 626.044,7.819 630.603,7.224 635.153,6.657 639.808,6.102 644.366,5.581 649.185,5.057 654.009,4.558 
		658.832,4.084 663.65,3.636 668.475,3.21 673.297,2.809 678.392,2.41 683.48,2.037 688.67,1.681 693.496,1.376 698.085,1.107 
		702.667,0.865 707.004,0.658 711.334,0.479 715.419,0.332 719.5,0.212 723.59,0.118 727.457,0.054 733.817,0 740.391,0.056 
		744.214,0.12 748.306,0.215 752.381,0.336 756.461,0.482 760.793,0.665 765.113,0.871 769.705,1.114 774.271,1.382 779.11,1.689 
		784.288,2.044 789.384,2.418 794.471,2.817 799.298,3.22 804.118,3.646 808.945,4.095 813.771,4.57 818.593,5.07 823.414,5.595 
		827.97,6.115 832.623,6.671 837.186,7.241 841.729,7.834 846.282,8.452 850.834,9.095 855.379,9.764 859.921,10.458 864.2,11.137 
		868.466,11.838 872.742,12.563 877.005,13.313 881.234,14.08 885.492,14.878 889.758,15.705 893.758,16.504 897.751,17.328 
		901.745,18.176 905.737,19.05 909.727,19.95 913.67,20.866 917.395,21.757 921.098,22.668 924.813,23.606 928.518,24.568 
		932.216,25.554 935.908,26.564 939.599,27.599 943.275,28.658 946.808,29.7 950.47,30.808 954.132,31.941 957.784,33.099 
		961.429,34.281 965.052,35.483 968.683,36.712 972.296,37.963 976.038,39.285 979.631,40.581 983.218,41.9 986.798,43.242 
		990.367,44.606 993.921,45.989 997.487,47.402 1001.277,48.934 1005.051,50.487 1008.706,52.017 1012.458,53.619 1016.212,55.248 
		1019.958,56.903 1023.679,58.577 1027.393,60.274 1031.1,61.998 1034.791,63.743 1038.471,65.509 1042.075,67.267 1045.737,69.081 
		1049.381,70.914 1053.013,72.769 1056.64,74.649 1060.248,76.548 1063.844,78.468 1067.428,80.408 1071.003,82.372 
		1074.556,84.351 1078.102,86.354 1081.641,88.38 1085.163,90.425 1088.909,92.629 1092.637,94.853 1096.351,97.098 
		1100.052,99.367 1103.738,101.657 1107.396,103.959 1111.059,106.293 1114.704,108.647 1118.337,111.023 1121.954,113.421 
		1125.563,115.843 1129.151,118.285 1132.728,120.749 1136.067,123.081 1139.395,125.432 1142.728,127.817 1146.234,130.359 
		1149.725,132.918 1153.405,135.648 1157.277,138.551 1161.342,141.629 1165.725,144.981 1170.585,148.729 1176.257,153.139 
		1183.97,159.172 1195.16,167.947 1201.549,172.937 1206.681,176.917 1211.268,180.447 1215.113,183.381 1218.821,186.181 
		1222.259,188.749 1225.576,191.197 1228.627,193.419 1231.503,195.488 1234.38,197.528 1237.048,199.394 1239.734,201.246 
		1242.405,203.058 1244.879,204.709 1247.368,206.344 1249.87,207.959 1252.367,209.542 1254.662,210.97 1256.982,212.387 
		1259.175,213.702 1261.466,215.046 1263.602,216.277 1265.702,217.461 1267.814,218.627 1269.937,219.771 1272.036,220.878 
		1274.147,221.964 1276.294,223.04 1278.459,224.099 1280.618,225.127 1282.781,226.13 1284.852,227.064 1287.047,228.031 
		1289.252,228.974 1291.489,229.907 1293.743,230.823 1296.229,231.807 1298.804,232.798 1301.321,233.742 1303.844,234.663 
		1306.401,235.572 1308.955,236.455 1311.529,237.322 1314.333,238.242 1317.197,239.154 1320.045,240.035 1322.898,240.894 
		1325.742,241.726 1328.882,242.618 1332.002,243.479 1335.119,244.315 1338.379,245.164 1341.515,245.959 1344.663,246.731 
		1347.588,247.427 1350.477,248.09 1353.423,248.745 1356.287,249.356 1359.198,249.952 1361.851,250.472 1364.666,250.999 
		1367.574,251.52 1371.095,252.122 1375.321,252.82 1383.714,254.163 1396.06,256.11 1409.651,258.229 1467.662,267.171 
		1252.265,486.739 1303.275,577.93 	" stroke="none" style="stroke-width: 5; stroke-dasharray: 26;" mygroup="clFEFEFE"></polygon>
</g>
<desc>Created with Snap</desc><defs></defs><defs><clipPath id="clip_pathright_sleeve"><polygon id="polygonSjq96sw9c30" fill="none" points="1219.628,563.741 1176.786,556.458 1168.079,555 1159.374,553.566 1150.666,552.156 
		1141.953,550.769 1133.235,549.405 1124.515,548.065 1115.785,546.746 1106.385,545.351 1096.978,543.982 1087.523,542.631 
		1078.784,541.406 1070.043,540.205 1061.303,539.029 1053.232,537.965 1045.167,536.927 1037.095,535.913 1029.027,534.924 
		1021.632,534.041 1014.238,533.182 1006.84,532.347 999.22,531.511 991.824,530.727 984.421,529.966 977.016,529.229 
		969.603,528.515 961.508,527.761 953.411,527.033 945.311,526.329 937.2,525.647 928.414,524.935 919.621,524.248 910.719,523.576 
		901.92,522.935 893.114,522.318 884.313,521.724 875.512,521.156 866.705,520.611 857.9,520.091 849.095,519.597 840.288,519.127 
		831.486,518.686 822.68,518.271 814.354,517.902 804.951,517.509 795.078,517.125 784.896,516.754 774.637,516.405 
		764.059,516.067 753.297,515.747 742.792,515.458 733.939,515.238 724.688,515.492 713.827,515.816 702.414,516.181 
		691.354,516.559 680.046,516.97 669.605,517.374 659.58,517.784 650.151,518.194 640.635,518.631 631.9,519.059 623.175,519.51 
		614.457,519.987 605.738,520.489 597.023,521.017 588.311,521.572 580.397,522.1 572.483,522.651 564.571,523.225 556.664,523.824 
		548.757,524.446 540.467,525.124 532.569,525.795 524.667,526.491 516.768,527.209 508.871,527.952 500.976,528.716 
		492.285,529.584 483.602,530.478 474.918,531.398 466.241,532.344 457.604,533.311 448.929,534.307 440.254,535.328 
		431.584,536.374 422.914,537.444 414.249,538.54 405.583,539.659 396.926,540.802 388.265,541.97 379.615,543.163 370.601,544.431 
		361.957,545.672 352.513,547.053 342.289,548.575 332.055,550.122 321.035,551.811 308.431,553.768 294.248,555.998 
		279.663,558.308 265.646,560.541 251.541,562.797 237.435,565.061 210.963,569.33 164.452,576.842 215.313,486.653 0,267.171 
		58.047,258.223 71.64,256.104 83.994,254.155 92.329,252.822 96.583,252.12 100.066,251.523 103.009,250.996 105.804,250.473 
		108.471,249.95 111.374,249.356 114.249,248.742 117.162,248.096 120.085,247.424 122.999,246.731 126.146,245.959 
		129.295,245.162 132.511,244.324 135.68,243.473 138.793,242.615 141.908,241.729 144.759,240.895 147.624,240.033 
		150.471,239.152 153.317,238.246 156.131,237.323 158.706,236.455 161.26,235.572 163.817,234.663 166.339,233.742 168.853,232.8 
		171.436,231.805 173.919,230.822 176.175,229.905 178.41,228.974 180.616,228.03 182.812,227.064 184.881,226.13 187.041,225.129 
		189.208,224.096 191.365,223.042 193.503,221.97 195.641,220.87 197.728,219.771 199.834,218.634 201.966,217.458 204.061,216.276 
		206.197,215.046 208.475,213.708 210.693,212.378 212.998,210.971 215.296,209.541 217.792,207.959 220.294,206.344 
		222.783,204.709 225.262,203.054 227.925,201.248 230.614,199.395 233.283,197.528 236.159,195.488 239.035,193.419 
		242.108,191.18 245.375,188.769 248.844,186.178 252.543,183.385 256.47,180.39 261.048,176.866 266.172,172.891 272.538,167.919 
		283.672,159.188 291.351,153.181 297.008,148.783 301.862,145.04 306.401,141.569 310.471,138.485 314.345,135.582 
		318.038,132.843 321.527,130.286 325.044,127.738 328.375,125.355 331.703,123.005 335.047,120.671 338.62,118.21 342.215,115.765 
		345.822,113.344 349.434,110.952 353.07,108.574 356.716,106.22 360.376,103.889 364.04,101.584 367.725,99.297 371.427,97.028 
		375.141,94.783 378.876,92.556 382.611,90.36 386.134,88.315 389.673,86.29 393.226,84.284 396.773,82.31 400.356,80.341 
		403.936,78.404 407.535,76.483 411.144,74.585 414.773,72.705 418.401,70.854 422.049,69.019 425.705,67.208 429.322,65.445 
		432.995,63.684 436.693,61.936 440.399,60.214 444.113,58.518 447.842,56.842 451.579,55.192 455.329,53.564 459.095,51.958 
		462.744,50.431 466.52,48.878 470.32,47.344 473.863,45.941 477.429,44.554 480.999,43.191 484.576,41.851 488.162,40.533 
		491.767,39.234 495.502,37.916 499.125,36.663 502.741,35.439 506.383,34.232 510.017,33.055 513.675,31.896 517.332,30.764 
		521.005,29.654 524.528,28.617 528.212,27.557 531.896,26.524 535.588,25.516 539.287,24.531 542.993,23.569 546.695,22.636 
		550.411,21.722 554.126,20.834 558.084,19.915 562.064,19.019 566.056,18.146 570.042,17.3 574.037,16.477 578.04,15.677 
		582.299,14.854 586.561,14.056 590.776,13.291 595.05,12.541 599.312,11.818 603.587,11.117 607.865,10.439 612.41,9.745 
		616.952,9.078 621.503,8.435 626.044,7.819 630.603,7.224 635.153,6.657 639.808,6.102 644.366,5.581 649.185,5.057 654.009,4.558 
		658.832,4.084 663.65,3.636 668.475,3.21 673.297,2.809 678.392,2.41 683.48,2.037 688.67,1.681 693.496,1.376 698.085,1.107 
		702.667,0.865 707.004,0.658 711.334,0.479 715.419,0.332 719.5,0.212 723.59,0.118 727.457,0.054 733.817,0 740.391,0.056 
		744.214,0.12 748.306,0.215 752.381,0.336 756.461,0.482 760.793,0.665 765.113,0.871 769.705,1.114 774.271,1.382 779.11,1.689 
		784.288,2.044 789.384,2.418 794.471,2.817 799.298,3.22 804.118,3.646 808.945,4.095 813.771,4.57 818.593,5.07 823.414,5.595 
		827.97,6.115 832.623,6.671 837.186,7.241 841.729,7.834 846.282,8.452 850.834,9.095 855.379,9.764 859.921,10.458 864.2,11.137 
		868.466,11.838 872.742,12.563 877.005,13.313 881.234,14.08 885.492,14.878 889.758,15.705 893.758,16.504 897.751,17.328 
		901.745,18.176 905.737,19.05 909.727,19.95 913.67,20.866 917.395,21.757 921.098,22.668 924.813,23.606 928.518,24.568 
		932.216,25.554 935.908,26.564 939.599,27.599 943.275,28.658 946.808,29.7 950.47,30.808 954.132,31.941 957.784,33.099 
		961.429,34.281 965.052,35.483 968.683,36.712 972.296,37.963 976.038,39.285 979.631,40.581 983.218,41.9 986.798,43.242 
		990.367,44.606 993.921,45.989 997.487,47.402 1001.277,48.934 1005.051,50.487 1008.706,52.017 1012.458,53.619 1016.212,55.248 
		1019.958,56.903 1023.679,58.577 1027.393,60.274 1031.1,61.998 1034.791,63.743 1038.471,65.509 1042.075,67.267 1045.737,69.081 
		1049.381,70.914 1053.013,72.769 1056.64,74.649 1060.248,76.548 1063.844,78.468 1067.428,80.408 1071.003,82.372 
		1074.556,84.351 1078.102,86.354 1081.641,88.38 1085.163,90.425 1088.909,92.629 1092.637,94.853 1096.351,97.098 
		1100.052,99.367 1103.738,101.657 1107.396,103.959 1111.059,106.293 1114.704,108.647 1118.337,111.023 1121.954,113.421 
		1125.563,115.843 1129.151,118.285 1132.728,120.749 1136.067,123.081 1139.395,125.432 1142.728,127.817 1146.234,130.359 
		1149.725,132.918 1153.405,135.648 1157.277,138.551 1161.342,141.629 1165.725,144.981 1170.585,148.729 1176.257,153.139 
		1183.97,159.172 1195.16,167.947 1201.549,172.937 1206.681,176.917 1211.268,180.447 1215.113,183.381 1218.821,186.181 
		1222.259,188.749 1225.576,191.197 1228.627,193.419 1231.503,195.488 1234.38,197.528 1237.048,199.394 1239.734,201.246 
		1242.405,203.058 1244.879,204.709 1247.368,206.344 1249.87,207.959 1252.367,209.542 1254.662,210.97 1256.982,212.387 
		1259.175,213.702 1261.466,215.046 1263.602,216.277 1265.702,217.461 1267.814,218.627 1269.937,219.771 1272.036,220.878 
		1274.147,221.964 1276.294,223.04 1278.459,224.099 1280.618,225.127 1282.781,226.13 1284.852,227.064 1287.047,228.031 
		1289.252,228.974 1291.489,229.907 1293.743,230.823 1296.229,231.807 1298.804,232.798 1301.321,233.742 1303.844,234.663 
		1306.401,235.572 1308.955,236.455 1311.529,237.322 1314.333,238.242 1317.197,239.154 1320.045,240.035 1322.898,240.894 
		1325.742,241.726 1328.882,242.618 1332.002,243.479 1335.119,244.315 1338.379,245.164 1341.515,245.959 1344.663,246.731 
		1347.588,247.427 1350.477,248.09 1353.423,248.745 1356.287,249.356 1359.198,249.952 1361.851,250.472 1364.666,250.999 
		1367.574,251.52 1371.095,252.122 1375.321,252.82 1383.714,254.163 1396.06,256.11 1409.651,258.229 1467.662,267.171 
		1252.265,486.739 1303.275,577.93 	" style=""></polygon></clipPath></defs></svg>