<?xml version="1.0" encoding="utf-8"?><!DOCTYPE svg PUBLIC "-//W3C//DTD SVG 1.1//EN" "http://www.w3.org/Graphics/SVG/1.1/DTD/svg11.dtd"><svg version="1.1" id="图层_1" xmlns="http://www.w3.org/2000/svg" xmlns:xlink="http://www.w3.org/1999/xlink" x="0" y="0" width="1467" height="577" viewBox="0 0 1467.666 577.932" enable-background="new 0 0 1467.666 577.932" xml:space="preserve">
<g>
	<polygon id="caipian" fill="#fefefe" points="215.398,486.739 0,267.17 58.049,258.223 71.642,256.103 83.999,254.154 
		92.336,252.82 96.583,252.12 100.062,251.523 103.018,250.994 105.797,250.474 108.46,249.952 111.393,249.352 114.24,248.744 
		117.191,248.089 120.068,247.427 122.99,246.733 126.16,245.954 129.299,245.16 132.505,244.325 135.664,243.478 138.793,242.614 
		141.922,241.724 144.773,240.891 147.621,240.034 150.464,239.153 153.322,238.243 156.134,237.321 158.726,236.448 
		161.242,235.577 163.823,234.661 166.322,233.748 168.87,232.793 171.421,231.81 173.951,230.809 176.165,229.91 178.402,228.977 
		180.622,228.027 182.825,227.058 184.871,226.135 187.039,225.129 189.207,224.097 191.369,223.04 193.503,221.969 
		195.637,220.872 197.725,219.771 199.835,218.633 201.977,217.451 204.062,216.275 206.179,215.057 208.507,213.689 
		210.691,212.38 212.981,210.981 215.295,209.542 217.809,207.949 220.276,206.356 222.792,204.703 225.25,203.062 227.946,201.233 
		230.606,199.4 233.288,197.524 236.154,195.491 239.032,193.421 242.108,191.18 245.367,188.775 248.876,186.155 252.554,183.377 
		256.473,180.388 261.049,176.865 266.174,172.89 272.537,167.92 283.673,159.188 291.352,153.18 297.013,148.78 301.863,145.039 
		306.406,141.564 310.473,138.484 314.352,135.577 318.035,132.845 321.535,130.279 325.05,127.733 328.372,125.358 
		331.704,123.003 335.049,120.669 338.624,118.208 342.214,115.766 345.82,113.345 349.44,110.948 353.072,108.573 356.715,106.221 
		360.379,103.886 364.038,101.585 367.726,99.295 371.429,97.026 375.146,94.78 378.869,92.56 382.614,90.356 386.141,88.311 
		389.676,86.289 393.228,84.283 396.773,82.31 400.353,80.343 403.937,78.403 407.539,76.481 411.145,74.585 414.771,72.706 
		418.404,70.852 422.056,69.015 425.709,67.207 429.318,65.447 432.997,63.682 436.694,61.936 440.4,60.213 444.114,58.517 
		447.84,56.843 451.585,55.188 455.337,53.56 459.087,51.962 462.745,50.429 466.526,48.875 470.317,47.345 473.869,45.938 
		477.431,44.554 480.995,43.193 484.578,41.85 488.17,40.53 491.76,39.237 495.509,37.913 499.119,36.665 502.748,35.436 
		506.379,34.233 510.025,33.052 513.676,31.896 517.335,30.764 520.999,29.657 524.528,28.616 528.213,27.556 531.896,26.524 
		535.595,25.513 539.29,24.53 542.989,23.571 546.701,22.634 550.408,21.723 554.132,20.833 558.08,19.916 562.066,19.018 
		566.052,18.146 570.048,17.297 574.045,16.475 578.036,15.679 582.301,14.853 586.562,14.055 590.783,13.29 595.045,12.542 
		599.319,11.816 603.589,11.117 607.862,10.439 612.413,9.744 616.953,9.077 621.505,8.434 626.052,7.817 630.601,7.225 
		635.155,6.656 639.81,6.101 644.367,5.581 649.188,5.056 654.009,4.557 658.83,4.083 663.658,3.633 668.478,3.209 673.305,2.808 
		678.394,2.41 683.482,2.037 688.662,1.682 693.503,1.374 698.081,1.106 702.674,0.862 707.001,0.658 711.342,0.477 715.422,0.331 
		719.503,0.211 723.592,0.117 727.465,0.053 733.846,0 740.396,0.055 744.222,0.12 748.304,0.215 752.389,0.336 756.457,0.482 
		760.79,0.663 765.125,0.869 769.696,1.114 774.28,1.381 779.111,1.689 784.292,2.044 789.383,2.418 794.474,2.816 799.295,3.218 
		804.124,3.644 808.948,4.094 813.767,4.568 818.599,5.068 823.417,5.594 827.97,6.114 832.631,6.671 837.183,7.24 841.731,7.833 
		846.288,8.451 850.832,9.095 855.385,9.764 859.922,10.458 864.196,11.136 868.473,11.838 872.738,12.563 877.01,13.313 
		881.231,14.079 885.5,14.879 889.755,15.703 893.755,16.502 897.756,17.326 901.746,18.174 905.738,19.049 909.732,19.95 
		913.673,20.867 917.39,21.755 921.107,22.669 924.813,23.606 928.513,24.566 932.22,25.554 935.906,26.563 939.601,27.599 
		943.278,28.658 946.808,29.699 950.475,30.808 954.132,31.941 957.785,33.099 961.424,34.279 965.06,35.484 968.677,36.71 
		972.301,37.963 976.04,39.285 979.629,40.58 983.224,41.901 986.795,43.241 990.367,44.605 993.926,45.99 997.485,47.401 
		1001.271,48.93 1005.061,50.488 1008.699,52.014 1012.464,53.619 1016.221,55.25 1019.954,56.901 1023.68,58.576 1027.392,60.273 
		1031.104,61.998 1034.795,63.743 1038.471,65.509 1042.076,67.267 1045.739,69.081 1049.38,70.913 1053.019,72.771 
		1056.636,74.646 1060.25,76.547 1063.844,78.466 1067.432,80.409 1070.999,82.369 1074.563,84.354 1078.101,86.353 1081.642,88.38 
		1085.167,90.426 1088.911,92.629 1092.634,94.85 1096.353,97.098 1100.049,99.364 1103.741,101.657 1107.396,103.958 
		1111.061,106.293 1114.705,108.646 1118.34,111.024 1121.958,113.422 1125.561,115.841 1129.154,118.285 1132.725,120.747 
		1136.072,123.083 1139.394,125.431 1142.728,127.816 1146.241,130.361 1149.728,132.919 1153.404,135.646 1157.285,138.555 
		1161.264,141.569 1165.804,145.04 1170.589,148.731 1176.259,153.139 1183.972,159.173 1195.161,167.947 1201.547,172.934 
		1206.685,176.92 1211.267,180.447 1215.1,183.369 1218.828,186.185 1222.287,188.769 1225.548,191.174 1228.629,193.419 
		1231.511,195.491 1234.377,197.525 1237.042,199.39 1239.746,201.252 1242.392,203.047 1244.895,204.719 1247.358,206.336 
		1249.871,207.958 1252.38,209.548 1254.667,210.973 1256.953,212.368 1259.175,213.7 1261.499,215.066 1263.582,216.264 
		1265.69,217.453 1267.83,218.634 1269.933,219.768 1272.026,220.872 1274.162,221.97 1276.294,223.04 1278.457,224.097 
		1280.624,225.129 1282.793,226.135 1284.837,227.058 1287.047,228.029 1289.262,228.977 1291.484,229.904 1293.727,230.814 
		1296.246,231.812 1298.806,232.798 1301.311,233.736 1303.857,234.667 1306.404,235.57 1308.962,236.457 1311.531,237.322 
		1314.323,238.237 1317.217,239.158 1320.033,240.03 1322.893,240.891 1325.762,241.73 1328.873,242.615 1331.992,243.476 
		1335.151,244.322 1338.343,245.154 1341.519,245.958 1344.698,246.739 1347.568,247.421 1350.498,248.095 1353.395,248.737 
		1356.303,249.359 1359.184,249.948 1361.867,250.474 1364.659,250.996 1367.579,251.519 1371.067,252.118 1375.384,252.829 
		1383.717,254.162 1396.063,256.109 1409.656,258.229 1467.666,267.167 1252.351,486.652 1303.21,576.842 1244.432,567.347 
		1230.216,565.058 1216.108,562.793 1202.003,560.538 1187.982,558.305 1173.387,555.992 1159.193,553.762 1146.584,551.803 
		1135.559,550.113 1125.323,548.565 1115.093,547.044 1105.65,545.664 1097,544.422 1087.983,543.154 1079.331,541.961 
		1070.674,540.793 1062.015,539.649 1053.351,538.53 1044.686,537.435 1036.017,536.366 1027.344,535.319 1018.671,534.298 
		1009.993,533.303 1001.358,532.336 992.675,531.389 983.994,530.47 975.308,529.576 966.622,528.708 958.729,527.946 
		950.826,527.203 942.929,526.484 935.025,525.789 927.124,525.118 918.833,524.439 910.93,523.817 903.024,523.22 895.113,522.645 
		887.203,522.096 879.281,521.567 870.572,521.013 861.854,520.484 853.141,519.982 844.42,519.505 835.701,519.055 
		826.962,518.627 817.454,518.19 808.028,517.782 798.005,517.371 787.566,516.967 776.26,516.557 765.199,516.179 753.788,515.815 
		742.918,515.49 733.72,515.237 724.814,515.459 714.313,515.748 703.555,516.068 692.977,516.406 682.717,516.756 672.528,517.127 
		662.648,517.512 653.245,517.903 644.918,518.273 636.108,518.689 627.307,519.131 618.503,519.6 609.697,520.095 600.892,520.614 
		592.091,521.159 583.289,521.728 574.486,522.322 565.683,522.939 556.881,523.579 547.981,524.25 539.185,524.939 
		530.396,525.652 522.285,526.333 514.184,527.038 506.085,527.767 497.99,528.521 490.577,529.235 483.172,529.973 
		475.765,530.735 468.362,531.52 460.748,532.354 453.354,533.19 445.961,534.049 438.564,534.932 430.498,535.921 422.431,536.936 
		414.363,537.974 406.295,539.037 397.558,540.213 388.816,541.414 380.082,542.639 370.625,543.99 361.217,545.359 
		351.816,546.754 343.091,548.073 334.37,549.415 325.649,550.779 316.936,552.166 308.227,553.576 299.521,555.009 
		290.823,556.467 211.101,570.008 164.386,577.932 	" stroke="none" style="stroke-width: 5; stroke-dasharray: 26;" mygroup="clFEFEFE"></polygon>
</g>
<desc>Created with Snap</desc><defs></defs><defs><clipPath id="clip_pathleft_sleeve"><polygon id="polygonSjq96sw9c3j" fill="none" points="215.398,486.739 0,267.17 58.049,258.223 71.642,256.103 83.999,254.154 
		92.336,252.82 96.583,252.12 100.062,251.523 103.018,250.994 105.797,250.474 108.46,249.952 111.393,249.352 114.24,248.744 
		117.191,248.089 120.068,247.427 122.99,246.733 126.16,245.954 129.299,245.16 132.505,244.325 135.664,243.478 138.793,242.614 
		141.922,241.724 144.773,240.891 147.621,240.034 150.464,239.153 153.322,238.243 156.134,237.321 158.726,236.448 
		161.242,235.577 163.823,234.661 166.322,233.748 168.87,232.793 171.421,231.81 173.951,230.809 176.165,229.91 178.402,228.977 
		180.622,228.027 182.825,227.058 184.871,226.135 187.039,225.129 189.207,224.097 191.369,223.04 193.503,221.969 
		195.637,220.872 197.725,219.771 199.835,218.633 201.977,217.451 204.062,216.275 206.179,215.057 208.507,213.689 
		210.691,212.38 212.981,210.981 215.295,209.542 217.809,207.949 220.276,206.356 222.792,204.703 225.25,203.062 227.946,201.233 
		230.606,199.4 233.288,197.524 236.154,195.491 239.032,193.421 242.108,191.18 245.367,188.775 248.876,186.155 252.554,183.377 
		256.473,180.388 261.049,176.865 266.174,172.89 272.537,167.92 283.673,159.188 291.352,153.18 297.013,148.78 301.863,145.039 
		306.406,141.564 310.473,138.484 314.352,135.577 318.035,132.845 321.535,130.279 325.05,127.733 328.372,125.358 
		331.704,123.003 335.049,120.669 338.624,118.208 342.214,115.766 345.82,113.345 349.44,110.948 353.072,108.573 356.715,106.221 
		360.379,103.886 364.038,101.585 367.726,99.295 371.429,97.026 375.146,94.78 378.869,92.56 382.614,90.356 386.141,88.311 
		389.676,86.289 393.228,84.283 396.773,82.31 400.353,80.343 403.937,78.403 407.539,76.481 411.145,74.585 414.771,72.706 
		418.404,70.852 422.056,69.015 425.709,67.207 429.318,65.447 432.997,63.682 436.694,61.936 440.4,60.213 444.114,58.517 
		447.84,56.843 451.585,55.188 455.337,53.56 459.087,51.962 462.745,50.429 466.526,48.875 470.317,47.345 473.869,45.938 
		477.431,44.554 480.995,43.193 484.578,41.85 488.17,40.53 491.76,39.237 495.509,37.913 499.119,36.665 502.748,35.436 
		506.379,34.233 510.025,33.052 513.676,31.896 517.335,30.764 520.999,29.657 524.528,28.616 528.213,27.556 531.896,26.524 
		535.595,25.513 539.29,24.53 542.989,23.571 546.701,22.634 550.408,21.723 554.132,20.833 558.08,19.916 562.066,19.018 
		566.052,18.146 570.048,17.297 574.045,16.475 578.036,15.679 582.301,14.853 586.562,14.055 590.783,13.29 595.045,12.542 
		599.319,11.816 603.589,11.117 607.862,10.439 612.413,9.744 616.953,9.077 621.505,8.434 626.052,7.817 630.601,7.225 
		635.155,6.656 639.81,6.101 644.367,5.581 649.188,5.056 654.009,4.557 658.83,4.083 663.658,3.633 668.478,3.209 673.305,2.808 
		678.394,2.41 683.482,2.037 688.662,1.682 693.503,1.374 698.081,1.106 702.674,0.862 707.001,0.658 711.342,0.477 715.422,0.331 
		719.503,0.211 723.592,0.117 727.465,0.053 733.846,0 740.396,0.055 744.222,0.12 748.304,0.215 752.389,0.336 756.457,0.482 
		760.79,0.663 765.125,0.869 769.696,1.114 774.28,1.381 779.111,1.689 784.292,2.044 789.383,2.418 794.474,2.816 799.295,3.218 
		804.124,3.644 808.948,4.094 813.767,4.568 818.599,5.068 823.417,5.594 827.97,6.114 832.631,6.671 837.183,7.24 841.731,7.833 
		846.288,8.451 850.832,9.095 855.385,9.764 859.922,10.458 864.196,11.136 868.473,11.838 872.738,12.563 877.01,13.313 
		881.231,14.079 885.5,14.879 889.755,15.703 893.755,16.502 897.756,17.326 901.746,18.174 905.738,19.049 909.732,19.95 
		913.673,20.867 917.39,21.755 921.107,22.669 924.813,23.606 928.513,24.566 932.22,25.554 935.906,26.563 939.601,27.599 
		943.278,28.658 946.808,29.699 950.475,30.808 954.132,31.941 957.785,33.099 961.424,34.279 965.06,35.484 968.677,36.71 
		972.301,37.963 976.04,39.285 979.629,40.58 983.224,41.901 986.795,43.241 990.367,44.605 993.926,45.99 997.485,47.401 
		1001.271,48.93 1005.061,50.488 1008.699,52.014 1012.464,53.619 1016.221,55.25 1019.954,56.901 1023.68,58.576 1027.392,60.273 
		1031.104,61.998 1034.795,63.743 1038.471,65.509 1042.076,67.267 1045.739,69.081 1049.38,70.913 1053.019,72.771 
		1056.636,74.646 1060.25,76.547 1063.844,78.466 1067.432,80.409 1070.999,82.369 1074.563,84.354 1078.101,86.353 1081.642,88.38 
		1085.167,90.426 1088.911,92.629 1092.634,94.85 1096.353,97.098 1100.049,99.364 1103.741,101.657 1107.396,103.958 
		1111.061,106.293 1114.705,108.646 1118.34,111.024 1121.958,113.422 1125.561,115.841 1129.154,118.285 1132.725,120.747 
		1136.072,123.083 1139.394,125.431 1142.728,127.816 1146.241,130.361 1149.728,132.919 1153.404,135.646 1157.285,138.555 
		1161.264,141.569 1165.804,145.04 1170.589,148.731 1176.259,153.139 1183.972,159.173 1195.161,167.947 1201.547,172.934 
		1206.685,176.92 1211.267,180.447 1215.1,183.369 1218.828,186.185 1222.287,188.769 1225.548,191.174 1228.629,193.419 
		1231.511,195.491 1234.377,197.525 1237.042,199.39 1239.746,201.252 1242.392,203.047 1244.895,204.719 1247.358,206.336 
		1249.871,207.958 1252.38,209.548 1254.667,210.973 1256.953,212.368 1259.175,213.7 1261.499,215.066 1263.582,216.264 
		1265.69,217.453 1267.83,218.634 1269.933,219.768 1272.026,220.872 1274.162,221.97 1276.294,223.04 1278.457,224.097 
		1280.624,225.129 1282.793,226.135 1284.837,227.058 1287.047,228.029 1289.262,228.977 1291.484,229.904 1293.727,230.814 
		1296.246,231.812 1298.806,232.798 1301.311,233.736 1303.857,234.667 1306.404,235.57 1308.962,236.457 1311.531,237.322 
		1314.323,238.237 1317.217,239.158 1320.033,240.03 1322.893,240.891 1325.762,241.73 1328.873,242.615 1331.992,243.476 
		1335.151,244.322 1338.343,245.154 1341.519,245.958 1344.698,246.739 1347.568,247.421 1350.498,248.095 1353.395,248.737 
		1356.303,249.359 1359.184,249.948 1361.867,250.474 1364.659,250.996 1367.579,251.519 1371.067,252.118 1375.384,252.829 
		1383.717,254.162 1396.063,256.109 1409.656,258.229 1467.666,267.167 1252.351,486.652 1303.21,576.842 1244.432,567.347 
		1230.216,565.058 1216.108,562.793 1202.003,560.538 1187.982,558.305 1173.387,555.992 1159.193,553.762 1146.584,551.803 
		1135.559,550.113 1125.323,548.565 1115.093,547.044 1105.65,545.664 1097,544.422 1087.983,543.154 1079.331,541.961 
		1070.674,540.793 1062.015,539.649 1053.351,538.53 1044.686,537.435 1036.017,536.366 1027.344,535.319 1018.671,534.298 
		1009.993,533.303 1001.358,532.336 992.675,531.389 983.994,530.47 975.308,529.576 966.622,528.708 958.729,527.946 
		950.826,527.203 942.929,526.484 935.025,525.789 927.124,525.118 918.833,524.439 910.93,523.817 903.024,523.22 895.113,522.645 
		887.203,522.096 879.281,521.567 870.572,521.013 861.854,520.484 853.141,519.982 844.42,519.505 835.701,519.055 
		826.962,518.627 817.454,518.19 808.028,517.782 798.005,517.371 787.566,516.967 776.26,516.557 765.199,516.179 753.788,515.815 
		742.918,515.49 733.72,515.237 724.814,515.459 714.313,515.748 703.555,516.068 692.977,516.406 682.717,516.756 672.528,517.127 
		662.648,517.512 653.245,517.903 644.918,518.273 636.108,518.689 627.307,519.131 618.503,519.6 609.697,520.095 600.892,520.614 
		592.091,521.159 583.289,521.728 574.486,522.322 565.683,522.939 556.881,523.579 547.981,524.25 539.185,524.939 
		530.396,525.652 522.285,526.333 514.184,527.038 506.085,527.767 497.99,528.521 490.577,529.235 483.172,529.973 
		475.765,530.735 468.362,531.52 460.748,532.354 453.354,533.19 445.961,534.049 438.564,534.932 430.498,535.921 422.431,536.936 
		414.363,537.974 406.295,539.037 397.558,540.213 388.816,541.414 380.082,542.639 370.625,543.99 361.217,545.359 
		351.816,546.754 343.091,548.073 334.37,549.415 325.649,550.779 316.936,552.166 308.227,553.576 299.521,555.009 
		290.823,556.467 211.101,570.008 164.386,577.932 	" style=""></polygon></clipPath></defs></svg>