<?xml version="1.0" encoding="utf-8"?><!DOCTYPE svg PUBLIC "-//W3C//DTD SVG 1.1//EN" "http://www.w3.org/Graphics/SVG/1.1/DTD/svg11.dtd"><svg version="1.1" id="图层_1" xmlns="http://www.w3.org/2000/svg" xmlns:xlink="http://www.w3.org/1999/xlink" x="0" y="0" width="1588" height="2049" viewBox="0 0 1588.004 2049.202" enable-background="new 0 0 1588.004 2049.202" xml:space="preserve">
<g>
	<polygon id="caipian" fill="#fefefe" points="2.607,2049.202 1.391,2017.522 1.057,2008.142 0.787,1999.922 0.56,1992.265 
		0.326,1983.591 0.099,1974.281 0,1969.828 0.205,1960.777 0.421,1952.34 0.672,1943.531 0.944,1934.781 1.222,1926.631 
		1.511,1918.782 1.805,1911.408 2.112,1904.292 2.431,1897.5 2.773,1890.703 3.14,1883.912 3.531,1877.117 3.946,1870.329 
		4.387,1863.535 4.854,1856.743 5.346,1849.951 5.864,1843.162 6.408,1836.375 6.978,1829.591 7.574,1822.804 8.199,1816.017 
		8.798,1809.754 9.474,1802.974 10.177,1796.196 10.908,1789.421 11.667,1782.646 12.456,1775.873 13.189,1769.776 13.945,1763.69 
		14.726,1757.599 15.528,1751.517 16.357,1745.429 17.208,1739.355 18.115,1733.066 19.014,1726.997 20.041,1720.257 
		21.092,1713.532 22.167,1706.811 23.377,1699.43 24.612,1692.06 25.986,1684.03 27.383,1676.013 28.923,1667.339 30.606,1658.011 
		32.433,1648.036 34.559,1636.587 36.925,1623.99 39.683,1609.425 45.213,1580.352 47.962,1565.84 50.311,1553.327 52.233,1542.958 
		54.043,1533.086 55.704,1523.885 57.221,1515.344 58.597,1507.462 59.949,1499.581 61.162,1492.363 62.351,1485.141 
		63.407,1478.582 64.466,1471.846 65.476,1465.278 66.456,1458.72 67.314,1452.823 68.149,1446.919 68.951,1441.088 
		69.744,1435.118 70.498,1429.25 71.23,1423.339 71.858,1418.074 72.454,1412.886 73.037,1407.597 73.582,1402.434 74.115,1397.136 
		74.611,1391.948 75.087,1386.684 75.533,1381.447 75.953,1376.215 76.343,1370.955 76.659,1366.364 76.95,1361.805 77.217,1357.26 
		77.465,1352.636 77.685,1348.052 77.878,1343.505 78.042,1339.07 78.187,1334.508 78.305,1329.945 78.401,1325.313 
		78.471,1320.767 78.518,1316.145 78.543,1311.552 78.543,1306.984 78.516,1301.713 78.459,1296.455 78.385,1291.739 
		78.275,1286.43 78.137,1281.155 77.975,1275.896 77.787,1270.675 77.572,1265.391 77.332,1260.125 77.065,1254.799 
		76.777,1249.524 76.468,1244.283 76.096,1238.405 75.689,1232.431 75.258,1226.491 74.802,1220.551 74.322,1214.614 
		73.817,1208.678 73.228,1202.075 72.611,1195.476 71.968,1188.876 71.299,1182.274 70.605,1175.668 69.816,1168.4 69,1161.128 
		68.16,1153.861 67.215,1145.923 66.274,1138.233 65.279,1130.293 64.177,1121.689 62.962,1112.422 61.723,1103.153 
		60.279,1092.551 58.718,1081.285 56.945,1068.684 54.867,1054.081 50.707,1025.104 48.609,1010.453 46.621,996.45 44.937,984.427 
		43.459,973.73 42.096,963.683 40.78,953.813 39.554,944.421 38.265,934.366 37.002,924.304 35.764,914.242 34.55,904.178 
		33.359,894.11 32.115,883.375 30.896,872.635 29.713,861.991 28.41,850.048 27.095,837.753 25.729,824.757 24.363,811.523 
		22.965,797.759 21.62,784.273 18.819,755.613 37.449,747.535 40.593,746.145 43.798,744.704 47.007,743.236 50.048,741.82 
		52.943,740.448 55.494,739.213 58.011,737.972 60.32,736.808 62.616,735.627 64.927,734.414 67.229,733.178 69.475,731.947 
		71.695,730.704 73.933,729.422 76.179,728.109 78.379,726.794 80.565,725.458 82.749,724.095 84.878,722.737 86.828,721.468 
		88.792,720.162 90.723,718.851 92.63,717.528 94.516,716.191 96.324,714.88 98.018,713.625 99.682,712.368 101.323,711.097 
		102.931,709.824 104.554,708.509 106.14,707.194 107.533,706.01 108.906,704.817 110.273,703.598 111.607,702.381 112.894,701.175 
		114.186,699.932 115.306,698.828 116.426,697.694 117.499,696.582 118.583,695.427 119.648,694.267 120.692,693.1 121.826,691.799 
		122.965,690.458 124.122,689.058 125.244,687.664 126.353,686.249 127.444,684.819 128.546,683.334 129.585,681.898 
		130.646,680.393 131.668,678.906 132.651,677.437 133.661,675.892 134.633,674.362 135.609,672.789 136.556,671.224 
		137.494,669.633 138.479,667.92 139.467,666.151 140.458,664.332 141.437,662.48 142.331,660.744 143.277,658.856 144.184,656.997 
		145.068,655.132 145.951,653.219 146.802,651.323 147.73,649.197 148.551,647.26 149.431,645.123 150.288,642.982 151.134,640.797 
		151.956,638.615 152.771,636.378 153.555,634.16 154.32,631.928 155.048,629.739 155.78,627.471 156.538,625.041 157.266,622.631 
		157.976,620.199 158.682,617.693 159.363,615.19 160.018,612.696 160.662,610.155 161.294,607.569 161.89,605.037 162.514,602.284 
		163.118,599.505 163.693,596.751 164.25,593.963 164.784,591.174 165.297,588.383 165.785,585.597 166.294,582.553 
		166.773,579.542 167.235,576.48 167.671,573.434 168.083,570.378 168.481,567.267 168.854,564.167 169.197,561.118 
		169.543,557.849 169.874,554.48 170.168,551.239 170.451,547.868 170.702,544.59 170.941,541.145 171.152,537.796 171.351,534.258 
		171.527,530.7 171.677,527.136 171.804,523.574 171.91,519.992 171.99,516.422 172.049,512.874 172.086,509.223 172.1,505.612 
		172.092,501.834 172.058,498.01 172,494.227 171.918,490.379 171.813,486.606 171.683,482.78 171.532,479.004 171.355,475.189 
		171.157,471.386 170.934,467.553 170.69,463.769 170.421,459.926 170.118,455.928 169.784,451.86 169.433,447.866 169.04,443.68 
		168.642,439.693 168.213,435.625 167.765,431.597 167.268,427.335 166.748,423.087 166.202,418.819 165.639,414.601 
		165.045,410.33 164.397,405.835 163.721,401.314 163.027,396.845 162.309,392.368 161.531,387.659 160.725,382.925 
		159.868,378.042 158.978,373.104 158.025,367.954 157.035,362.742 155.998,357.401 154.921,351.988 153.783,346.378 
		152.553,340.44 151.274,334.389 149.924,328.104 148.501,321.605 147.003,314.878 145.43,307.925 143.73,300.521 141.956,292.891 
		139.998,284.584 137.855,275.599 135.418,265.483 132.464,253.333 129.093,239.56 125.705,225.789 122.289,211.974 
		118.865,198.185 115.392,184.249 111.915,170.349 108.427,156.458 99.427,120.767 564.155,0.001 574.55,16.392 576.145,18.862 
		577.765,21.33 579.348,23.704 580.805,25.849 582.232,27.913 583.505,29.718 584.74,31.434 585.876,32.978 587.034,34.516 
		588.122,35.925 589.189,37.275 590.235,38.564 591.266,39.802 592.334,41.054 593.401,42.269 594.48,43.466 595.478,44.543 
		596.521,45.639 597.531,46.669 598.494,47.625 599.454,48.551 600.35,49.389 602.176,51.019 603.002,51.722 604.609,53.018 
		606.206,54.211 607.654,55.213 609.345,56.293 611.066,57.307 612.875,58.292 614.893,59.303 617.117,60.329 618.149,60.776 
		619.355,61.276 620.602,61.77 621.836,62.238 623.106,62.699 624.494,63.18 625.907,63.648 627.309,64.091 628.838,64.551 
		630.395,64.998 631.997,65.436 633.582,65.848 635.321,66.278 637.063,66.688 638.912,67.101 640.825,67.505 642.74,67.889 
		644.747,68.269 646.847,68.644 649.045,69.014 651.366,69.381 653.831,69.749 656.452,70.116 659.188,70.476 662.262,70.858 
		665.443,71.23 668.724,71.59 672.135,71.943 675.873,72.306 679.794,72.663 684.194,73.041 689.108,73.438 694.734,73.868 
		700.53,74.288 706.593,74.704 712.783,75.106 719.365,75.509 726.205,75.905 733.439,76.3 741.318,76.707 749.845,77.124 
		759.521,77.572 770.796,78.07 783.408,78.603 794.002,79.032 804.636,78.601 817.248,78.068 828.53,77.57 838.216,77.121 
		846.748,76.704 854.633,76.297 861.869,75.901 868.717,75.505 875.3,75.101 881.496,74.699 887.557,74.282 893.362,73.861 
		898.988,73.43 903.808,73.041 908.209,72.663 912.139,72.305 915.848,71.945 919.292,71.588 922.577,71.228 925.708,70.862 
		928.816,70.476 931.566,70.113 934.185,69.747 936.644,69.381 938.941,69.017 941.155,68.645 943.24,68.272 945.289,67.884 
		947.167,67.508 949.078,67.104 950.963,66.683 952.682,66.278 954.415,65.85 956.001,65.437 957.606,64.999 959.169,64.55 
		960.689,64.092 962.103,63.646 963.501,63.183 964.902,62.697 966.167,62.238 967.396,61.772 968.653,61.273 969.843,60.781 
		970.891,60.327 973.116,59.301 975.125,58.293 976.936,57.308 978.661,56.291 980.349,55.214 981.796,54.213 983.393,53.018 
		985.004,51.72 985.828,51.019 987.648,49.393 988.549,48.551 989.508,47.626 990.474,46.669 991.483,45.637 992.523,44.546 
		993.532,43.456 994.595,42.277 995.671,41.051 996.731,39.811 997.788,38.54 998.806,37.287 999.882,35.925 1000.97,34.516 
		1002.123,32.983 1003.262,31.436 1004.507,29.707 1005.767,27.92 1007.195,25.854 1008.664,23.69 1010.232,21.339 1011.846,18.881 
		1013.476,16.359 1023.843,0 1488.574,120.766 1479.571,156.479 1476.083,170.369 1472.607,184.266 1469.134,198.203 
		1465.71,211.993 1462.292,225.813 1458.904,239.584 1455.529,253.369 1452.574,265.527 1450.135,275.651 1447.991,284.641 
		1446.032,292.954 1444.258,300.585 1442.557,307.996 1440.983,314.951 1439.486,321.681 1438.062,328.188 1436.711,334.468 
		1435.432,340.526 1434.201,346.469 1433.064,352.073 1431.996,357.454 1430.951,362.826 1429.973,367.989 1429.032,373.068 
		1428.13,378.072 1427.28,382.92 1426.471,387.665 1425.693,392.367 1424.979,396.825 1424.276,401.359 1423.609,405.808 
		1422.954,410.349 1422.372,414.543 1421.796,418.861 1421.26,423.051 1420.733,427.348 1420.237,431.596 1419.785,435.666 
		1419.363,439.668 1418.965,443.674 1418.57,447.867 1418.22,451.849 1417.885,455.935 1417.581,459.946 1417.315,463.728 
		1417.067,467.606 1416.848,471.356 1416.647,475.195 1416.473,478.973 1416.317,482.821 1416.192,486.56 1416.084,490.432 
		1416.002,494.219 1415.945,497.997 1415.912,501.824 1415.903,505.618 1415.917,509.208 1415.955,512.86 1416.014,516.45 
		1416.093,519.975 1416.198,523.595 1416.325,527.138 1416.477,530.699 1416.652,534.269 1416.85,537.798 1417.062,541.149 
		1417.3,544.568 1417.555,547.89 1417.833,551.218 1418.129,554.48 1418.459,557.837 1418.804,561.099 1419.156,564.224 
		1419.521,567.259 1419.917,570.363 1420.331,573.419 1420.769,576.482 1421.229,579.533 1421.71,582.562 1422.22,585.606 
		1422.705,588.379 1423.218,591.175 1423.753,593.964 1424.309,596.742 1424.887,599.511 1425.489,602.285 1426.113,605.037 
		1426.709,607.569 1427.347,610.177 1427.979,612.675 1428.641,615.191 1429.32,617.69 1430.025,620.19 1430.74,622.639 
		1431.464,625.036 1432.227,627.483 1432.945,629.711 1433.688,631.947 1434.446,634.157 1435.229,636.371 1436.047,638.61 
		1436.872,640.807 1437.716,642.981 1438.573,645.127 1439.456,647.271 1440.268,649.183 1441.204,651.331 1442.05,653.216 
		1442.931,655.125 1443.814,656.985 1444.733,658.871 1445.669,660.739 1446.566,662.481 1447.547,664.335 1448.532,666.146 
		1449.531,667.932 1450.503,669.623 1451.454,671.236 1452.395,672.792 1453.36,674.347 1454.346,675.896 1455.343,677.424 
		1456.336,678.909 1457.359,680.397 1458.417,681.898 1459.457,683.334 1460.55,684.807 1461.658,686.259 1462.76,687.665 
		1463.884,689.062 1465.025,690.443 1466.187,691.81 1467.308,693.095 1468.36,694.272 1469.426,695.435 1470.503,696.581 
		1471.58,697.697 1472.686,698.816 1473.818,699.933 1475.11,701.177 1476.398,702.383 1477.73,703.599 1479.091,704.811 
		1480.47,706.01 1481.857,707.189 1483.447,708.507 1485.078,709.829 1486.676,711.093 1488.323,712.368 1489.999,713.636 
		1491.68,714.881 1493.479,716.185 1495.37,717.526 1497.28,718.851 1499.215,720.165 1501.169,721.463 1503.115,722.73 
		1505.267,724.103 1507.438,725.458 1509.624,726.794 1511.824,728.109 1514.076,729.426 1516.302,730.701 1518.515,731.94 
		1520.791,733.188 1523.079,734.417 1525.39,735.629 1527.676,736.805 1529.988,737.971 1532.502,739.209 1535.053,740.442 
		1537.771,741.73 1540.794,743.136 1543.831,744.524 1547.076,745.981 1550.308,747.408 1569.189,755.572 1566.39,784.202 
		1565.045,797.69 1563.646,811.457 1562.28,824.687 1560.915,837.68 1559.601,849.972 1558.3,861.909 1557.112,872.584 
		1555.894,883.322 1554.649,894.06 1553.459,904.126 1552.245,914.188 1551.008,924.25 1549.743,934.312 1548.455,944.37 
		1547.229,953.755 1545.915,963.627 1544.55,973.679 1543.072,984.381 1541.387,996.411 1539.397,1010.426 1537.297,1025.094 
		1533.133,1054.102 1531.053,1068.721 1529.279,1081.331 1527.718,1092.605 1526.272,1103.211 1525.033,1112.483 1523.818,1121.755 
		1522.715,1130.361 1521.722,1138.297 1520.78,1145.997 1519.834,1153.938 1518.994,1161.208 1518.177,1168.481 1517.389,1175.75 
		1516.696,1182.355 1516.026,1188.964 1515.384,1195.566 1514.768,1202.17 1514.179,1208.774 1513.674,1214.709 1513.193,1220.648 
		1512.742,1226.506 1512.311,1232.481 1511.91,1238.368 1511.53,1244.355 1511.222,1249.598 1510.934,1254.891 1510.671,1260.133 
		1510.433,1265.381 1510.218,1270.636 1510.029,1275.888 1509.864,1281.207 1509.729,1286.448 1509.618,1291.703 1509.544,1296.46 
		1509.488,1301.704 1509.46,1306.988 1509.461,1311.558 1509.485,1316.143 1509.532,1320.763 1509.603,1325.317 1509.697,1329.926 
		1509.817,1334.525 1509.961,1339.071 1510.125,1343.487 1510.319,1348.086 1510.538,1352.611 1510.784,1357.232 1511.055,1361.841 
		1511.343,1366.354 1511.661,1370.965 1512.053,1376.236 1512.469,1381.436 1512.917,1386.712 1513.388,1391.902 1513.894,1397.187 
		1514.418,1402.397 1514.969,1407.617 1515.553,1412.916 1516.148,1418.109 1516.781,1423.41 1517.505,1429.252 1518.271,1435.212 
		1519.057,1441.113 1519.866,1447.012 1520.702,1452.908 1521.562,1458.812 1522.542,1465.372 1523.55,1471.928 1524.609,1478.664 
		1525.666,1485.218 1526.854,1492.437 1528.067,1499.655 1529.418,1507.535 1530.793,1515.41 1532.311,1523.948 1533.972,1533.148 
		1535.778,1543.007 1537.702,1553.371 1540.049,1565.879 1542.792,1580.375 1548.317,1609.406 1551.073,1623.958 1553.437,1636.545 
		1555.56,1647.982 1557.387,1657.954 1559.069,1667.278 1560.608,1675.942 1562.006,1683.961 1563.379,1691.983 1564.613,1699.357 
		1565.821,1706.728 1566.898,1713.447 1567.95,1720.175 1568.976,1726.909 1569.876,1732.979 1570.783,1739.259 1571.635,1745.346 
		1572.463,1751.424 1573.268,1757.515 1574.047,1763.604 1574.804,1769.693 1575.538,1775.784 1576.325,1782.554 1577.085,1789.329 
		1577.816,1796.104 1578.521,1802.885 1579.197,1809.667 1579.798,1815.935 1580.421,1822.716 1581.019,1829.498 1581.589,1836.292 
		1582.133,1843.078 1582.651,1849.867 1583.144,1856.662 1583.61,1863.45 1584.052,1870.244 1584.468,1877.037 1584.859,1883.831 
		1585.227,1890.626 1585.568,1897.422 1585.887,1904.216 1586.195,1911.329 1586.49,1918.712 1586.78,1926.568 1587.057,1934.719 
		1587.33,1943.469 1587.58,1952.283 1587.798,1960.706 1588.004,1969.831 1587.904,1974.24 1587.679,1983.535 1587.445,1992.201 
		1587.218,1999.853 1586.948,2008.079 1586.615,2017.458 1585.39,2049.202 	" stroke="none" style="stroke-width: 5; stroke-dasharray: 26;" mygroup="clFEFEFE"></polygon>
</g>
<desc>Created with Snap</desc><defs></defs><defs><clipPath id="clip_pathback"><polygon id="polygonSjq96sw9c6s" fill="none" points="2.607,2049.202 1.391,2017.522 1.057,2008.142 0.787,1999.922 0.56,1992.265 
		0.326,1983.591 0.099,1974.281 0,1969.828 0.205,1960.777 0.421,1952.34 0.672,1943.531 0.944,1934.781 1.222,1926.631 
		1.511,1918.782 1.805,1911.408 2.112,1904.292 2.431,1897.5 2.773,1890.703 3.14,1883.912 3.531,1877.117 3.946,1870.329 
		4.387,1863.535 4.854,1856.743 5.346,1849.951 5.864,1843.162 6.408,1836.375 6.978,1829.591 7.574,1822.804 8.199,1816.017 
		8.798,1809.754 9.474,1802.974 10.177,1796.196 10.908,1789.421 11.667,1782.646 12.456,1775.873 13.189,1769.776 13.945,1763.69 
		14.726,1757.599 15.528,1751.517 16.357,1745.429 17.208,1739.355 18.115,1733.066 19.014,1726.997 20.041,1720.257 
		21.092,1713.532 22.167,1706.811 23.377,1699.43 24.612,1692.06 25.986,1684.03 27.383,1676.013 28.923,1667.339 30.606,1658.011 
		32.433,1648.036 34.559,1636.587 36.925,1623.99 39.683,1609.425 45.213,1580.352 47.962,1565.84 50.311,1553.327 52.233,1542.958 
		54.043,1533.086 55.704,1523.885 57.221,1515.344 58.597,1507.462 59.949,1499.581 61.162,1492.363 62.351,1485.141 
		63.407,1478.582 64.466,1471.846 65.476,1465.278 66.456,1458.72 67.314,1452.823 68.149,1446.919 68.951,1441.088 
		69.744,1435.118 70.498,1429.25 71.23,1423.339 71.858,1418.074 72.454,1412.886 73.037,1407.597 73.582,1402.434 74.115,1397.136 
		74.611,1391.948 75.087,1386.684 75.533,1381.447 75.953,1376.215 76.343,1370.955 76.659,1366.364 76.95,1361.805 77.217,1357.26 
		77.465,1352.636 77.685,1348.052 77.878,1343.505 78.042,1339.07 78.187,1334.508 78.305,1329.945 78.401,1325.313 
		78.471,1320.767 78.518,1316.145 78.543,1311.552 78.543,1306.984 78.516,1301.713 78.459,1296.455 78.385,1291.739 
		78.275,1286.43 78.137,1281.155 77.975,1275.896 77.787,1270.675 77.572,1265.391 77.332,1260.125 77.065,1254.799 
		76.777,1249.524 76.468,1244.283 76.096,1238.405 75.689,1232.431 75.258,1226.491 74.802,1220.551 74.322,1214.614 
		73.817,1208.678 73.228,1202.075 72.611,1195.476 71.968,1188.876 71.299,1182.274 70.605,1175.668 69.816,1168.4 69,1161.128 
		68.16,1153.861 67.215,1145.923 66.274,1138.233 65.279,1130.293 64.177,1121.689 62.962,1112.422 61.723,1103.153 
		60.279,1092.551 58.718,1081.285 56.945,1068.684 54.867,1054.081 50.707,1025.104 48.609,1010.453 46.621,996.45 44.937,984.427 
		43.459,973.73 42.096,963.683 40.78,953.813 39.554,944.421 38.265,934.366 37.002,924.304 35.764,914.242 34.55,904.178 
		33.359,894.11 32.115,883.375 30.896,872.635 29.713,861.991 28.41,850.048 27.095,837.753 25.729,824.757 24.363,811.523 
		22.965,797.759 21.62,784.273 18.819,755.613 37.449,747.535 40.593,746.145 43.798,744.704 47.007,743.236 50.048,741.82 
		52.943,740.448 55.494,739.213 58.011,737.972 60.32,736.808 62.616,735.627 64.927,734.414 67.229,733.178 69.475,731.947 
		71.695,730.704 73.933,729.422 76.179,728.109 78.379,726.794 80.565,725.458 82.749,724.095 84.878,722.737 86.828,721.468 
		88.792,720.162 90.723,718.851 92.63,717.528 94.516,716.191 96.324,714.88 98.018,713.625 99.682,712.368 101.323,711.097 
		102.931,709.824 104.554,708.509 106.14,707.194 107.533,706.01 108.906,704.817 110.273,703.598 111.607,702.381 112.894,701.175 
		114.186,699.932 115.306,698.828 116.426,697.694 117.499,696.582 118.583,695.427 119.648,694.267 120.692,693.1 121.826,691.799 
		122.965,690.458 124.122,689.058 125.244,687.664 126.353,686.249 127.444,684.819 128.546,683.334 129.585,681.898 
		130.646,680.393 131.668,678.906 132.651,677.437 133.661,675.892 134.633,674.362 135.609,672.789 136.556,671.224 
		137.494,669.633 138.479,667.92 139.467,666.151 140.458,664.332 141.437,662.48 142.331,660.744 143.277,658.856 144.184,656.997 
		145.068,655.132 145.951,653.219 146.802,651.323 147.73,649.197 148.551,647.26 149.431,645.123 150.288,642.982 151.134,640.797 
		151.956,638.615 152.771,636.378 153.555,634.16 154.32,631.928 155.048,629.739 155.78,627.471 156.538,625.041 157.266,622.631 
		157.976,620.199 158.682,617.693 159.363,615.19 160.018,612.696 160.662,610.155 161.294,607.569 161.89,605.037 162.514,602.284 
		163.118,599.505 163.693,596.751 164.25,593.963 164.784,591.174 165.297,588.383 165.785,585.597 166.294,582.553 
		166.773,579.542 167.235,576.48 167.671,573.434 168.083,570.378 168.481,567.267 168.854,564.167 169.197,561.118 
		169.543,557.849 169.874,554.48 170.168,551.239 170.451,547.868 170.702,544.59 170.941,541.145 171.152,537.796 171.351,534.258 
		171.527,530.7 171.677,527.136 171.804,523.574 171.91,519.992 171.99,516.422 172.049,512.874 172.086,509.223 172.1,505.612 
		172.092,501.834 172.058,498.01 172,494.227 171.918,490.379 171.813,486.606 171.683,482.78 171.532,479.004 171.355,475.189 
		171.157,471.386 170.934,467.553 170.69,463.769 170.421,459.926 170.118,455.928 169.784,451.86 169.433,447.866 169.04,443.68 
		168.642,439.693 168.213,435.625 167.765,431.597 167.268,427.335 166.748,423.087 166.202,418.819 165.639,414.601 
		165.045,410.33 164.397,405.835 163.721,401.314 163.027,396.845 162.309,392.368 161.531,387.659 160.725,382.925 
		159.868,378.042 158.978,373.104 158.025,367.954 157.035,362.742 155.998,357.401 154.921,351.988 153.783,346.378 
		152.553,340.44 151.274,334.389 149.924,328.104 148.501,321.605 147.003,314.878 145.43,307.925 143.73,300.521 141.956,292.891 
		139.998,284.584 137.855,275.599 135.418,265.483 132.464,253.333 129.093,239.56 125.705,225.789 122.289,211.974 
		118.865,198.185 115.392,184.249 111.915,170.349 108.427,156.458 99.427,120.767 564.155,0.001 574.55,16.392 576.145,18.862 
		577.765,21.33 579.348,23.704 580.805,25.849 582.232,27.913 583.505,29.718 584.74,31.434 585.876,32.978 587.034,34.516 
		588.122,35.925 589.189,37.275 590.235,38.564 591.266,39.802 592.334,41.054 593.401,42.269 594.48,43.466 595.478,44.543 
		596.521,45.639 597.531,46.669 598.494,47.625 599.454,48.551 600.35,49.389 602.176,51.019 603.002,51.722 604.609,53.018 
		606.206,54.211 607.654,55.213 609.345,56.293 611.066,57.307 612.875,58.292 614.893,59.303 617.117,60.329 618.149,60.776 
		619.355,61.276 620.602,61.77 621.836,62.238 623.106,62.699 624.494,63.18 625.907,63.648 627.309,64.091 628.838,64.551 
		630.395,64.998 631.997,65.436 633.582,65.848 635.321,66.278 637.063,66.688 638.912,67.101 640.825,67.505 642.74,67.889 
		644.747,68.269 646.847,68.644 649.045,69.014 651.366,69.381 653.831,69.749 656.452,70.116 659.188,70.476 662.262,70.858 
		665.443,71.23 668.724,71.59 672.135,71.943 675.873,72.306 679.794,72.663 684.194,73.041 689.108,73.438 694.734,73.868 
		700.53,74.288 706.593,74.704 712.783,75.106 719.365,75.509 726.205,75.905 733.439,76.3 741.318,76.707 749.845,77.124 
		759.521,77.572 770.796,78.07 783.408,78.603 794.002,79.032 804.636,78.601 817.248,78.068 828.53,77.57 838.216,77.121 
		846.748,76.704 854.633,76.297 861.869,75.901 868.717,75.505 875.3,75.101 881.496,74.699 887.557,74.282 893.362,73.861 
		898.988,73.43 903.808,73.041 908.209,72.663 912.139,72.305 915.848,71.945 919.292,71.588 922.577,71.228 925.708,70.862 
		928.816,70.476 931.566,70.113 934.185,69.747 936.644,69.381 938.941,69.017 941.155,68.645 943.24,68.272 945.289,67.884 
		947.167,67.508 949.078,67.104 950.963,66.683 952.682,66.278 954.415,65.85 956.001,65.437 957.606,64.999 959.169,64.55 
		960.689,64.092 962.103,63.646 963.501,63.183 964.902,62.697 966.167,62.238 967.396,61.772 968.653,61.273 969.843,60.781 
		970.891,60.327 973.116,59.301 975.125,58.293 976.936,57.308 978.661,56.291 980.349,55.214 981.796,54.213 983.393,53.018 
		985.004,51.72 985.828,51.019 987.648,49.393 988.549,48.551 989.508,47.626 990.474,46.669 991.483,45.637 992.523,44.546 
		993.532,43.456 994.595,42.277 995.671,41.051 996.731,39.811 997.788,38.54 998.806,37.287 999.882,35.925 1000.97,34.516 
		1002.123,32.983 1003.262,31.436 1004.507,29.707 1005.767,27.92 1007.195,25.854 1008.664,23.69 1010.232,21.339 1011.846,18.881 
		1013.476,16.359 1023.843,0 1488.574,120.766 1479.571,156.479 1476.083,170.369 1472.607,184.266 1469.134,198.203 
		1465.71,211.993 1462.292,225.813 1458.904,239.584 1455.529,253.369 1452.574,265.527 1450.135,275.651 1447.991,284.641 
		1446.032,292.954 1444.258,300.585 1442.557,307.996 1440.983,314.951 1439.486,321.681 1438.062,328.188 1436.711,334.468 
		1435.432,340.526 1434.201,346.469 1433.064,352.073 1431.996,357.454 1430.951,362.826 1429.973,367.989 1429.032,373.068 
		1428.13,378.072 1427.28,382.92 1426.471,387.665 1425.693,392.367 1424.979,396.825 1424.276,401.359 1423.609,405.808 
		1422.954,410.349 1422.372,414.543 1421.796,418.861 1421.26,423.051 1420.733,427.348 1420.237,431.596 1419.785,435.666 
		1419.363,439.668 1418.965,443.674 1418.57,447.867 1418.22,451.849 1417.885,455.935 1417.581,459.946 1417.315,463.728 
		1417.067,467.606 1416.848,471.356 1416.647,475.195 1416.473,478.973 1416.317,482.821 1416.192,486.56 1416.084,490.432 
		1416.002,494.219 1415.945,497.997 1415.912,501.824 1415.903,505.618 1415.917,509.208 1415.955,512.86 1416.014,516.45 
		1416.093,519.975 1416.198,523.595 1416.325,527.138 1416.477,530.699 1416.652,534.269 1416.85,537.798 1417.062,541.149 
		1417.3,544.568 1417.555,547.89 1417.833,551.218 1418.129,554.48 1418.459,557.837 1418.804,561.099 1419.156,564.224 
		1419.521,567.259 1419.917,570.363 1420.331,573.419 1420.769,576.482 1421.229,579.533 1421.71,582.562 1422.22,585.606 
		1422.705,588.379 1423.218,591.175 1423.753,593.964 1424.309,596.742 1424.887,599.511 1425.489,602.285 1426.113,605.037 
		1426.709,607.569 1427.347,610.177 1427.979,612.675 1428.641,615.191 1429.32,617.69 1430.025,620.19 1430.74,622.639 
		1431.464,625.036 1432.227,627.483 1432.945,629.711 1433.688,631.947 1434.446,634.157 1435.229,636.371 1436.047,638.61 
		1436.872,640.807 1437.716,642.981 1438.573,645.127 1439.456,647.271 1440.268,649.183 1441.204,651.331 1442.05,653.216 
		1442.931,655.125 1443.814,656.985 1444.733,658.871 1445.669,660.739 1446.566,662.481 1447.547,664.335 1448.532,666.146 
		1449.531,667.932 1450.503,669.623 1451.454,671.236 1452.395,672.792 1453.36,674.347 1454.346,675.896 1455.343,677.424 
		1456.336,678.909 1457.359,680.397 1458.417,681.898 1459.457,683.334 1460.55,684.807 1461.658,686.259 1462.76,687.665 
		1463.884,689.062 1465.025,690.443 1466.187,691.81 1467.308,693.095 1468.36,694.272 1469.426,695.435 1470.503,696.581 
		1471.58,697.697 1472.686,698.816 1473.818,699.933 1475.11,701.177 1476.398,702.383 1477.73,703.599 1479.091,704.811 
		1480.47,706.01 1481.857,707.189 1483.447,708.507 1485.078,709.829 1486.676,711.093 1488.323,712.368 1489.999,713.636 
		1491.68,714.881 1493.479,716.185 1495.37,717.526 1497.28,718.851 1499.215,720.165 1501.169,721.463 1503.115,722.73 
		1505.267,724.103 1507.438,725.458 1509.624,726.794 1511.824,728.109 1514.076,729.426 1516.302,730.701 1518.515,731.94 
		1520.791,733.188 1523.079,734.417 1525.39,735.629 1527.676,736.805 1529.988,737.971 1532.502,739.209 1535.053,740.442 
		1537.771,741.73 1540.794,743.136 1543.831,744.524 1547.076,745.981 1550.308,747.408 1569.189,755.572 1566.39,784.202 
		1565.045,797.69 1563.646,811.457 1562.28,824.687 1560.915,837.68 1559.601,849.972 1558.3,861.909 1557.112,872.584 
		1555.894,883.322 1554.649,894.06 1553.459,904.126 1552.245,914.188 1551.008,924.25 1549.743,934.312 1548.455,944.37 
		1547.229,953.755 1545.915,963.627 1544.55,973.679 1543.072,984.381 1541.387,996.411 1539.397,1010.426 1537.297,1025.094 
		1533.133,1054.102 1531.053,1068.721 1529.279,1081.331 1527.718,1092.605 1526.272,1103.211 1525.033,1112.483 1523.818,1121.755 
		1522.715,1130.361 1521.722,1138.297 1520.78,1145.997 1519.834,1153.938 1518.994,1161.208 1518.177,1168.481 1517.389,1175.75 
		1516.696,1182.355 1516.026,1188.964 1515.384,1195.566 1514.768,1202.17 1514.179,1208.774 1513.674,1214.709 1513.193,1220.648 
		1512.742,1226.506 1512.311,1232.481 1511.91,1238.368 1511.53,1244.355 1511.222,1249.598 1510.934,1254.891 1510.671,1260.133 
		1510.433,1265.381 1510.218,1270.636 1510.029,1275.888 1509.864,1281.207 1509.729,1286.448 1509.618,1291.703 1509.544,1296.46 
		1509.488,1301.704 1509.46,1306.988 1509.461,1311.558 1509.485,1316.143 1509.532,1320.763 1509.603,1325.317 1509.697,1329.926 
		1509.817,1334.525 1509.961,1339.071 1510.125,1343.487 1510.319,1348.086 1510.538,1352.611 1510.784,1357.232 1511.055,1361.841 
		1511.343,1366.354 1511.661,1370.965 1512.053,1376.236 1512.469,1381.436 1512.917,1386.712 1513.388,1391.902 1513.894,1397.187 
		1514.418,1402.397 1514.969,1407.617 1515.553,1412.916 1516.148,1418.109 1516.781,1423.41 1517.505,1429.252 1518.271,1435.212 
		1519.057,1441.113 1519.866,1447.012 1520.702,1452.908 1521.562,1458.812 1522.542,1465.372 1523.55,1471.928 1524.609,1478.664 
		1525.666,1485.218 1526.854,1492.437 1528.067,1499.655 1529.418,1507.535 1530.793,1515.41 1532.311,1523.948 1533.972,1533.148 
		1535.778,1543.007 1537.702,1553.371 1540.049,1565.879 1542.792,1580.375 1548.317,1609.406 1551.073,1623.958 1553.437,1636.545 
		1555.56,1647.982 1557.387,1657.954 1559.069,1667.278 1560.608,1675.942 1562.006,1683.961 1563.379,1691.983 1564.613,1699.357 
		1565.821,1706.728 1566.898,1713.447 1567.95,1720.175 1568.976,1726.909 1569.876,1732.979 1570.783,1739.259 1571.635,1745.346 
		1572.463,1751.424 1573.268,1757.515 1574.047,1763.604 1574.804,1769.693 1575.538,1775.784 1576.325,1782.554 1577.085,1789.329 
		1577.816,1796.104 1578.521,1802.885 1579.197,1809.667 1579.798,1815.935 1580.421,1822.716 1581.019,1829.498 1581.589,1836.292 
		1582.133,1843.078 1582.651,1849.867 1583.144,1856.662 1583.61,1863.45 1584.052,1870.244 1584.468,1877.037 1584.859,1883.831 
		1585.227,1890.626 1585.568,1897.422 1585.887,1904.216 1586.195,1911.329 1586.49,1918.712 1586.78,1926.568 1587.057,1934.719 
		1587.33,1943.469 1587.58,1952.283 1587.798,1960.706 1588.004,1969.831 1587.904,1974.24 1587.679,1983.535 1587.445,1992.201 
		1587.218,1999.853 1586.948,2008.079 1586.615,2017.458 1585.39,2049.202 	" style=""></polygon></clipPath></defs></svg>