<?xml version="1.0" encoding="utf-8"?>
<!-- Generator: Adobe Illustrator 18.0.0, SVG Export Plug-In . SVG Version: 6.00 Build 0)  -->
<!DOCTYPE svg PUBLIC "-//W3C//DTD SVG 1.1//EN" "http://www.w3.org/Graphics/SVG/1.1/DTD/svg11.dtd">
<svg version="1.1" id="图层_1" xmlns="http://www.w3.org/2000/svg" xmlns:xlink="http://www.w3.org/1999/xlink" x="0px" y="0px"
	 width="59.5px" height="99.2px" viewBox="0 0 59.5 99.2" enable-background="new 0 0 59.5 99.2" xml:space="preserve">
<linearGradient id="SVGID_1_" gradientUnits="userSpaceOnUse" x1="2.7399" y1="33.3658" x2="13.757" y2="33.3658">
	<stop  offset="0" style="stop-color:#DDDDDE"/>
	<stop  offset="0.5" style="stop-color:#F9FAF8"/>
	<stop  offset="1" style="stop-color:#DDDDDE"/>
</linearGradient>
<path fill="url(#SVGID_1_)" stroke="#9FA0A0" stroke-miterlimit="10" d="M3,38.1c-0.8-0.6,0.3-1,0.5-1.9c0.2-1,3.4-11.5,4-12
	c2.5,1.3,2.6,5.1,3.5,6.3c0.2,0.3,2.1,1.8,2,4.3c0,0.9,0.5,4.5,0.6,5.2c0.3,1.6-0.3,1.7-0.9,2c-0.5,0.3-1,0.7-1.6,0.3
	C10.6,42,3,38.1,3,38.1z"/>
<linearGradient id="SVGID_2_" gradientUnits="userSpaceOnUse" x1="19.626" y1="14.7576" x2="38.626" y2="14.7576">
	<stop  offset="0" style="stop-color:#DDDDDE"/>
	<stop  offset="0.5" style="stop-color:#F9FAF8"/>
	<stop  offset="1" style="stop-color:#DDDDDE"/>
</linearGradient>
<path fill="url(#SVGID_2_)" stroke="#9FA0A0" stroke-miterlimit="10" d="M19.6,17.7c0,0,1.7-1.6,2-1.8s1.5-2.8,1.8-3
	c1.8-1,9.2-1.6,10.6-0.4s3.1,3.2,4.7,4.9c-3.8-2.1-7.7-2.2-9.2-2.2S23.8,15.5,19.6,17.7z"/>
<path fill="#595958" stroke="#9FA0A0" stroke-miterlimit="10" d="M7.5,24.2c2.6-3.4,11.4-6.2,12.1-6.5c10-5,17.9-1.2,19-0.4
	c0.5,0.1,9.8,3.3,12,5.8c-0.3,0.5-5,8.7-5.2,11s-0.4,6.3-0.5,7.7s-1,9.8-1.1,10.5c0,0.7-0.4,6-0.1,6.8c1,2-0.3,5.8-0.2,6.4
	c0.1,1.2,4.4,7.5,3.7,13.3c0.4,1.6,1.5,3.5,0.3,4.9c-2.6,4.6-15.2,4.5-17.3,4.5c-11.9,0.5-16.8-2.1-17.7-2.9
	c-0.9-0.8-1.8-2.5-1.7-3.5c0.1-1.1,0.7-0.9,0.7-3.1c0-2.2,0.2-4.4,0.5-5.3c0.3-0.9,3.5-8,3.7-9c-0.2-0.9-0.8-3.8-0.7-5.1
	c0.1-1.3,0.6-6.9,0.4-7.5c-0.2-0.6-1.4-11.7-1.6-12.9c-0.2-1.2-0.7-3.3-0.7-4.1c0-0.7,0.2-1.9-2-4.3C10.6,29.7,9.7,25,7.5,24.2z"/>
<linearGradient id="SVGID_3_" gradientUnits="userSpaceOnUse" x1="45.1249" y1="32.4449" x2="56.2856" y2="32.4449">
	<stop  offset="0" style="stop-color:#DDDDDE"/>
	<stop  offset="0.5" style="stop-color:#F9FAF8"/>
	<stop  offset="1" style="stop-color:#DDDDDE"/>
</linearGradient>
<path fill="url(#SVGID_3_)" stroke="#9FA0A0" stroke-miterlimit="10" d="M50.6,23.2c2.2,2.4,4.5,11.6,4.8,12.3s1.2,1.2,0.8,1.7
	c-0.4,0.5-6.3,4.6-8.5,4.4c-0.5,0-0.7,0.5-1.3,0c-1.3-0.6-1.2-1.5-1.2-2.2c0-0.7,0.1-4.4,0.3-5.2"/>
</svg>
