<?xml version="1.0" encoding="utf-8"?><!DOCTYPE svg PUBLIC "-//W3C//DTD SVG 1.1//EN" "http://www.w3.org/Graphics/SVG/1.1/DTD/svg11.dtd"><svg version="1.1" id="图层_1" xmlns="http://www.w3.org/2000/svg" xmlns:xlink="http://www.w3.org/1999/xlink" x="0" y="0" width="1467" height="577" viewBox="0 0 1467.662 577.93" enable-background="new 0 0 1467.662 577.93" xml:space="preserve">
<g>
	<polygon id="caipian" fill="#FFFFFF" stroke="none" stroke-linejoin="bevel" stroke-miterlimit="22.9256" points="
		1219.629,563.74 1176.786,556.457 1168.079,555 1159.374,553.566 1150.667,552.156 1141.953,550.769 1133.235,549.405 
		1124.515,548.065 1115.785,546.745 1106.385,545.351 1096.978,543.982 1087.523,542.631 1078.784,541.406 1070.044,540.204 
		1061.303,539.029 1053.232,537.965 1045.167,536.927 1037.095,535.912 1029.027,534.924 1021.633,534.041 1014.238,533.182 
		1006.841,532.347 999.22,531.511 991.824,530.727 984.422,529.966 977.016,529.229 969.603,528.515 961.509,527.761 
		953.411,527.032 945.311,526.328 937.2,525.647 928.414,524.935 919.621,524.247 910.719,523.575 901.921,522.935 893.114,522.318 
		884.313,521.724 875.512,521.156 866.705,520.611 857.9,520.091 849.095,519.597 840.288,519.127 831.486,518.686 822.68,518.271 
		814.354,517.902 804.951,517.509 795.078,517.125 784.896,516.754 774.637,516.405 764.059,516.067 753.298,515.746 
		742.792,515.457 733.939,515.238 724.688,515.491 713.827,515.816 702.414,516.181 691.354,516.559 680.047,516.97 
		669.605,517.373 659.58,517.783 650.151,518.194 640.635,518.631 631.9,519.059 623.176,519.51 614.457,519.987 605.738,520.489 
		597.023,521.017 588.311,521.572 580.397,522.1 572.483,522.651 564.571,523.225 556.664,523.823 548.758,524.446 540.468,525.123 
		532.569,525.795 524.667,526.49 516.768,527.209 508.871,527.951 500.976,528.716 492.285,529.584 483.602,530.478 
		474.919,531.398 466.241,532.344 457.604,533.311 448.929,534.307 440.255,535.327 431.585,536.373 422.914,537.444 
		414.249,538.539 405.583,539.658 396.927,540.802 388.265,541.97 379.615,543.162 370.601,544.431 361.957,545.672 
		352.513,547.053 342.289,548.574 332.055,550.121 321.035,551.811 308.431,553.768 294.248,555.997 279.663,558.308 
		265.646,560.541 251.541,562.797 237.435,565.061 210.963,569.329 164.452,576.842 215.313,486.653 0,267.171 58.047,258.223 
		71.64,256.104 83.994,254.155 92.329,252.822 96.583,252.12 100.066,251.523 103.009,250.996 105.804,250.473 108.471,249.95 
		111.374,249.356 114.249,248.742 117.162,248.096 120.085,247.424 122.999,246.731 126.146,245.959 129.295,245.162 
		132.511,244.324 135.68,243.473 138.793,242.615 141.908,241.729 144.759,240.895 147.624,240.033 150.471,239.152 
		153.317,238.246 156.131,237.323 158.706,236.455 161.26,235.572 163.817,234.663 166.339,233.742 168.853,232.8 171.436,231.805 
		173.919,230.822 176.175,229.905 178.41,228.974 180.616,228.03 182.812,227.064 184.881,226.13 187.041,225.129 189.208,224.096 
		191.365,223.042 193.503,221.97 195.641,220.87 197.728,219.771 199.834,218.634 201.966,217.458 204.061,216.276 206.197,215.046 
		208.475,213.708 210.693,212.378 212.998,210.971 215.296,209.541 217.792,207.959 220.294,206.344 222.783,204.709 
		225.262,203.054 227.925,201.248 230.614,199.395 233.283,197.528 236.159,195.488 239.035,193.419 242.108,191.18 
		245.375,188.769 248.844,186.178 252.543,183.385 256.47,180.39 261.048,176.865 266.172,172.891 272.538,167.919 283.672,159.188 
		291.351,153.181 297.008,148.783 301.862,145.04 306.401,141.569 310.471,138.485 314.345,135.582 318.038,132.843 
		321.527,130.286 325.045,127.738 328.376,125.355 331.703,123.005 335.048,120.671 338.62,118.21 342.216,115.765 345.822,113.344 
		349.434,110.952 353.07,108.573 356.717,106.22 360.377,103.889 364.04,101.584 367.725,99.297 371.427,97.028 375.141,94.783 
		378.877,92.556 382.611,90.36 386.135,88.315 389.674,86.29 393.226,84.284 396.773,82.31 400.356,80.341 403.936,78.404 
		407.535,76.483 411.144,74.585 414.773,72.705 418.401,70.854 422.05,69.019 425.705,67.208 429.322,65.445 432.995,63.684 
		436.693,61.936 440.399,60.214 444.113,58.518 447.843,56.842 451.579,55.192 455.329,53.564 459.095,51.958 462.744,50.431 
		466.52,48.878 470.32,47.344 473.863,45.941 477.429,44.554 480.999,43.191 484.576,41.851 488.162,40.533 491.767,39.234 
		495.503,37.916 499.126,36.663 502.741,35.439 506.384,34.232 510.017,33.055 513.676,31.896 517.332,30.764 521.006,29.654 
		524.528,28.617 528.213,27.557 531.896,26.524 535.589,25.516 539.287,24.531 542.993,23.569 546.695,22.636 550.411,21.722 
		554.126,20.834 558.085,19.915 562.064,19.019 566.056,18.146 570.042,17.3 574.037,16.477 578.04,15.677 582.3,14.854 
		586.561,14.056 590.776,13.291 595.051,12.541 599.312,11.818 603.588,11.117 607.865,10.439 612.41,9.745 616.952,9.078 
		621.504,8.435 626.045,7.819 630.603,7.224 635.153,6.656 639.808,6.102 644.366,5.581 649.185,5.057 654.01,4.558 658.832,4.084 
		663.65,3.636 668.475,3.21 673.298,2.809 678.392,2.41 683.48,2.037 688.671,1.681 693.496,1.376 698.086,1.107 702.667,0.865 
		707.005,0.658 711.335,0.479 715.42,0.332 719.501,0.212 723.591,0.118 727.457,0.054 733.817,0 740.391,0.056 744.215,0.12 
		748.306,0.215 752.382,0.336 756.462,0.482 760.794,0.665 765.113,0.871 769.705,1.114 774.271,1.382 779.11,1.689 784.288,2.044 
		789.385,2.418 794.471,2.817 799.299,3.22 804.118,3.646 808.945,4.095 813.771,4.57 818.594,5.07 823.414,5.595 827.97,6.115 
		832.623,6.671 837.186,7.241 841.729,7.834 846.282,8.452 850.835,9.095 855.38,9.764 859.922,10.458 864.2,11.137 868.467,11.838 
		872.742,12.563 877.006,13.313 881.234,14.08 885.492,14.878 889.759,15.705 893.759,16.504 897.751,17.328 901.745,18.176 
		905.737,19.05 909.727,19.95 913.671,20.866 917.395,21.757 921.098,22.668 924.813,23.606 928.518,24.568 932.217,25.554 
		935.908,26.564 939.599,27.599 943.275,28.658 946.808,29.7 950.47,30.808 954.133,31.941 957.784,33.099 961.429,34.281 
		965.052,35.483 968.683,36.712 972.297,37.963 976.038,39.285 979.632,40.581 983.219,41.9 986.799,43.242 990.367,44.606 
		993.922,45.989 997.487,47.402 1001.277,48.934 1005.052,50.487 1008.706,52.017 1012.458,53.619 1016.213,55.248 1019.958,56.903 
		1023.679,58.577 1027.393,60.274 1031.1,61.998 1034.792,63.743 1038.471,65.509 1042.075,67.267 1045.737,69.081 1049.382,70.914 
		1053.013,72.769 1056.64,74.649 1060.249,76.548 1063.844,78.468 1067.428,80.408 1071.004,82.372 1074.556,84.351 
		1078.102,86.354 1081.641,88.38 1085.163,90.425 1088.909,92.629 1092.637,94.853 1096.351,97.098 1100.052,99.367 
		1103.738,101.656 1107.396,103.959 1111.059,106.293 1114.704,108.647 1118.338,111.023 1121.954,113.421 1125.563,115.843 
		1129.151,118.285 1132.728,120.749 1136.067,123.081 1139.395,125.432 1142.728,127.817 1146.234,130.359 1149.725,132.918 
		1153.405,135.648 1157.277,138.551 1161.343,141.629 1165.725,144.981 1170.585,148.729 1176.258,153.139 1183.97,159.172 
		1195.16,167.947 1201.55,172.937 1206.681,176.917 1211.268,180.447 1215.113,183.381 1218.821,186.181 1222.26,188.749 
		1225.576,191.197 1228.628,193.419 1231.504,195.488 1234.381,197.528 1237.049,199.394 1239.734,201.246 1242.405,203.058 
		1244.88,204.709 1247.368,206.344 1249.87,207.959 1252.367,209.542 1254.662,210.97 1256.982,212.387 1259.176,213.702 
		1261.467,215.046 1263.602,216.277 1265.702,217.461 1267.814,218.627 1269.937,219.771 1272.036,220.878 1274.147,221.964 
		1276.294,223.04 1278.46,224.099 1280.618,225.127 1282.781,226.13 1284.852,227.064 1287.048,228.031 1289.253,228.974 
		1291.489,229.906 1293.743,230.823 1296.229,231.807 1298.804,232.798 1301.321,233.742 1303.844,234.663 1306.401,235.572 
		1308.955,236.455 1311.529,237.322 1314.333,238.242 1317.197,239.154 1320.046,240.035 1322.898,240.894 1325.742,241.726 
		1328.883,242.618 1332.003,243.479 1335.119,244.315 1338.38,245.164 1341.515,245.959 1344.663,246.731 1347.589,247.427 
		1350.477,248.09 1353.424,248.745 1356.287,249.356 1359.198,249.952 1361.851,250.472 1364.667,250.999 1367.574,251.52 
		1371.095,252.122 1375.321,252.82 1383.715,254.163 1396.06,256.11 1409.651,258.229 1467.662,267.171 1252.265,486.739 
		1303.275,577.93 	" style="stroke-width: 5; stroke-dasharray: 26;" mygroup="clFFFFFF"></polygon>
</g>
<g>
	<polygon fill="#C91231" points="215.607,419.495 230.332,417.133 245.056,414.778 259.688,412.447 274.914,410.034 
		289.719,407.707 302.877,405.664 314.382,403.901 325.064,402.285 335.737,400.698 345.595,399.256 354.619,397.96 
		364.029,396.636 373.059,395.391 382.1,394.172 391.136,392.978 400.183,391.81 409.228,390.666 418.28,389.549 427.331,388.457 
		436.386,387.392 445.442,386.352 454.458,385.343 463.516,384.355 472.582,383.395 481.645,382.461 490.719,381.555 
		498.96,380.757 507.204,379.983 515.449,379.232 523.698,378.506 531.943,377.805 540.597,377.097 548.851,376.448 
		557.105,375.823 565.365,375.224 573.627,374.649 581.887,374.097 590.982,373.518 600.08,372.967 609.181,372.443 
		618.283,371.946 627.39,371.474 636.51,371.028 646.443,370.571 656.286,370.143 666.751,369.714 677.651,369.293 689.455,368.865 
		701,368.47 712.915,368.088 724.253,367.75 733.91,367.485 743.15,367.714 754.118,368.016 765.352,368.351 776.394,368.703 
		787.104,369.069 797.733,369.455 808.04,369.857 817.855,370.266 826.547,370.652 835.74,371.084 844.927,371.545 854.123,372.035 
		863.314,372.552 872.505,373.094 881.698,373.662 890.885,374.256 900.073,374.876 909.266,375.52 918.451,376.189 
		927.745,376.891 936.924,377.608 946.094,378.351 954.561,379.063 963.017,379.798 971.47,380.558 979.922,381.345 987.659,382.09 
		995.39,382.861 1003.118,383.655 1010.839,384.473 1018.793,385.346 1026.515,386.217 1034.235,387.115 1041.954,388.036 
		1050.377,389.068 1058.802,390.127 1067.221,391.21 1075.646,392.321 1084.77,393.548 1093.894,394.802 1103.018,396.081 
		1112.888,397.491 1122.708,398.92 1132.521,400.376 1141.635,401.753 1150.736,403.153 1159.838,404.576 1168.933,406.024 
		1178.022,407.496 1187.11,408.993 1196.199,410.515 1240.924,418.117 1308.36,429.557 1319.774,417.922 1240.924,404.547 
		1196.199,396.944 1187.11,395.423 1178.022,393.925 1168.933,392.453 1159.838,391.005 1150.736,389.581 1141.635,388.183 
		1132.521,386.806 1122.708,385.35 1112.888,383.92 1103.018,382.511 1093.894,381.231 1084.77,379.977 1075.646,378.75 
		1067.221,377.64 1058.802,376.556 1050.377,375.496 1041.954,374.465 1034.235,373.543 1026.515,372.647 1018.793,371.775 
		1010.839,370.903 1003.118,370.083 995.39,369.289 987.659,368.52 979.922,367.775 971.47,366.988 963.017,366.227 
		954.561,365.492 946.094,364.781 936.924,364.037 927.745,363.32 918.451,362.618 909.266,361.949 900.073,361.305 
		890.885,360.686 881.698,360.092 872.505,359.524 863.314,358.981 854.123,358.465 844.927,357.975 835.74,357.514 826.547,357.08 
		817.855,356.696 808.04,356.285 797.733,355.885 787.104,355.497 776.394,355.132 765.352,354.78 754.118,354.446 743.15,354.144 
		733.91,353.914 724.253,354.179 712.915,354.518 701,354.899 689.455,355.293 677.651,355.723 666.751,356.144 656.286,356.572 
		646.443,357 636.51,357.457 627.39,357.904 618.283,358.374 609.181,358.871 600.08,359.396 590.982,359.948 581.887,360.527 
		573.627,361.077 565.365,361.653 557.105,362.252 548.851,362.877 540.597,363.527 531.943,364.234 523.698,364.936 
		515.449,365.661 507.204,366.411 498.96,367.187 490.719,367.985 481.645,368.891 472.582,369.823 463.516,370.784 
		454.458,371.772 445.442,372.781 436.386,373.821 427.331,374.886 418.28,375.978 409.228,377.095 400.183,378.24 391.136,379.407 
		382.1,380.601 373.059,381.821 364.029,383.065 354.619,384.389 345.595,385.685 335.737,387.126 325.064,388.715 314.382,390.329 
		302.877,392.093 289.719,394.136 274.914,396.463 259.688,398.875 245.056,401.207 230.332,403.562 215.607,405.925 
		187.971,410.381 147.839,416.864 147.477,417.504 158.477,428.716 187.971,423.951 	" mygroup="clC91231"></polygon>
</g>
<desc>Created with Snap</desc><defs></defs><defs><clipPath id="clip_pathright_sleeve"><polygon id="polygonSjsmz7urc3r" fill="none" stroke="#929496" stroke-linejoin="bevel" stroke-miterlimit="22.9256" points="
		1219.629,563.74 1176.786,556.457 1168.079,555 1159.374,553.566 1150.667,552.156 1141.953,550.769 1133.235,549.405 
		1124.515,548.065 1115.785,546.745 1106.385,545.351 1096.978,543.982 1087.523,542.631 1078.784,541.406 1070.044,540.204 
		1061.303,539.029 1053.232,537.965 1045.167,536.927 1037.095,535.912 1029.027,534.924 1021.633,534.041 1014.238,533.182 
		1006.841,532.347 999.22,531.511 991.824,530.727 984.422,529.966 977.016,529.229 969.603,528.515 961.509,527.761 
		953.411,527.032 945.311,526.328 937.2,525.647 928.414,524.935 919.621,524.247 910.719,523.575 901.921,522.935 893.114,522.318 
		884.313,521.724 875.512,521.156 866.705,520.611 857.9,520.091 849.095,519.597 840.288,519.127 831.486,518.686 822.68,518.271 
		814.354,517.902 804.951,517.509 795.078,517.125 784.896,516.754 774.637,516.405 764.059,516.067 753.298,515.746 
		742.792,515.457 733.939,515.238 724.688,515.491 713.827,515.816 702.414,516.181 691.354,516.559 680.047,516.97 
		669.605,517.373 659.58,517.783 650.151,518.194 640.635,518.631 631.9,519.059 623.176,519.51 614.457,519.987 605.738,520.489 
		597.023,521.017 588.311,521.572 580.397,522.1 572.483,522.651 564.571,523.225 556.664,523.823 548.758,524.446 540.468,525.123 
		532.569,525.795 524.667,526.49 516.768,527.209 508.871,527.951 500.976,528.716 492.285,529.584 483.602,530.478 
		474.919,531.398 466.241,532.344 457.604,533.311 448.929,534.307 440.255,535.327 431.585,536.373 422.914,537.444 
		414.249,538.539 405.583,539.658 396.927,540.802 388.265,541.97 379.615,543.162 370.601,544.431 361.957,545.672 
		352.513,547.053 342.289,548.574 332.055,550.121 321.035,551.811 308.431,553.768 294.248,555.997 279.663,558.308 
		265.646,560.541 251.541,562.797 237.435,565.061 210.963,569.329 164.452,576.842 215.313,486.653 0,267.171 58.047,258.223 
		71.64,256.104 83.994,254.155 92.329,252.822 96.583,252.12 100.066,251.523 103.009,250.996 105.804,250.473 108.471,249.95 
		111.374,249.356 114.249,248.742 117.162,248.096 120.085,247.424 122.999,246.731 126.146,245.959 129.295,245.162 
		132.511,244.324 135.68,243.473 138.793,242.615 141.908,241.729 144.759,240.895 147.624,240.033 150.471,239.152 
		153.317,238.246 156.131,237.323 158.706,236.455 161.26,235.572 163.817,234.663 166.339,233.742 168.853,232.8 171.436,231.805 
		173.919,230.822 176.175,229.905 178.41,228.974 180.616,228.03 182.812,227.064 184.881,226.13 187.041,225.129 189.208,224.096 
		191.365,223.042 193.503,221.97 195.641,220.87 197.728,219.771 199.834,218.634 201.966,217.458 204.061,216.276 206.197,215.046 
		208.475,213.708 210.693,212.378 212.998,210.971 215.296,209.541 217.792,207.959 220.294,206.344 222.783,204.709 
		225.262,203.054 227.925,201.248 230.614,199.395 233.283,197.528 236.159,195.488 239.035,193.419 242.108,191.18 
		245.375,188.769 248.844,186.178 252.543,183.385 256.47,180.39 261.048,176.865 266.172,172.891 272.538,167.919 283.672,159.188 
		291.351,153.181 297.008,148.783 301.862,145.04 306.401,141.569 310.471,138.485 314.345,135.582 318.038,132.843 
		321.527,130.286 325.045,127.738 328.376,125.355 331.703,123.005 335.048,120.671 338.62,118.21 342.216,115.765 345.822,113.344 
		349.434,110.952 353.07,108.573 356.717,106.22 360.377,103.889 364.04,101.584 367.725,99.297 371.427,97.028 375.141,94.783 
		378.877,92.556 382.611,90.36 386.135,88.315 389.674,86.29 393.226,84.284 396.773,82.31 400.356,80.341 403.936,78.404 
		407.535,76.483 411.144,74.585 414.773,72.705 418.401,70.854 422.05,69.019 425.705,67.208 429.322,65.445 432.995,63.684 
		436.693,61.936 440.399,60.214 444.113,58.518 447.843,56.842 451.579,55.192 455.329,53.564 459.095,51.958 462.744,50.431 
		466.52,48.878 470.32,47.344 473.863,45.941 477.429,44.554 480.999,43.191 484.576,41.851 488.162,40.533 491.767,39.234 
		495.503,37.916 499.126,36.663 502.741,35.439 506.384,34.232 510.017,33.055 513.676,31.896 517.332,30.764 521.006,29.654 
		524.528,28.617 528.213,27.557 531.896,26.524 535.589,25.516 539.287,24.531 542.993,23.569 546.695,22.636 550.411,21.722 
		554.126,20.834 558.085,19.915 562.064,19.019 566.056,18.146 570.042,17.3 574.037,16.477 578.04,15.677 582.3,14.854 
		586.561,14.056 590.776,13.291 595.051,12.541 599.312,11.818 603.588,11.117 607.865,10.439 612.41,9.745 616.952,9.078 
		621.504,8.435 626.045,7.819 630.603,7.224 635.153,6.656 639.808,6.102 644.366,5.581 649.185,5.057 654.01,4.558 658.832,4.084 
		663.65,3.636 668.475,3.21 673.298,2.809 678.392,2.41 683.48,2.037 688.671,1.681 693.496,1.376 698.086,1.107 702.667,0.865 
		707.005,0.658 711.335,0.479 715.42,0.332 719.501,0.212 723.591,0.118 727.457,0.054 733.817,0 740.391,0.056 744.215,0.12 
		748.306,0.215 752.382,0.336 756.462,0.482 760.794,0.665 765.113,0.871 769.705,1.114 774.271,1.382 779.11,1.689 784.288,2.044 
		789.385,2.418 794.471,2.817 799.299,3.22 804.118,3.646 808.945,4.095 813.771,4.57 818.594,5.07 823.414,5.595 827.97,6.115 
		832.623,6.671 837.186,7.241 841.729,7.834 846.282,8.452 850.835,9.095 855.38,9.764 859.922,10.458 864.2,11.137 868.467,11.838 
		872.742,12.563 877.006,13.313 881.234,14.08 885.492,14.878 889.759,15.705 893.759,16.504 897.751,17.328 901.745,18.176 
		905.737,19.05 909.727,19.95 913.671,20.866 917.395,21.757 921.098,22.668 924.813,23.606 928.518,24.568 932.217,25.554 
		935.908,26.564 939.599,27.599 943.275,28.658 946.808,29.7 950.47,30.808 954.133,31.941 957.784,33.099 961.429,34.281 
		965.052,35.483 968.683,36.712 972.297,37.963 976.038,39.285 979.632,40.581 983.219,41.9 986.799,43.242 990.367,44.606 
		993.922,45.989 997.487,47.402 1001.277,48.934 1005.052,50.487 1008.706,52.017 1012.458,53.619 1016.213,55.248 1019.958,56.903 
		1023.679,58.577 1027.393,60.274 1031.1,61.998 1034.792,63.743 1038.471,65.509 1042.075,67.267 1045.737,69.081 1049.382,70.914 
		1053.013,72.769 1056.64,74.649 1060.249,76.548 1063.844,78.468 1067.428,80.408 1071.004,82.372 1074.556,84.351 
		1078.102,86.354 1081.641,88.38 1085.163,90.425 1088.909,92.629 1092.637,94.853 1096.351,97.098 1100.052,99.367 
		1103.738,101.656 1107.396,103.959 1111.059,106.293 1114.704,108.647 1118.338,111.023 1121.954,113.421 1125.563,115.843 
		1129.151,118.285 1132.728,120.749 1136.067,123.081 1139.395,125.432 1142.728,127.817 1146.234,130.359 1149.725,132.918 
		1153.405,135.648 1157.277,138.551 1161.343,141.629 1165.725,144.981 1170.585,148.729 1176.258,153.139 1183.97,159.172 
		1195.16,167.947 1201.55,172.937 1206.681,176.917 1211.268,180.447 1215.113,183.381 1218.821,186.181 1222.26,188.749 
		1225.576,191.197 1228.628,193.419 1231.504,195.488 1234.381,197.528 1237.049,199.394 1239.734,201.246 1242.405,203.058 
		1244.88,204.709 1247.368,206.344 1249.87,207.959 1252.367,209.542 1254.662,210.97 1256.982,212.387 1259.176,213.702 
		1261.467,215.046 1263.602,216.277 1265.702,217.461 1267.814,218.627 1269.937,219.771 1272.036,220.878 1274.147,221.964 
		1276.294,223.04 1278.46,224.099 1280.618,225.127 1282.781,226.13 1284.852,227.064 1287.048,228.031 1289.253,228.974 
		1291.489,229.906 1293.743,230.823 1296.229,231.807 1298.804,232.798 1301.321,233.742 1303.844,234.663 1306.401,235.572 
		1308.955,236.455 1311.529,237.322 1314.333,238.242 1317.197,239.154 1320.046,240.035 1322.898,240.894 1325.742,241.726 
		1328.883,242.618 1332.003,243.479 1335.119,244.315 1338.38,245.164 1341.515,245.959 1344.663,246.731 1347.589,247.427 
		1350.477,248.09 1353.424,248.745 1356.287,249.356 1359.198,249.952 1361.851,250.472 1364.667,250.999 1367.574,251.52 
		1371.095,252.122 1375.321,252.82 1383.715,254.163 1396.06,256.11 1409.651,258.229 1467.662,267.171 1252.265,486.739 
		1303.275,577.93 	" style=""></polygon></clipPath></defs></svg>