<?xml version="1.0" encoding="utf-8"?>
<!-- Generator: Adobe Illustrator 18.0.0, SVG Export Plug-In . SVG Version: 6.00 Build 0)  -->
<!DOCTYPE svg PUBLIC "-//W3C//DTD SVG 1.1//EN" "http://www.w3.org/Graphics/SVG/1.1/DTD/svg11.dtd">
<svg version="1.1" id="图层_1" xmlns="http://www.w3.org/2000/svg" xmlns:xlink="http://www.w3.org/1999/xlink" x="0px" y="0px"
	 width="59.5px" height="99.2px" viewBox="0 0 59.5 99.2" enable-background="new 0 0 59.5 99.2" xml:space="preserve">
<path fill="#595958" stroke="#9FA0A0" stroke-miterlimit="10" d="M4.6,36.5c-0.4-0.3-1-1-0.6-1.8s2.1-6.8,2.3-7.8s1.8-4.6,2-4.8
	c0.2,1,0.5,4.2,1.1,5.4s4.1,7.6,4.1,8.6s0.2,3.2-0.1,3.8c-0.3,0-1-0.7-1.2-0.7C10.4,39.4,7.5,38.2,7,38S4.6,36.5,4.6,36.5z"/>
<linearGradient id="SVGID_1_" gradientUnits="userSpaceOnUse" x1="8.2906" y1="51.5978" x2="52.292" y2="51.5978">
	<stop  offset="0" style="stop-color:#DDDDDE"/>
	<stop  offset="0.5" style="stop-color:#F9FAF8"/>
	<stop  offset="1" style="stop-color:#DDDDDE"/>
</linearGradient>
<path fill="url(#SVGID_1_)" stroke="#9FA0A0" stroke-miterlimit="10" d="M8.3,22.1c1.8-2.6,10.2-4.9,11.7-5.4
	c-0.3,0.9-0.5,3.5,0.5,5.3c0.2,0.8,0.4,3.3,1.1,4.3c0.3-0.3,6-6.8,6.1-6.6s1.4,4.4,1.4,4.8c0,0.4,0.1,5.3,0.1,6.3c0.3,0,2.4,0,2.4,0
	l0.1-6.5c0,0,1.1-4.3,1.5-4.1s3.5,5,6.3,6.3c0.1-0.3,1.9-6.3,2.1-6.7c0.2-0.4,0-2.1-0.2-2.8c0.6,0.2,6.8,2,7.4,2.5
	c1.5,0.7,3.7,2.6,3.7,3.2c0,0.6-0.2,3.1-0.6,3.9c-0.4,0.8-4.6,12.2-4.7,12.6c0,0.4-0.5,3.3-0.8,4.2c-0.1,0.6-0.1,12.5-1.8,15
	c0.1,0.7,3.6,12.1,4,13.3c0.2,0.5,0.6,6.4,0.6,7s0.8,3,0.9,3.4c0.1,0.4,0.2,2-0.8,2.6c-1.8,1.3-5.5,1.3-6.5,1.3
	c-12.4,1.2-26.9-0.3-27.7-0.4c-4.3-0.3-4.7-2.4-4.5-3.3s1-3.4,1-4.2s0.8-5.2,0.8-6.1s3.6-10.8,3.7-11.6c-0.3-0.4-1.2-7-1.3-8.1
	S14.1,41.3,13.4,40c0.1-0.5,0.2-3.4,0.1-3.8c-0.2-0.8-2.8-6.4-3.3-7c-1.1-1.8-1.5-3.8-1.6-4.4S8.3,22.1,8.3,22.1z"/>
<linearGradient id="SVGID_2_" gradientUnits="userSpaceOnUse" x1="46.8739" y1="31.8016" x2="56.5961" y2="31.8016">
	<stop  offset="0" style="stop-color:#DDDDDE"/>
	<stop  offset="0.5" style="stop-color:#F9FAF8"/>
	<stop  offset="1" style="stop-color:#DDDDDE"/>
</linearGradient>
<path fill="url(#SVGID_2_)" stroke="#9FA0A0" stroke-miterlimit="10" d="M52.3,22.8c1.4,1.5,2.6,7.2,2.8,7.9
	c0.1,0.5,0.9,3.7,1.3,4.2c0.6,1.1,0.2,1.8-0.3,2.1c-1.1,1.4-6.4,2.6-6.8,2.8c-0.4,0.2-1.3,0.9-1.7,1.1c-0.2-0.1-0.4-0.1-0.6-0.3
	c0.3-2,3.2-9.5,3.3-9.9c0.1-0.4,1.6-4,1.6-4.3C51.9,26,52.5,23.4,52.3,22.8z"/>
<linearGradient id="SVGID_3_" gradientUnits="userSpaceOnUse" x1="36.7887" y1="35.4271" x2="46.1032" y2="35.4271">
	<stop  offset="0" style="stop-color:#DDDDDE"/>
	<stop  offset="0.5" style="stop-color:#F9FAF8"/>
	<stop  offset="1" style="stop-color:#DDDDDE"/>
</linearGradient>
<path fill="url(#SVGID_3_)" stroke="#9FA0A0" stroke-miterlimit="10" d="M36.8,29.8c0,0,4.2-0.5,4.7-0.3s4.3,0.8,4.4,1.1
	s0.7,10.2-0.2,11c-2.2-0.9-8.3-1.3-8.7-1.3C36.8,39.1,36.8,29.8,36.8,29.8z"/>
<linearGradient id="SVGID_4_" gradientUnits="userSpaceOnUse" x1="19.6728" y1="21.6427" x2="41.4745" y2="21.6427">
	<stop  offset="0" style="stop-color:#DDDDDE"/>
	<stop  offset="0.5" style="stop-color:#F9FAF8"/>
	<stop  offset="1" style="stop-color:#DDDDDE"/>
</linearGradient>
<path fill="url(#SVGID_4_)" stroke="#9FA0A0" stroke-miterlimit="10" d="M20,16.8c0.2-0.3,1.7-1.6,2-1.7s1.2-2.6,1.7-2.7
	s10.7,0.4,12.3,0.1c0.4,0.2,2.2,1.3,2.8,2.8c0.6,0.4,2.1,1.3,2.4,1.8c0.1,0.4,0.4,2.3,0.2,2.8c-0.2,0.5-1.8,6-2.1,6.7
	c-1.5-0.3-5.1-4.7-6.3-6.3c-0.4,0-1.5,3.7-1.5,4.1c0,0.4,0,5.8-0.1,6.5c-0.3,0-1.9,0-2.4,0c0-0.3-0.1-5.8-0.1-6.3
	c-0.1-0.4-1-4-1.4-4.8c-0.4,0.3-5.4,5.8-6.1,6.6c-0.2-0.3-0.7-1.5-1.1-4.3C20.2,21.7,19.2,19.5,20,16.8z"/>
</svg>
