<?xml version="1.0" encoding="utf-8"?><!DOCTYPE svg PUBLIC "-//W3C//DTD SVG 1.1//EN" "http://www.w3.org/Graphics/SVG/1.1/DTD/svg11.dtd"><svg version="1.1" id="图层_1" xmlns="http://www.w3.org/2000/svg" xmlns:xlink="http://www.w3.org/1999/xlink" x="0" y="0" width="1589" height="2056" viewBox="0 0 1589.166 2056.822" enable-background="new 0 0 1589.166 2056.822" xml:space="preserve">
<g>
	<path id="caipian" fill="#FFFFFF" stroke="none" stroke-width="0.25" stroke-miterlimit="10" d="M2.647,2056.822l-1.221-31.612
		l-0.331-9.188l-0.277-8.353l-0.225-7.491l-0.235-8.664l-0.223-9.113L0,1976.3l0.171-7.751l0.219-8.714l0.247-8.859l0.271-8.84
		l0.274-8.235l0.289-7.921l0.294-7.418l0.313-7.224l0.317-6.794l0.342-6.794l0.366-6.79l0.392-6.794l0.416-6.79l0.439-6.789
		l0.466-6.79l0.491-6.789l0.517-6.785l0.542-6.785l0.567-6.786l0.594-6.781l0.631-6.884l0.646-6.78l0.674-6.776l0.703-6.778
		l0.729-6.772l0.757-6.771l0.786-6.771l0.731-6.095l0.754-6.089l0.78-6.091l0.803-6.084l0.827-6.082l0.853-6.081l0.914-6.333
		l0.9-6.072l1.025-6.73l1.053-6.73l1.076-6.717l1.209-7.378l1.234-7.368l1.373-8.026l1.398-8.02l1.539-8.67l1.683-9.326l1.827-9.976
		l2.132-11.488l2.49-13.259l2.758-14.563l5.531-29.067l2.746-14.508l2.316-12.35l1.952-10.527l1.807-9.864l1.66-9.203l1.515-8.538
		l1.374-7.881l1.349-7.879l1.21-7.217l1.187-7.22l1.053-6.559l1.058-6.734l1.005-6.559l0.978-6.56l0.855-5.899l0.833-5.902
		l0.807-5.899l0.772-5.836l0.76-5.929l0.731-5.938l0.616-5.188l0.596-5.213l0.581-5.293l0.548-5.214l0.542-5.419l0.499-5.247
		l0.468-5.204l0.446-5.281l0.414-5.234l0.336-4.549l0.318-4.637l0.288-4.521l0.271-4.624l0.24-4.529l0.236-5.011l0.188-4.535
		l0.163-4.544l0.143-4.641l0.113-4.545l0.093-4.629l0.065-4.555l0.044-4.592l0.021-4.586l-0.002-4.635l-0.03-5.195l-0.052-4.761
		l-0.085-5.268l-0.111-5.219l-0.142-5.302l-0.166-5.237l-0.194-5.283l-0.217-5.243l-0.244-5.289l-0.265-5.229l-0.296-5.345
		l-0.313-5.252l-0.378-5.915l-0.406-5.921l-0.433-5.936l-0.459-5.934l-0.484-5.936l-0.508-5.937l-0.592-6.603l-0.619-6.6l-0.646-6.6
		l-0.671-6.603l-0.694-6.604l-0.792-7.269l-0.818-7.268l-0.843-7.269l-0.912-7.646l-0.973-7.936l-0.995-7.936l-1.104-8.602
		l-1.216-9.269l-1.241-9.265l-1.354-9.938l-1.562-11.268l-1.771-12.6l-2.079-14.603l-4.162-28.983l-2.099-14.646l-1.987-14.002
		l-1.686-12.021l-1.476-10.698l-1.383-10.198l-1.249-9.383l-1.313-10.053l-1.287-10.058l-1.262-10.056l-1.238-10.062l-1.213-10.063
		l-1.189-10.064l-1.243-10.733l-1.232-10.86l-1.264-11.379l-1.294-11.883l-1.304-12.205l-1.352-12.868l-1.405-13.619l-1.369-13.513
		l-1.314-13.196l-2.771-28.373l19.061-8.24l3.561-1.563l3.328-1.487l3.344-1.517l2.983-1.38l2.766-1.304l2.578-1.241l2.515-1.235
		l2.303-1.156l2.292-1.178l2.293-1.206l1.993-1.071l2.079-1.143l2.208-1.239l2.261-1.299l2.179-1.279l2.255-1.352l2.067-1.265
		l2.198-1.372l1.973-1.258l1.967-1.278l1.942-1.289l1.913-1.297l1.952-1.352l1.899-1.346l1.674-1.212l1.687-1.246l1.673-1.265
		l1.664-1.285l1.629-1.285l1.612-1.305l1.559-1.291l1.412-1.196l1.344-1.168l1.37-1.217l1.325-1.207l1.313-1.227l1.28-1.229
		l1.276-1.259l1.06-1.072l1.102-1.145l1.065-1.137l1.075-1.175l1.106-1.238l1.162-1.336l1.149-1.36l1.146-1.391l1.122-1.4
		l1.081-1.384l1.096-1.443l1.084-1.465l1.049-1.453l1.028-1.464l0.999-1.458l0.996-1.492l1.006-1.544l0.971-1.529l0.963-1.559
		l0.98-1.626l1.043-1.776l1.009-1.771l1.007-1.813l0.974-1.805l0.891-1.695l0.951-1.859l0.927-1.862l0.898-1.855l0.877-1.863
		l0.876-1.911l0.918-2.063l0.824-1.905l0.813-1.928l0.889-2.172l0.848-2.133l0.835-2.167l0.819-2.195l0.797-2.196l0.773-2.201
		l0.75-2.197l0.744-2.25l0.731-2.284l0.768-2.477l0.731-2.439l0.72-2.486l0.688-2.466l0.677-2.508l0.653-2.506l0.637-2.534
		l0.621-2.563l0.581-2.485l0.624-2.773l0.592-2.744l0.581-2.809l0.542-2.735l0.522-2.753l0.511-2.805l0.491-2.82l0.495-2.989
		l0.477-3.028l0.457-3.053l0.43-3.028l0.424-3.165l0.379-3l0.369-3.104l0.342-3.062l0.339-3.255l0.325-3.344l0.294-3.278
		l0.272-3.308l0.259-3.416l0.227-3.313l0.207-3.325l0.196-3.551l0.172-3.568l0.146-3.529l0.125-3.565l0.102-3.557l0.079-3.578
		l0.056-3.531l0.034-3.591l0.012-3.567l-0.011-3.783l-0.035-3.781l-0.06-3.831l-0.083-3.77l-0.105-3.741l-0.13-3.792l-0.154-3.8
		l-0.177-3.806l-0.201-3.818l-0.221-3.781l-0.243-3.77l-0.285-4.053l-0.308-4.029l-0.335-4.065l-0.349-3.932l-0.386-4.098
		l-0.4-3.999l-0.426-4.033l-0.446-4.014l-0.494-4.229l-0.527-4.29l-0.539-4.201l-0.575-4.297l-0.587-4.222l-0.63-4.356l-0.668-4.461
		l-0.688-4.443l-0.721-4.492l-0.774-4.688l-0.797-4.685l-0.871-4.969l-0.877-4.87l-0.953-5.152l-0.972-5.125l-1.054-5.432
		l-1.11-5.593l-1.163-5.734l-1.205-5.817l-1.275-6.039l-1.347-6.259l-1.371-6.267l-1.494-6.71l-1.569-6.937l-1.644-7.163
		l-1.771-7.613l-1.954-8.287l-2.138-8.966l-2.486-10.316l-3.058-12.573l-3.387-13.837l-3.43-13.934l-3.448-13.95l-3.448-13.89
		l-3.443-13.813l-3.444-13.775l-3.489-13.896l-8.993-35.667L587.742,0.001l1.164,31.931l0.178,4.153l0.203,4.248l0.229,4.326
		l0.253,4.338l0.255,3.99l0.282,4.063l0.285,3.78l0.299,3.665l0.302,3.422l0.313,3.284l0.331,3.25l0.358,3.283l0.374,3.207
		l0.389,3.147l0.401,3.069l0.433,3.134l0.45,3.091l0.474,3.094l0.5,3.115l0.515,3.063l0.542,3.091l0.561,3.063l0.59,3.084
		l0.607,3.065l0.632,3.07l0.653,3.054l0.643,2.908l0.667,2.916l0.694,2.933l0.714,2.917l0.732,2.898l0.716,2.745l0.75,2.791
		l0.765,2.759l0.784,2.745l0.807,2.738l0.786,2.593l0.809,2.594l0.832,2.595l0.847,2.57l0.86,2.539l0.889,2.553l0.869,2.431
		l0.889,2.419l0.914,2.422l0.917,2.368l0.94,2.364l0.926,2.271l0.936,2.238l0.953,2.219l0.985,2.24l0.941,2.088l0.993,2.146
		l0.97,2.046l1.01,2.077l1.016,2.039l0.972,1.905l1.005,1.924l1.028,1.922l1.026,1.872l1.042,1.854l1.085,1.886l1.002,1.699
		l1.034,1.713l1.042,1.686l1.065,1.686l1.09,1.681l1.095,1.646l1.048,1.541l1.089,1.563l1.087,1.521l1.076,1.471l1.112,1.484
		l1.123,1.461l1.097,1.393l1.077,1.335l1.098,1.329l1.076,1.271l1.135,1.309l1.065,1.196l1.149,1.263l1.152,1.231l1.155,1.202
		l1.091,1.107l1.14,1.127l1.107,1.068l1.145,1.077l1.134,1.039l1.139,1.015l1.153,1.001l1.173,0.989l1.18,0.969l1.206,0.961
		l1.19,0.923l1.225,0.92l1.127,0.823l1.215,0.862l1.246,0.858l1.259,0.841l1.307,0.848l1.302,0.82l1.345,0.824l1.338,0.797
		l1.452,0.84l1.5,0.842l1.509,0.823l1.532,0.813l1.615,0.832l1.654,0.828l1.682,0.815l1.671,0.788l1.731,0.794l1.8,0.8l1.837,0.793
		l1.831,0.77l1.926,0.784l1.998,0.789l1.969,0.754l2.041,0.759l2.006,0.723l2.185,0.763l2.175,0.735l2.188,0.717l2.18,0.691
		l2.329,0.716l2.31,0.688l2.356,0.677l2.393,0.665l2.444,0.656l2.518,0.652l2.459,0.615l2.55,0.615l2.471,0.573l2.557,0.57
		l2.625,0.563l2.68,0.551l2.645,0.521l2.813,0.531l2.802,0.506l2.929,0.505l2.975,0.491l3,0.472l2.957,0.443l5.816,0.823
		c5.57,0.686,14.552,1.541,24.677,1.541c5.138,0,9.962-0.223,14.424-0.664l8.499-1.227l3.343-0.474l2.957-0.443l2.994-0.471
		l2.958-0.487l2.98-0.515l2.772-0.5l2.813-0.531l2.631-0.519l2.688-0.553l2.658-0.57l2.507-0.56l2.503-0.581l2.538-0.611l2.46-0.615
		l2.513-0.65l2.481-0.667l2.337-0.649l2.361-0.679l2.338-0.695l2.331-0.716l2.146-0.682l2.219-0.728l2.17-0.734l2.176-0.76
		l2.005-0.723l2.044-0.76l1.969-0.754l1.998-0.789l1.927-0.784l1.83-0.769l1.839-0.794l1.815-0.808l1.68-0.771l1.724-0.813
		l1.666-0.809l1.65-0.825l1.618-0.834l1.519-0.806l1.537-0.839l1.491-0.837l1.436-0.83l1.356-0.808l1.337-0.819l1.299-0.817
		l1.309-0.851l1.254-0.838l1.252-0.863l1.222-0.866l1.112-0.813l1.229-0.923l1.194-0.925l1.21-0.967l1.175-0.964l1.172-0.989
		l1.154-1.001l1.138-1.015l1.134-1.039l1.144-1.074l1.116-1.076l1.126-1.114l1.099-1.115l1.152-1.202l1.164-1.244l1.136-1.244
		l1.067-1.201l1.124-1.295l1.101-1.3l1.087-1.314l1.077-1.335l1.097-1.393l1.122-1.461l1.113-1.483l1.076-1.474l1.078-1.51
		l1.101-1.579l1.044-1.533l1.1-1.653l1.081-1.666l1.071-1.693l1.039-1.681l1.029-1.706l1.029-1.746l1.051-1.824l1.062-1.887
		l1.022-1.867l1.023-1.914l1.003-1.919l0.984-1.928l1.013-2.035l0.998-2.054l0.975-2.059l1.001-2.163l0.942-2.087l0.972-2.21
		l0.96-2.236l0.938-2.238l0.928-2.276l0.937-2.354l0.924-2.384l0.905-2.402l0.891-2.421l0.869-2.432l0.89-2.551l0.871-2.575
		l0.841-2.549l0.828-2.582l0.797-2.561l0.802-2.646l0.806-2.731l0.779-2.731l0.768-2.766l0.75-2.789l0.712-2.729l0.742-2.936
		l0.711-2.905l0.688-2.911l0.67-2.928l0.642-2.896l0.666-3.12l0.619-3.007l0.608-3.069l0.586-3.073l0.563-3.073l0.546-3.106
		l0.516-3.069l0.496-3.093l0.475-3.103l0.449-3.094l0.433-3.118l0.403-3.099l0.386-3.12l0.375-3.225l0.356-3.268l0.335-3.268
		l0.313-3.297l0.298-3.389l0.301-3.679l0.285-3.78l0.281-4.063l0.258-4.012l0.251-4.283l0.229-4.333l0.207-4.313l0.176-4.133
		L1001.42,0l488.404,126.917l-9.025,35.807l-3.458,13.775l-3.446,13.774l-3.442,13.813l-3.448,13.891l-3.448,13.953l-3.431,13.936
		l-3.39,13.849l-3.062,12.584l-2.488,10.327l-2.14,8.969l-1.954,8.292l-1.771,7.617l-1.645,7.166l-1.568,6.938l-1.495,6.717
		l-1.372,6.264l-1.346,6.264l-1.277,6.046l-1.202,5.813l-1.166,5.747l-1.109,5.594l-1.042,5.369l-0.975,5.137l-0.941,5.097
		l-0.879,4.881l-0.866,4.94l-0.802,4.711l-0.774,4.685l-0.728,4.53l-0.677,4.362l-0.68,4.535l-0.626,4.33l-0.59,4.241l-0.573,4.287
		l-0.535,4.175l-0.531,4.319l-0.487,4.176l-0.454,4.091l-0.423,3.989l-0.401,4.015l-0.383,4.057l-0.353,3.988l-0.335,4.047
		l-0.308,4.021l-0.285,4.059l-0.244,3.773l-0.22,3.771l-0.202,3.841l-0.177,3.789l-0.153,3.792l-0.129,3.797l-0.107,3.748
		l-0.081,3.731l-0.062,3.871l-0.035,3.739l-0.01,3.862l0.012,3.522l0.033,3.558l0.058,3.591l0.078,3.547l0.103,3.552l0.125,3.601
		l0.146,3.509l0.173,3.576l0.195,3.544l0.205,3.312l0.228,3.321l0.258,3.41l0.273,3.302l0.299,3.332l0.316,3.262l0.347,3.316
		l0.34,3.043l0.368,3.095l0.383,3.029l0.418,3.124l0.429,3.026l0.462,3.081l0.472,2.996l0.503,3.036l0.487,2.796l0.51,2.803
		l0.516,2.711l0.563,2.843l0.562,2.717l0.599,2.768l0.626,2.79l0.577,2.471l0.621,2.561l0.64,2.547l0.653,2.509l0.674,2.496
		l0.688,2.468l0.717,2.478l0.736,2.457l0.761,2.452l0.752,2.352l0.718,2.166l0.766,2.245l0.768,2.181l0.803,2.215l0.816,2.188
		l0.837,2.174l0.845,2.125l0.889,2.171l0.804,1.905l0.843,1.945l0.918,2.062l0.857,1.875l0.891,1.889l0.898,1.854l0.923,1.856
		l0.943,1.845l0.91,1.732l0.964,1.784l1.01,1.819l1.007,1.766l1.03,1.756l0.997,1.654l0.954,1.543l0.98,1.546l0.993,1.525
		l1.019,1.522l0.966,1.412l1.051,1.495l1.041,1.442l1.09,1.472l1.09,1.437l1.084,1.389l1.125,1.402l1.142,1.386l1.146,1.356
		l1.168,1.344l1.109,1.241l1.065,1.164l1.067,1.14l1.107,1.149l1.056,1.069l1.285,1.269l1.271,1.223l1.305,1.218l1.342,1.221
		l1.35,1.2l1.355,1.177l1.406,1.193l1.57,1.301l1.604,1.297l1.633,1.289l1.669,1.289l1.651,1.248l1.688,1.247l1.7,1.23l1.877,1.329
		l1.966,1.361l1.9,1.29l1.954,1.297l1.961,1.274l1.973,1.257l2.184,1.362l2.1,1.283l2.229,1.336l2.199,1.289l2.218,1.274
		l2.252,1.264l2.252,1.236l2.221,1.192l2.267,1.187l2.293,1.176l2.308,1.155l2.326,1.143l2.537,1.217l2.581,1.213l2.79,1.284
		l3.078,1.39l3.295,1.463l3.28,1.433l19.868,8.5l-2.805,28.726l-1.326,13.32l-1.379,13.589l-1.41,13.667l-1.355,12.903
		l-1.308,12.221l-1.296,11.893l-1.266,11.381l-1.167,10.278l-1.243,10.733l-1.189,10.064l-1.213,10.063l-1.237,10.062l-1.263,10.058
		l-1.288,10.057l-1.313,10.055l-1.247,9.38l-1.383,10.197l-1.479,10.707l-1.685,12.026l-1.989,14.015l-2.101,14.667l-4.167,29.014
		l-2.08,14.616l-1.773,12.608l-1.562,11.271l-1.354,9.939l-1.243,9.277l-1.216,9.267l-1.104,8.604l-0.995,7.938l-0.974,7.939
		l-0.91,7.644l-0.844,7.271l-0.817,7.271l-0.792,7.271l-0.695,6.604l-0.672,6.604l-0.646,6.604l-0.618,6.604l-0.594,6.604
		l-0.507,5.934l-0.482,5.938l-0.46,5.938l-0.428,5.854l-0.404,5.909l-0.384,5.982l-0.313,5.27l-0.286,5.188l-0.271,5.335
		l-0.239,5.196l-0.22,5.304l-0.193,5.271l-0.166,5.237l-0.143,5.296l-0.111,5.242l-0.085,5.246l-0.052,4.755l-0.03,5.205
		l-0.002,4.645l0.02,4.56l0.045,4.616l0.066,4.545l0.092,4.629l0.115,4.563l0.14,4.59l0.165,4.593l0.188,4.522l0.234,4.968
		l0.245,4.614l0.267,4.558l0.292,4.589l0.313,4.552l0.34,4.589l0.413,5.229l0.446,5.286l0.465,5.179l0.501,5.271l0.544,5.431
		l0.549,5.233l0.58,5.28l0.599,5.242l0.617,5.196l0.726,5.871l0.758,5.922l0.788,5.949l0.808,5.896l0.832,5.895l0.857,5.9
		l0.978,6.565l1.004,6.553l1.057,6.724l1.054,6.559l1.187,7.219l1.211,7.213l1.349,7.878l1.374,7.873l1.516,8.541l1.659,9.195
		l1.804,9.862l1.952,10.519l2.314,12.336l2.743,14.495l5.521,29.027l2.757,14.548l2.487,13.249l2.13,11.477l1.826,9.973l1.683,9.316
		l1.538,8.67l1.398,8.012l1.372,8.027l1.234,7.364l1.209,7.377l1.077,6.717l1.052,6.726l1.026,6.73l0.901,6.073l0.913,6.319
		l0.853,6.084l0.828,6.089l0.804,6.082l0.779,6.09l0.756,6.093l0.732,6.088l0.786,6.773l0.757,6.772l0.73,6.771l0.702,6.782
		l0.675,6.78l0.647,6.778l0.631,6.877l0.594,6.789l0.567,6.785l0.543,6.781l0.518,6.792l0.491,6.786l0.465,6.795l0.441,6.787
		l0.415,6.795l0.392,6.788l0.366,6.799l0.343,6.788l0.318,6.798l0.312,7.222l0.295,7.421l0.289,7.929l0.275,8.238l0.271,8.845
		l0.245,8.86l0.22,8.702l0.174,7.819l-0.136,6.053l-0.225,9.105l-0.233,8.654l-0.224,7.482l-0.277,8.364l-0.329,9.188l-1.229,31.677
		L2.647,2056.822L2.647,2056.822z" style="stroke-width: 5; stroke-dasharray: 26;" mygroup="clFFFFFF"></path>
</g>
<g>
	<path fill="#C91231" d="M55.012,1061.561l1.941,13.635l1.771,12.6l1.562,11.268l1.354,9.938l1.241,9.265l1.216,9.269l1.104,8.602
		l0.995,7.936l0.973,7.936l0.912,7.646l0.843,7.269l0.818,7.268l0.792,7.269l0.694,6.604l0.671,6.603l0.646,6.6l0.619,6.6
		l0.592,6.603l0.508,5.937l0.484,5.936l0.459,5.934l0.433,5.936l0.406,5.921l0.378,5.915l0.313,5.252l0.296,5.345l0.265,5.229
		l0.244,5.289l0.217,5.243l0.194,5.283l0.166,5.237l0.142,5.302l0.111,5.219l0.085,5.268l0.052,4.761l0.03,5.195l0.002,4.635
		l-0.021,4.586l-0.044,4.592l-0.065,4.555l-0.093,4.629l-0.113,4.545l-0.143,4.641l-0.163,4.544l-0.188,4.535l-0.236,5.011
		l-0.24,4.529l-0.271,4.624l-0.288,4.521l-0.318,4.637l-0.336,4.549l-0.414,5.234l-0.446,5.281l-0.468,5.204l-0.499,5.247
		l-0.542,5.419l-0.548,5.214l-0.581,5.293l-0.596,5.213l-0.616,5.188l-0.731,5.938l-0.76,5.929l-0.772,5.836l-0.807,5.899
		l-0.833,5.902l-0.855,5.899l-0.978,6.56l-1.005,6.559l-1.058,6.734l-1.053,6.559l-1.187,7.22l-1.21,7.217l-1.349,7.879
		l-1.374,7.881l-1.515,8.538l-1.229,6.813l113.609,314.658C157.975,1591.987,127.762,1267.747,55.012,1061.561z" mygroup="clC91231"></path>
	<path fill="#C91231" d="M31.155,1661.448l-0.548,2.995l-1.683,9.326l-1.539,8.67l-1.398,8.02l-1.373,8.026l-1.234,7.368
		l-1.209,7.378l-1.076,6.717l-1.053,6.73l-1.025,6.73l-0.9,6.072l-0.914,6.333l-0.853,6.081l-0.827,6.082l-0.803,6.084l-0.78,6.091
		l-0.754,6.089l-0.731,6.095l-0.786,6.771l-0.757,6.771l-0.729,6.772l-0.703,6.778l-0.674,6.776l-0.646,6.78l-0.631,6.884
		l-0.594,6.781l-0.567,6.786l-0.542,6.785l-0.517,6.785l-0.491,6.789l-0.466,6.79l-0.439,6.789l-0.416,6.79l-0.392,6.794
		l-0.366,6.79l-0.342,6.794l-0.317,6.794l-0.313,7.224l-0.294,7.418l-0.289,7.921l-0.274,8.235l-0.271,8.84l-0.247,8.859
		l-0.219,8.714L0,1976.3l0.135,6.101l0.223,9.113l0.235,8.664l0.225,7.491l0.277,8.353l0.331,9.188l1.221,31.611l0,0h169.973
		c-0.003-1.193-0.006-2.392-0.01-3.593L31.155,1661.448z" mygroup="clC91231"></path>
	<path fill="#C91231" d="M1534.16,1061.561l-1.941,13.635l-1.771,12.6l-1.563,11.268l-1.354,9.938l-1.24,9.265l-1.217,9.269
		l-1.104,8.602l-0.996,7.936l-0.973,7.936l-0.912,7.646l-0.842,7.269l-0.818,7.268l-0.793,7.269l-0.693,6.604l-0.672,6.603
		l-0.646,6.6l-0.619,6.6l-0.592,6.603l-0.508,5.937l-0.484,5.936l-0.459,5.934l-0.432,5.936l-0.406,5.921l-0.379,5.915l-0.313,5.252
		l-0.295,5.345l-0.266,5.229l-0.244,5.289l-0.217,5.243l-0.193,5.283l-0.166,5.237l-0.143,5.302l-0.111,5.219l-0.084,5.268
		l-0.053,4.761l-0.029,5.195l-0.002,4.635l0.021,4.586l0.043,4.592l0.066,4.555l0.092,4.629l0.113,4.545l0.143,4.641l0.164,4.544
		l0.188,4.535l0.236,5.011l0.24,4.529l0.27,4.624l0.289,4.521l0.318,4.637l0.336,4.549l0.414,5.234l0.445,5.281l0.469,5.204
		l0.498,5.247l0.543,5.419l0.547,5.214l0.582,5.293l0.596,5.213l0.615,5.188l0.732,5.938l0.76,5.929l0.771,5.836l0.807,5.899
		l0.834,5.902l0.855,5.899l0.977,6.56l1.006,6.559l1.057,6.734l1.053,6.559l1.188,7.22l1.209,7.217l1.35,7.879l1.373,7.881
		l1.516,8.538l1.229,6.813l-113.609,314.658C1431.197,1591.987,1461.409,1267.747,1534.16,1061.561z" mygroup="clC91231"></path>
	<path fill="#C91231" d="M1558.017,1661.448l0.548,2.995l1.684,9.326l1.539,8.67l1.398,8.02l1.373,8.026l1.234,7.368l1.209,7.378
		l1.076,6.717l1.053,6.73l1.025,6.73l0.9,6.072l0.914,6.333l0.852,6.081l0.828,6.082l0.803,6.084l0.779,6.091l0.754,6.089
		l0.732,6.095l0.785,6.771l0.758,6.771l0.729,6.772l0.703,6.778l0.674,6.776l0.646,6.78l0.631,6.884l0.594,6.781l0.568,6.786
		l0.541,6.785l0.518,6.785l0.49,6.789l0.467,6.79l0.439,6.789l0.416,6.79l0.391,6.794l0.367,6.79l0.342,6.794l0.316,6.794
		l0.313,7.224l0.295,7.418l0.289,7.921l0.273,8.235l0.271,8.84l0.246,8.859l0.219,8.714l0.172,7.751l-0.135,6.101l-0.223,9.113
		l-0.236,8.664l-0.225,7.491l-0.277,8.353l-0.33,9.188l-1.221,31.611l0,0h-169.973c0.002-1.193,0.006-2.392,0.01-3.593
		L1558.017,1661.448z" mygroup="clC91231"></path>
</g>
<desc>Created with Snap</desc><defs></defs><defs><clipPath id="clip_pathfront"><path id="pathSjsmz7urc54" fill="none" stroke="#000000" stroke-width="0.25" stroke-miterlimit="10" d="M2.647,2056.822l-1.221-31.612
		l-0.331-9.188l-0.277-8.353l-0.225-7.491l-0.235-8.664l-0.223-9.113L0,1976.3l0.171-7.751l0.219-8.714l0.247-8.859l0.271-8.84
		l0.274-8.235l0.289-7.921l0.294-7.418l0.313-7.224l0.317-6.794l0.342-6.794l0.366-6.79l0.392-6.794l0.416-6.79l0.439-6.789
		l0.466-6.79l0.491-6.789l0.517-6.785l0.542-6.785l0.567-6.786l0.594-6.781l0.631-6.884l0.646-6.78l0.674-6.776l0.703-6.778
		l0.729-6.772l0.757-6.771l0.786-6.771l0.731-6.095l0.754-6.089l0.78-6.091l0.803-6.084l0.827-6.082l0.853-6.081l0.914-6.333
		l0.9-6.072l1.025-6.73l1.053-6.73l1.076-6.717l1.209-7.378l1.234-7.368l1.373-8.026l1.398-8.02l1.539-8.67l1.683-9.326l1.827-9.976
		l2.132-11.488l2.49-13.259l2.758-14.563l5.531-29.067l2.746-14.508l2.316-12.35l1.952-10.527l1.807-9.864l1.66-9.203l1.515-8.538
		l1.374-7.881l1.349-7.879l1.21-7.217l1.187-7.22l1.053-6.559l1.058-6.734l1.005-6.559l0.978-6.56l0.855-5.899l0.833-5.902
		l0.807-5.899l0.772-5.836l0.76-5.929l0.731-5.938l0.616-5.188l0.596-5.213l0.581-5.293l0.548-5.214l0.542-5.419l0.499-5.247
		l0.468-5.204l0.446-5.281l0.414-5.234l0.336-4.549l0.318-4.637l0.288-4.521l0.271-4.624l0.24-4.529l0.236-5.011l0.188-4.535
		l0.163-4.544l0.143-4.641l0.113-4.545l0.093-4.629l0.065-4.555l0.044-4.592l0.021-4.586l-0.002-4.635l-0.03-5.195l-0.052-4.761
		l-0.085-5.268l-0.111-5.219l-0.142-5.302l-0.166-5.237l-0.194-5.283l-0.217-5.243l-0.244-5.289l-0.265-5.229l-0.296-5.345
		l-0.313-5.252l-0.378-5.915l-0.406-5.921l-0.433-5.936l-0.459-5.934l-0.484-5.936l-0.508-5.937l-0.592-6.603l-0.619-6.6l-0.646-6.6
		l-0.671-6.603l-0.694-6.604l-0.792-7.269l-0.818-7.268l-0.843-7.269l-0.912-7.646l-0.973-7.936l-0.995-7.936l-1.104-8.602
		l-1.216-9.269l-1.241-9.265l-1.354-9.938l-1.562-11.268l-1.771-12.6l-2.079-14.603l-4.162-28.983l-2.099-14.646l-1.987-14.002
		l-1.686-12.021l-1.476-10.698l-1.383-10.198l-1.249-9.383l-1.313-10.053l-1.287-10.058l-1.262-10.056l-1.238-10.062l-1.213-10.063
		l-1.189-10.064l-1.243-10.733l-1.232-10.86l-1.264-11.379l-1.294-11.883l-1.304-12.205l-1.352-12.868l-1.405-13.619l-1.369-13.513
		l-1.314-13.196l-2.771-28.373l19.061-8.24l3.561-1.563l3.328-1.487l3.344-1.517l2.983-1.38l2.766-1.304l2.578-1.241l2.515-1.235
		l2.303-1.156l2.292-1.178l2.293-1.206l1.993-1.071l2.079-1.143l2.208-1.239l2.261-1.299l2.179-1.279l2.255-1.352l2.067-1.265
		l2.198-1.372l1.973-1.258l1.967-1.278l1.942-1.289l1.913-1.297l1.952-1.352l1.899-1.346l1.674-1.212l1.687-1.246l1.673-1.265
		l1.664-1.285l1.629-1.285l1.612-1.305l1.559-1.291l1.412-1.196l1.344-1.168l1.37-1.217l1.325-1.207l1.313-1.227l1.28-1.229
		l1.276-1.259l1.06-1.072l1.102-1.145l1.065-1.137l1.075-1.175l1.106-1.238l1.162-1.336l1.149-1.36l1.146-1.391l1.122-1.4
		l1.081-1.384l1.096-1.443l1.084-1.465l1.049-1.453l1.028-1.464l0.999-1.458l0.996-1.492l1.006-1.544l0.971-1.529l0.963-1.559
		l0.98-1.626l1.043-1.776l1.009-1.771l1.007-1.813l0.974-1.805l0.891-1.695l0.951-1.859l0.927-1.862l0.898-1.855l0.877-1.863
		l0.876-1.911l0.918-2.063l0.824-1.905l0.813-1.928l0.889-2.172l0.848-2.133l0.835-2.167l0.819-2.195l0.797-2.196l0.773-2.201
		l0.75-2.197l0.744-2.25l0.731-2.284l0.768-2.477l0.731-2.439l0.72-2.486l0.688-2.466l0.677-2.508l0.653-2.506l0.637-2.534
		l0.621-2.563l0.581-2.485l0.624-2.773l0.592-2.744l0.581-2.809l0.542-2.735l0.522-2.753l0.511-2.805l0.491-2.82l0.495-2.989
		l0.477-3.028l0.457-3.053l0.43-3.028l0.424-3.165l0.379-3l0.369-3.104l0.342-3.062l0.339-3.255l0.325-3.344l0.294-3.278
		l0.272-3.308l0.259-3.416l0.227-3.313l0.207-3.325l0.196-3.551l0.172-3.568l0.146-3.529l0.125-3.565l0.102-3.557l0.079-3.578
		l0.056-3.531l0.034-3.591l0.012-3.567l-0.011-3.783l-0.035-3.781l-0.06-3.831l-0.083-3.77l-0.105-3.741l-0.13-3.792l-0.154-3.8
		l-0.177-3.806l-0.201-3.818l-0.221-3.781l-0.243-3.77l-0.285-4.053l-0.308-4.029l-0.335-4.065l-0.349-3.932l-0.386-4.098
		l-0.4-3.999l-0.426-4.033l-0.446-4.014l-0.494-4.229l-0.527-4.29l-0.539-4.201l-0.575-4.297l-0.587-4.222l-0.63-4.356l-0.668-4.461
		l-0.688-4.443l-0.721-4.492l-0.774-4.688l-0.797-4.685l-0.871-4.969l-0.877-4.87l-0.953-5.152l-0.972-5.125l-1.054-5.432
		l-1.11-5.593l-1.163-5.734l-1.205-5.817l-1.275-6.039l-1.347-6.259l-1.371-6.267l-1.494-6.71l-1.569-6.937l-1.644-7.163
		l-1.771-7.613l-1.954-8.287l-2.138-8.966l-2.486-10.316l-3.058-12.573l-3.387-13.837l-3.43-13.934l-3.448-13.95l-3.448-13.89
		l-3.443-13.813l-3.444-13.775l-3.489-13.896l-8.993-35.667L587.742,0.001l1.164,31.931l0.178,4.153l0.203,4.248l0.229,4.326
		l0.253,4.338l0.255,3.99l0.282,4.063l0.285,3.78l0.299,3.665l0.302,3.422l0.313,3.284l0.331,3.25l0.358,3.283l0.374,3.207
		l0.389,3.147l0.401,3.069l0.433,3.134l0.45,3.091l0.474,3.094l0.5,3.115l0.515,3.063l0.542,3.091l0.561,3.063l0.59,3.084
		l0.607,3.065l0.632,3.07l0.653,3.054l0.643,2.908l0.667,2.916l0.694,2.933l0.714,2.917l0.732,2.898l0.716,2.745l0.75,2.791
		l0.765,2.759l0.784,2.745l0.807,2.738l0.786,2.593l0.809,2.594l0.832,2.595l0.847,2.57l0.86,2.539l0.889,2.553l0.869,2.431
		l0.889,2.419l0.914,2.422l0.917,2.368l0.94,2.364l0.926,2.271l0.936,2.238l0.953,2.219l0.985,2.24l0.941,2.088l0.993,2.146
		l0.97,2.046l1.01,2.077l1.016,2.039l0.972,1.905l1.005,1.924l1.028,1.922l1.026,1.872l1.042,1.854l1.085,1.886l1.002,1.699
		l1.034,1.713l1.042,1.686l1.065,1.686l1.09,1.681l1.095,1.646l1.048,1.541l1.089,1.563l1.087,1.521l1.076,1.471l1.112,1.484
		l1.123,1.461l1.097,1.393l1.077,1.335l1.098,1.329l1.076,1.271l1.135,1.309l1.065,1.196l1.149,1.263l1.152,1.231l1.155,1.202
		l1.091,1.107l1.14,1.127l1.107,1.068l1.145,1.077l1.134,1.039l1.139,1.015l1.153,1.001l1.173,0.989l1.18,0.969l1.206,0.961
		l1.19,0.923l1.225,0.92l1.127,0.823l1.215,0.862l1.246,0.858l1.259,0.841l1.307,0.848l1.302,0.82l1.345,0.824l1.338,0.797
		l1.452,0.84l1.5,0.842l1.509,0.823l1.532,0.813l1.615,0.832l1.654,0.828l1.682,0.815l1.671,0.788l1.731,0.794l1.8,0.8l1.837,0.793
		l1.831,0.77l1.926,0.784l1.998,0.789l1.969,0.754l2.041,0.759l2.006,0.723l2.185,0.763l2.175,0.735l2.188,0.717l2.18,0.691
		l2.329,0.716l2.31,0.688l2.356,0.677l2.393,0.665l2.444,0.656l2.518,0.652l2.459,0.615l2.55,0.615l2.471,0.573l2.557,0.57
		l2.625,0.563l2.68,0.551l2.645,0.521l2.813,0.531l2.802,0.506l2.929,0.505l2.975,0.491l3,0.472l2.957,0.443l5.816,0.823
		c5.57,0.686,14.552,1.541,24.677,1.541c5.138,0,9.962-0.223,14.424-0.664l8.499-1.227l3.343-0.474l2.957-0.443l2.994-0.471
		l2.958-0.487l2.98-0.515l2.772-0.5l2.813-0.531l2.631-0.519l2.688-0.553l2.658-0.57l2.507-0.56l2.503-0.581l2.538-0.611l2.46-0.615
		l2.513-0.65l2.481-0.667l2.337-0.649l2.361-0.679l2.338-0.695l2.331-0.716l2.146-0.682l2.219-0.728l2.17-0.734l2.176-0.76
		l2.005-0.723l2.044-0.76l1.969-0.754l1.998-0.789l1.927-0.784l1.83-0.769l1.839-0.794l1.815-0.808l1.68-0.771l1.724-0.813
		l1.666-0.809l1.65-0.825l1.618-0.834l1.519-0.806l1.537-0.839l1.491-0.837l1.436-0.83l1.356-0.808l1.337-0.819l1.299-0.817
		l1.309-0.851l1.254-0.838l1.252-0.863l1.222-0.866l1.112-0.813l1.229-0.923l1.194-0.925l1.21-0.967l1.175-0.964l1.172-0.989
		l1.154-1.001l1.138-1.015l1.134-1.039l1.144-1.074l1.116-1.076l1.126-1.114l1.099-1.115l1.152-1.202l1.164-1.244l1.136-1.244
		l1.067-1.201l1.124-1.295l1.101-1.3l1.087-1.314l1.077-1.335l1.097-1.393l1.122-1.461l1.113-1.483l1.076-1.474l1.078-1.51
		l1.101-1.579l1.044-1.533l1.1-1.653l1.081-1.666l1.071-1.693l1.039-1.681l1.029-1.706l1.029-1.746l1.051-1.824l1.062-1.887
		l1.022-1.867l1.023-1.914l1.003-1.919l0.984-1.928l1.013-2.035l0.998-2.054l0.975-2.059l1.001-2.163l0.942-2.087l0.972-2.21
		l0.96-2.236l0.938-2.238l0.928-2.276l0.937-2.354l0.924-2.384l0.905-2.402l0.891-2.421l0.869-2.432l0.89-2.551l0.871-2.575
		l0.841-2.549l0.828-2.582l0.797-2.561l0.802-2.646l0.806-2.731l0.779-2.731l0.768-2.766l0.75-2.789l0.712-2.729l0.742-2.936
		l0.711-2.905l0.688-2.911l0.67-2.928l0.642-2.896l0.666-3.12l0.619-3.007l0.608-3.069l0.586-3.073l0.563-3.073l0.546-3.106
		l0.516-3.069l0.496-3.093l0.475-3.103l0.449-3.094l0.433-3.118l0.403-3.099l0.386-3.12l0.375-3.225l0.356-3.268l0.335-3.268
		l0.313-3.297l0.298-3.389l0.301-3.679l0.285-3.78l0.281-4.063l0.258-4.012l0.251-4.283l0.229-4.333l0.207-4.313l0.176-4.133
		L1001.42,0l488.404,126.917l-9.025,35.807l-3.458,13.775l-3.446,13.774l-3.442,13.813l-3.448,13.891l-3.448,13.953l-3.431,13.936
		l-3.39,13.849l-3.062,12.584l-2.488,10.327l-2.14,8.969l-1.954,8.292l-1.771,7.617l-1.645,7.166l-1.568,6.938l-1.495,6.717
		l-1.372,6.264l-1.346,6.264l-1.277,6.046l-1.202,5.813l-1.166,5.747l-1.109,5.594l-1.042,5.369l-0.975,5.137l-0.941,5.097
		l-0.879,4.881l-0.866,4.94l-0.802,4.711l-0.774,4.685l-0.728,4.53l-0.677,4.362l-0.68,4.535l-0.626,4.33l-0.59,4.241l-0.573,4.287
		l-0.535,4.175l-0.531,4.319l-0.487,4.176l-0.454,4.091l-0.423,3.989l-0.401,4.015l-0.383,4.057l-0.353,3.988l-0.335,4.047
		l-0.308,4.021l-0.285,4.059l-0.244,3.773l-0.22,3.771l-0.202,3.841l-0.177,3.789l-0.153,3.792l-0.129,3.797l-0.107,3.748
		l-0.081,3.731l-0.062,3.871l-0.035,3.739l-0.01,3.862l0.012,3.522l0.033,3.558l0.058,3.591l0.078,3.547l0.103,3.552l0.125,3.601
		l0.146,3.509l0.173,3.576l0.195,3.544l0.205,3.312l0.228,3.321l0.258,3.41l0.273,3.302l0.299,3.332l0.316,3.262l0.347,3.316
		l0.34,3.043l0.368,3.095l0.383,3.029l0.418,3.124l0.429,3.026l0.462,3.081l0.472,2.996l0.503,3.036l0.487,2.796l0.51,2.803
		l0.516,2.711l0.563,2.843l0.562,2.717l0.599,2.768l0.626,2.79l0.577,2.471l0.621,2.561l0.64,2.547l0.653,2.509l0.674,2.496
		l0.688,2.468l0.717,2.478l0.736,2.457l0.761,2.452l0.752,2.352l0.718,2.166l0.766,2.245l0.768,2.181l0.803,2.215l0.816,2.188
		l0.837,2.174l0.845,2.125l0.889,2.171l0.804,1.905l0.843,1.945l0.918,2.062l0.857,1.875l0.891,1.889l0.898,1.854l0.923,1.856
		l0.943,1.845l0.91,1.732l0.964,1.784l1.01,1.819l1.007,1.766l1.03,1.756l0.997,1.654l0.954,1.543l0.98,1.546l0.993,1.525
		l1.019,1.522l0.966,1.412l1.051,1.495l1.041,1.442l1.09,1.472l1.09,1.437l1.084,1.389l1.125,1.402l1.142,1.386l1.146,1.356
		l1.168,1.344l1.109,1.241l1.065,1.164l1.067,1.14l1.107,1.149l1.056,1.069l1.285,1.269l1.271,1.223l1.305,1.218l1.342,1.221
		l1.35,1.2l1.355,1.177l1.406,1.193l1.57,1.301l1.604,1.297l1.633,1.289l1.669,1.289l1.651,1.248l1.688,1.247l1.7,1.23l1.877,1.329
		l1.966,1.361l1.9,1.29l1.954,1.297l1.961,1.274l1.973,1.257l2.184,1.362l2.1,1.283l2.229,1.336l2.199,1.289l2.218,1.274
		l2.252,1.264l2.252,1.236l2.221,1.192l2.267,1.187l2.293,1.176l2.308,1.155l2.326,1.143l2.537,1.217l2.581,1.213l2.79,1.284
		l3.078,1.39l3.295,1.463l3.28,1.433l19.868,8.5l-2.805,28.726l-1.326,13.32l-1.379,13.589l-1.41,13.667l-1.355,12.903
		l-1.308,12.221l-1.296,11.893l-1.266,11.381l-1.167,10.278l-1.243,10.733l-1.189,10.064l-1.213,10.063l-1.237,10.062l-1.263,10.058
		l-1.288,10.057l-1.313,10.055l-1.247,9.38l-1.383,10.197l-1.479,10.707l-1.685,12.026l-1.989,14.015l-2.101,14.667l-4.167,29.014
		l-2.08,14.616l-1.773,12.608l-1.562,11.271l-1.354,9.939l-1.243,9.277l-1.216,9.267l-1.104,8.604l-0.995,7.938l-0.974,7.939
		l-0.91,7.644l-0.844,7.271l-0.817,7.271l-0.792,7.271l-0.695,6.604l-0.672,6.604l-0.646,6.604l-0.618,6.604l-0.594,6.604
		l-0.507,5.934l-0.482,5.938l-0.46,5.938l-0.428,5.854l-0.404,5.909l-0.384,5.982l-0.313,5.27l-0.286,5.188l-0.271,5.335
		l-0.239,5.196l-0.22,5.304l-0.193,5.271l-0.166,5.237l-0.143,5.296l-0.111,5.242l-0.085,5.246l-0.052,4.755l-0.03,5.205
		l-0.002,4.645l0.02,4.56l0.045,4.616l0.066,4.545l0.092,4.629l0.115,4.563l0.14,4.59l0.165,4.593l0.188,4.522l0.234,4.968
		l0.245,4.614l0.267,4.558l0.292,4.589l0.313,4.552l0.34,4.589l0.413,5.229l0.446,5.286l0.465,5.179l0.501,5.271l0.544,5.431
		l0.549,5.233l0.58,5.28l0.599,5.242l0.617,5.196l0.726,5.871l0.758,5.922l0.788,5.949l0.808,5.896l0.832,5.895l0.857,5.9
		l0.978,6.565l1.004,6.553l1.057,6.724l1.054,6.559l1.187,7.219l1.211,7.213l1.349,7.878l1.374,7.873l1.516,8.541l1.659,9.195
		l1.804,9.862l1.952,10.519l2.314,12.336l2.743,14.495l5.521,29.027l2.757,14.548l2.487,13.249l2.13,11.477l1.826,9.973l1.683,9.316
		l1.538,8.67l1.398,8.012l1.372,8.027l1.234,7.364l1.209,7.377l1.077,6.717l1.052,6.726l1.026,6.73l0.901,6.073l0.913,6.319
		l0.853,6.084l0.828,6.089l0.804,6.082l0.779,6.09l0.756,6.093l0.732,6.088l0.786,6.773l0.757,6.772l0.73,6.771l0.702,6.782
		l0.675,6.78l0.647,6.778l0.631,6.877l0.594,6.789l0.567,6.785l0.543,6.781l0.518,6.792l0.491,6.786l0.465,6.795l0.441,6.787
		l0.415,6.795l0.392,6.788l0.366,6.799l0.343,6.788l0.318,6.798l0.312,7.222l0.295,7.421l0.289,7.929l0.275,8.238l0.271,8.845
		l0.245,8.86l0.22,8.702l0.174,7.819l-0.136,6.053l-0.225,9.105l-0.233,8.654l-0.224,7.482l-0.277,8.364l-0.329,9.188l-1.229,31.677
		L2.647,2056.822L2.647,2056.822z" style=""></path></clipPath></defs></svg>