<?xml version="1.0" encoding="utf-8"?><!DOCTYPE svg PUBLIC "-//W3C//DTD SVG 1.1//EN" "http://www.w3.org/Graphics/SVG/1.1/DTD/svg11.dtd"><svg version="1.1" id="图层_1" xmlns="http://www.w3.org/2000/svg" xmlns:xlink="http://www.w3.org/1999/xlink" x="0" y="0" width="1588" height="2049" viewBox="0 0 1588.004 2049.201" enable-background="new 0 0 1588.004 2049.201" xml:space="preserve">
<g>
	<polygon id="caipian" fill="#FFFFFF" stroke="none" stroke-width="0.25" stroke-miterlimit="10" points="2.607,2049.201 
		1.391,2017.522 1.057,2008.142 0.787,1999.922 0.56,1992.265 0.326,1983.591 0.099,1974.281 0,1969.827 0.205,1960.777 
		0.421,1952.34 0.672,1943.531 0.944,1934.781 1.222,1926.631 1.511,1918.781 1.805,1911.407 2.112,1904.291 2.431,1897.5 
		2.773,1890.702 3.14,1883.911 3.531,1877.116 3.946,1870.328 4.387,1863.534 4.854,1856.742 5.346,1849.95 5.864,1843.161 
		6.408,1836.375 6.978,1829.591 7.574,1822.804 8.199,1816.017 8.798,1809.754 9.474,1802.974 10.177,1796.196 10.908,1789.421 
		11.667,1782.646 12.456,1775.873 13.189,1769.776 13.945,1763.69 14.726,1757.599 15.528,1751.517 16.357,1745.429 
		17.208,1739.355 18.115,1733.066 19.014,1726.996 20.041,1720.257 21.092,1713.531 22.167,1706.811 23.377,1699.43 24.612,1692.06 
		25.986,1684.03 27.383,1676.013 28.923,1667.339 30.606,1658.011 32.433,1648.035 34.559,1636.587 36.925,1623.99 39.683,1609.425 
		45.213,1580.352 47.962,1565.84 50.311,1553.326 52.233,1542.957 54.043,1533.086 55.704,1523.885 57.221,1515.344 
		58.597,1507.462 59.949,1499.58 61.162,1492.363 62.351,1485.141 63.407,1478.582 64.466,1471.846 65.476,1465.278 66.456,1458.72 
		67.314,1452.823 68.149,1446.918 68.951,1441.088 69.744,1435.117 70.498,1429.25 71.23,1423.339 71.858,1418.073 72.454,1412.886 
		73.037,1407.597 73.582,1402.434 74.115,1397.136 74.611,1391.948 75.087,1386.684 75.533,1381.447 75.953,1376.215 
		76.343,1370.954 76.659,1366.364 76.95,1361.805 77.217,1357.26 77.465,1352.636 77.685,1348.052 77.878,1343.505 78.042,1339.07 
		78.187,1334.508 78.305,1329.945 78.401,1325.313 78.471,1320.767 78.518,1316.145 78.543,1311.552 78.543,1306.984 
		78.516,1301.713 78.459,1296.454 78.385,1291.739 78.275,1286.43 78.137,1281.155 77.975,1275.896 77.787,1270.675 
		77.572,1265.391 77.332,1260.125 77.065,1254.799 76.777,1249.524 76.468,1244.282 76.096,1238.405 75.689,1232.431 
		75.258,1226.49 74.802,1220.551 74.322,1214.614 73.817,1208.678 73.228,1202.074 72.611,1195.476 71.968,1188.875 
		71.299,1182.274 70.605,1175.668 69.816,1168.4 69,1161.128 68.16,1153.861 67.215,1145.923 66.274,1138.233 65.279,1130.293 
		64.177,1121.689 62.962,1112.422 61.723,1103.153 60.279,1092.551 58.718,1081.284 56.945,1068.684 54.867,1054.08 
		50.707,1025.104 48.609,1010.452 46.621,996.449 44.937,984.427 43.459,973.73 42.096,963.683 40.78,953.813 39.554,944.421 
		38.265,934.365 37.002,924.304 35.764,914.241 34.55,904.178 33.359,894.11 32.115,883.375 30.896,872.635 29.713,861.99 
		28.41,850.048 27.095,837.753 25.729,824.757 24.363,811.523 22.965,797.759 21.62,784.273 18.819,755.613 37.449,747.534 
		40.593,746.145 43.798,744.703 47.007,743.236 50.048,741.82 52.943,740.448 55.494,739.213 58.011,737.972 60.32,736.808 
		62.616,735.627 64.927,734.413 67.229,733.178 69.475,731.947 71.695,730.703 73.933,729.422 76.179,728.109 78.379,726.794 
		80.565,725.457 82.749,724.095 84.878,722.737 86.828,721.468 88.792,720.161 90.723,718.851 92.63,717.528 94.516,716.191 
		96.324,714.88 98.018,713.625 99.682,712.367 101.323,711.097 102.931,709.823 104.554,708.509 106.14,707.194 107.533,706.01 
		108.906,704.817 110.273,703.598 111.607,702.381 112.894,701.175 114.186,699.932 115.306,698.827 116.426,697.694 
		117.499,696.581 118.583,695.427 119.648,694.267 120.692,693.1 121.826,691.799 122.965,690.457 124.122,689.058 125.244,687.663 
		126.353,686.248 127.444,684.819 128.546,683.334 129.585,681.898 130.646,680.393 131.668,678.906 132.651,677.437 
		133.661,675.892 134.633,674.362 135.609,672.788 136.556,671.224 137.494,669.633 138.479,667.92 139.467,666.151 
		140.458,664.331 141.437,662.48 142.331,660.743 143.277,658.856 144.184,656.996 145.068,655.132 145.951,653.219 
		146.802,651.323 147.73,649.197 148.551,647.26 149.431,645.122 150.288,642.982 151.134,640.797 151.956,638.615 152.771,636.378 
		153.555,634.159 154.32,631.928 155.048,629.739 155.78,627.471 156.538,625.041 157.266,622.631 157.976,620.198 158.682,617.693 
		159.363,615.19 160.018,612.696 160.662,610.155 161.294,607.569 161.89,605.036 162.514,602.283 163.118,599.505 163.693,596.75 
		164.25,593.963 164.784,591.174 165.297,588.383 165.785,585.597 166.294,582.553 166.773,579.541 167.235,576.48 167.671,573.434 
		168.083,570.378 168.481,567.267 168.854,564.166 169.197,561.117 169.543,557.849 169.874,554.48 170.168,551.239 
		170.451,547.867 170.702,544.59 170.941,541.145 171.152,537.796 171.351,534.258 171.527,530.699 171.677,527.136 
		171.804,523.573 171.91,519.991 171.99,516.422 172.049,512.873 172.086,509.223 172.1,505.612 172.092,501.834 172.058,498.01 
		172,494.227 171.918,490.379 171.813,486.606 171.683,482.78 171.532,479.004 171.355,475.189 171.157,471.386 170.934,467.553 
		170.69,463.769 170.421,459.926 170.118,455.928 169.784,451.86 169.433,447.865 169.04,443.68 168.642,439.693 168.213,435.625 
		167.765,431.597 167.268,427.335 166.748,423.087 166.202,418.819 165.639,414.601 165.045,410.33 164.397,405.835 
		163.721,401.314 163.027,396.845 162.309,392.368 161.531,387.659 160.725,382.925 159.868,378.042 158.978,373.104 
		158.025,367.954 157.035,362.742 155.998,357.401 154.921,351.988 153.783,346.378 152.553,340.44 151.274,334.389 
		149.924,328.104 148.501,321.605 147.003,314.878 145.43,307.925 143.73,300.521 141.956,292.891 139.998,284.584 137.855,275.599 
		135.418,265.483 132.464,253.333 129.093,239.56 125.705,225.789 122.289,211.974 118.865,198.185 115.392,184.249 
		111.915,170.349 108.427,156.458 99.427,120.767 564.155,0.001 574.55,16.392 576.145,18.862 577.765,21.33 579.348,23.704 
		580.805,25.849 582.232,27.913 583.505,29.718 584.74,31.434 585.875,32.978 587.033,34.516 588.121,35.925 589.189,37.275 
		590.235,38.564 591.266,39.802 592.334,41.054 593.401,42.269 594.48,43.466 595.478,44.543 596.521,45.639 597.531,46.669 
		598.493,47.625 599.453,48.551 600.35,49.389 602.176,51.019 603.002,51.722 604.609,53.018 606.205,54.211 607.654,55.213 
		609.345,56.293 611.066,57.307 612.875,58.292 614.893,59.303 617.116,60.329 618.149,60.776 619.355,61.276 620.602,61.77 
		621.836,62.238 623.106,62.698 624.493,63.18 625.906,63.648 627.309,64.091 628.838,64.551 630.395,64.998 631.996,65.436 
		633.581,65.848 635.321,66.278 637.063,66.688 638.911,67.101 640.824,67.505 642.74,67.889 644.746,68.269 646.847,68.644 
		649.045,69.014 651.365,69.381 653.83,69.749 656.451,70.115 659.188,70.476 662.262,70.858 665.443,71.23 668.724,71.59 
		672.135,71.943 675.872,72.306 679.794,72.663 684.194,73.041 689.108,73.438 694.734,73.868 700.53,74.288 706.593,74.704 
		712.782,75.106 719.365,75.509 726.204,75.905 733.439,76.3 741.318,76.707 749.845,77.124 759.521,77.572 770.796,78.07 
		783.407,78.603 794.002,79.031 804.636,78.601 817.247,78.068 828.53,77.57 838.216,77.121 846.747,76.704 854.633,76.297 
		861.868,75.901 868.717,75.505 875.3,75.101 881.495,74.698 887.557,74.281 893.362,73.861 898.988,73.43 903.808,73.041 
		908.209,72.663 912.139,72.305 915.848,71.945 919.291,71.588 922.576,71.228 925.707,70.862 928.816,70.476 931.566,70.113 
		934.185,69.747 936.644,69.381 938.941,69.017 941.155,68.645 943.24,68.272 945.288,67.884 947.166,67.508 949.077,67.104 
		950.963,66.683 952.682,66.278 954.414,65.85 956,65.437 957.606,64.999 959.169,64.55 960.689,64.092 962.103,63.646 
		963.5,63.183 964.902,62.697 966.166,62.238 967.396,61.772 968.653,61.273 969.843,60.781 970.891,60.327 973.115,59.301 
		975.125,58.293 976.936,57.308 978.66,56.291 980.349,55.214 981.796,54.213 983.393,53.018 985.004,51.72 985.827,51.019 
		987.648,49.393 988.549,48.551 989.508,47.626 990.474,46.669 991.483,45.637 992.523,44.546 993.531,43.456 994.595,42.277 
		995.671,41.051 996.731,39.811 997.787,38.54 998.806,37.287 999.882,35.925 1000.97,34.516 1002.122,32.983 1003.262,31.436 
		1004.507,29.707 1005.767,27.92 1007.195,25.854 1008.663,23.69 1010.232,21.339 1011.846,18.881 1013.476,16.359 1023.843,0 
		1488.573,120.766 1479.571,156.479 1476.082,170.369 1472.607,184.266 1469.134,198.203 1465.709,211.993 1462.291,225.813 
		1458.904,239.584 1455.529,253.369 1452.573,265.527 1450.135,275.651 1447.99,284.641 1446.031,292.954 1444.258,300.585 
		1442.557,307.996 1440.983,314.951 1439.486,321.681 1438.062,328.188 1436.711,334.468 1435.432,340.526 1434.2,346.469 
		1433.064,352.073 1431.995,357.454 1430.95,362.826 1429.973,367.989 1429.031,373.068 1428.13,378.072 1427.28,382.92 
		1426.471,387.665 1425.693,392.367 1424.979,396.825 1424.276,401.359 1423.609,405.808 1422.953,410.349 1422.371,414.543 
		1421.796,418.861 1421.26,423.051 1420.733,427.348 1420.237,431.596 1419.784,435.665 1419.363,439.668 1418.965,443.674 
		1418.57,447.866 1418.22,451.849 1417.885,455.935 1417.58,459.946 1417.315,463.728 1417.067,467.606 1416.848,471.356 
		1416.647,475.195 1416.473,478.973 1416.317,482.821 1416.192,486.56 1416.084,490.432 1416.002,494.219 1415.945,497.996 
		1415.911,501.823 1415.903,505.617 1415.916,509.207 1415.954,512.86 1416.014,516.449 1416.093,519.975 1416.198,523.595 
		1416.324,527.138 1416.477,530.698 1416.652,534.269 1416.85,537.798 1417.062,541.149 1417.3,544.568 1417.555,547.89 
		1417.832,551.218 1418.129,554.48 1418.459,557.837 1418.804,561.099 1419.156,564.224 1419.521,567.259 1419.916,570.363 
		1420.33,573.419 1420.769,576.482 1421.229,579.532 1421.709,582.562 1422.22,585.606 1422.704,588.379 1423.218,591.175 
		1423.753,593.964 1424.309,596.741 1424.887,599.511 1425.489,602.284 1426.113,605.036 1426.709,607.569 1427.347,610.177 
		1427.979,612.675 1428.641,615.191 1429.32,617.69 1430.025,620.19 1430.74,622.639 1431.464,625.035 1432.227,627.483 
		1432.945,629.711 1433.688,631.947 1434.446,634.156 1435.229,636.37 1436.047,638.61 1436.871,640.807 1437.716,642.981 
		1438.573,645.127 1439.455,647.271 1440.268,649.183 1441.203,651.33 1442.05,653.216 1442.931,655.125 1443.814,656.985 
		1444.733,658.87 1445.668,660.739 1446.566,662.481 1447.547,664.335 1448.531,666.146 1449.531,667.932 1450.503,669.622 
		1451.453,671.236 1452.395,672.791 1453.36,674.347 1454.346,675.896 1455.343,677.424 1456.336,678.908 1457.359,680.397 
		1458.416,681.898 1459.457,683.334 1460.55,684.807 1461.657,686.259 1462.76,687.664 1463.884,689.062 1465.025,690.443 
		1466.187,691.81 1467.308,693.095 1468.36,694.272 1469.426,695.435 1470.503,696.58 1471.579,697.697 1472.686,698.816 
		1473.818,699.933 1475.11,701.177 1476.398,702.383 1477.73,703.599 1479.091,704.811 1480.47,706.01 1481.857,707.189 
		1483.447,708.507 1485.077,709.828 1486.676,711.093 1488.323,712.367 1489.998,713.636 1491.68,714.881 1493.479,716.185 
		1495.369,717.526 1497.28,718.851 1499.215,720.164 1501.168,721.463 1503.115,722.73 1505.267,724.103 1507.438,725.457 
		1509.623,726.794 1511.823,728.109 1514.075,729.426 1516.302,730.7 1518.515,731.94 1520.791,733.188 1523.078,734.416 
		1525.39,735.629 1527.676,736.805 1529.988,737.971 1532.502,739.209 1535.053,740.442 1537.771,741.73 1540.793,743.136 
		1543.83,744.524 1547.075,745.981 1550.308,747.407 1569.189,755.572 1566.39,784.201 1565.045,797.69 1563.646,811.456 
		1562.28,824.687 1560.914,837.68 1559.601,849.972 1558.3,861.908 1557.112,872.584 1555.894,883.322 1554.649,894.06 
		1553.459,904.125 1552.244,914.188 1551.008,924.25 1549.742,934.312 1548.454,944.369 1547.229,953.755 1545.914,963.627 
		1544.55,973.679 1543.072,984.381 1541.387,996.41 1539.397,1010.426 1537.297,1025.094 1533.133,1054.102 1531.053,1068.721 
		1529.279,1081.33 1527.718,1092.605 1526.272,1103.211 1525.032,1112.483 1523.818,1121.755 1522.715,1130.361 1521.722,1138.297 
		1520.78,1145.996 1519.834,1153.938 1518.993,1161.207 1518.177,1168.481 1517.389,1175.75 1516.696,1182.355 1516.026,1188.964 
		1515.384,1195.566 1514.768,1202.17 1514.179,1208.774 1513.674,1214.709 1513.193,1220.648 1512.741,1226.506 1512.311,1232.481 
		1511.909,1238.367 1511.53,1244.355 1511.222,1249.598 1510.934,1254.891 1510.671,1260.133 1510.433,1265.381 1510.218,1270.636 
		1510.029,1275.888 1509.864,1281.207 1509.729,1286.448 1509.617,1291.702 1509.543,1296.459 1509.488,1301.703 1509.459,1306.988 
		1509.461,1311.558 1509.485,1316.143 1509.531,1320.763 1509.603,1325.317 1509.697,1329.926 1509.817,1334.525 1509.961,1339.071 
		1510.125,1343.487 1510.319,1348.086 1510.537,1352.611 1510.783,1357.232 1511.055,1361.841 1511.343,1366.354 1511.66,1370.965 
		1512.053,1376.236 1512.469,1381.436 1512.916,1386.712 1513.388,1391.902 1513.894,1397.187 1514.418,1402.397 1514.969,1407.616 
		1515.553,1412.916 1516.148,1418.109 1516.781,1423.409 1517.505,1429.252 1518.271,1435.212 1519.057,1441.113 1519.865,1447.012 
		1520.701,1452.907 1521.562,1458.812 1522.541,1465.371 1523.55,1471.928 1524.609,1478.663 1525.666,1485.218 1526.854,1492.437 
		1528.067,1499.655 1529.418,1507.534 1530.793,1515.409 1532.311,1523.948 1533.972,1533.148 1535.778,1543.007 1537.701,1553.37 
		1540.049,1565.879 1542.791,1580.375 1548.317,1609.406 1551.073,1623.957 1553.437,1636.545 1555.56,1647.982 1557.387,1657.953 
		1559.069,1667.278 1560.608,1675.942 1562.006,1683.961 1563.379,1691.983 1564.613,1699.357 1565.821,1706.728 1566.898,1713.447 
		1567.949,1720.175 1568.976,1726.908 1569.875,1732.979 1570.782,1739.259 1571.635,1745.346 1572.463,1751.424 1573.268,1757.515 
		1574.047,1763.604 1574.804,1769.693 1575.537,1775.783 1576.324,1782.554 1577.084,1789.328 1577.816,1796.104 1578.521,1802.885 
		1579.197,1809.666 1579.798,1815.935 1580.421,1822.716 1581.019,1829.498 1581.589,1836.291 1582.133,1843.077 1582.651,1849.866 
		1583.144,1856.661 1583.61,1863.449 1584.052,1870.243 1584.468,1877.036 1584.859,1883.83 1585.227,1890.625 1585.568,1897.422 
		1585.887,1904.216 1586.195,1911.328 1586.49,1918.712 1586.78,1926.568 1587.057,1934.719 1587.329,1943.469 1587.579,1952.282 
		1587.798,1960.705 1588.004,1969.83 1587.904,1974.24 1587.679,1983.534 1587.445,1992.2 1587.218,1999.853 1586.948,2008.078 
		1586.615,2017.457 1585.39,2049.201 	" style="stroke-width: 5; stroke-dasharray: 26;" mygroup="clFFFFFF"></polygon>
</g>
<g>
	<path fill="#C91231" d="M54.428,1053.941l1.941,13.635l1.771,12.6l1.562,11.268l1.354,9.938l1.241,9.265l1.216,9.269l1.104,8.602
		l0.995,7.936l0.973,7.936l0.912,7.646l0.843,7.269l0.818,7.268l0.792,7.269l0.694,6.604l0.671,6.603l0.646,6.6l0.619,6.6
		l0.592,6.603l0.508,5.937l0.484,5.936l0.459,5.934l0.433,5.936l0.406,5.921l0.378,5.915l0.313,5.252l0.296,5.345l0.265,5.229
		l0.244,5.289l0.217,5.243l0.194,5.283l0.166,5.237l0.142,5.302l0.111,5.219l0.085,5.268l0.052,4.761l0.03,5.195l0.002,4.635
		l-0.021,4.586l-0.044,4.592l-0.065,4.555l-0.093,4.629l-0.113,4.545l-0.143,4.641l-0.163,4.544l-0.188,4.535l-0.236,5.011
		l-0.24,4.529l-0.271,4.624l-0.288,4.521l-0.318,4.637l-0.336,4.549l-0.414,5.234l-0.446,5.281l-0.468,5.204l-0.499,5.247
		l-0.542,5.419l-0.548,5.214l-0.581,5.293l-0.596,5.213l-0.616,5.188l-0.731,5.938l-0.76,5.929l-0.772,5.836l-0.807,5.899
		l-0.833,5.902l-0.855,5.899l-0.978,6.56l-1.005,6.559l-1.058,6.734l-1.053,6.559l-1.187,7.22l-1.21,7.217l-1.349,7.879
		l-1.374,7.881l-1.515,8.538l-1.229,6.813l113.609,314.658C157.391,1584.366,127.178,1260.126,54.428,1053.941z" mygroup="clC91231"></path>
	<path fill="#C91231" d="M30.571,1653.827l-0.548,2.995l-1.683,9.326l-1.539,8.67l-1.398,8.02l-1.373,8.026l-1.234,7.368
		l-1.209,7.378l-1.076,6.717l-1.053,6.73l-1.025,6.73l-0.9,6.072l-0.914,6.333l-0.853,6.081l-0.827,6.082l-0.803,6.084l-0.78,6.091
		l-0.754,6.089l-0.731,6.095l-0.786,6.771l-0.757,6.771l-0.729,6.772l-0.703,6.778l-0.674,6.776l-0.646,6.78l-0.631,6.884
		l-0.594,6.781l-0.567,6.786l-0.542,6.785l-0.517,6.785l-0.491,6.789l-0.466,6.79l-0.439,6.789l-0.416,6.79l-0.392,6.794
		l-0.366,6.79l-0.342,6.794l-0.317,6.794l-0.313,7.224l-0.294,7.418l-0.289,7.921l-0.274,8.235l-0.271,8.84l-0.247,8.859
		l-0.219,8.714l-0.171,7.751l0.135,6.101l0.223,9.113l0.235,8.664l0.225,7.491l0.277,8.353l0.331,9.188l1.221,31.611l0,0h169.973
		c-0.003-1.193-0.006-2.392-0.01-3.593L30.571,1653.827z" mygroup="clC91231"></path>
	<path fill="#C91231" d="M1533.576,1053.941l-1.941,13.635l-1.771,12.6l-1.563,11.268l-1.354,9.938l-1.24,9.265l-1.217,9.269
		l-1.104,8.602l-0.996,7.936l-0.973,7.936l-0.912,7.646l-0.842,7.269l-0.818,7.268l-0.793,7.269l-0.693,6.604l-0.672,6.603
		l-0.646,6.6l-0.619,6.6l-0.592,6.603l-0.508,5.937l-0.484,5.936l-0.459,5.934l-0.432,5.936l-0.406,5.921l-0.379,5.915l-0.313,5.252
		l-0.295,5.345l-0.266,5.229l-0.244,5.289l-0.217,5.243l-0.193,5.283l-0.166,5.237l-0.143,5.302l-0.111,5.219l-0.084,5.268
		l-0.053,4.761l-0.029,5.195l-0.002,4.635l0.021,4.586l0.043,4.592l0.066,4.555l0.092,4.629l0.113,4.545l0.143,4.641l0.164,4.544
		l0.188,4.535l0.236,5.011l0.24,4.529l0.27,4.624l0.289,4.521l0.318,4.637l0.336,4.549l0.414,5.234l0.445,5.281l0.469,5.204
		l0.498,5.247l0.543,5.419l0.547,5.214l0.582,5.293l0.596,5.213l0.615,5.188l0.732,5.938l0.76,5.929l0.771,5.836l0.807,5.899
		l0.834,5.902l0.855,5.899l0.977,6.56l1.006,6.559l1.057,6.734l1.053,6.559l1.188,7.22l1.209,7.217l1.35,7.879l1.373,7.881
		l1.516,8.538l1.229,6.813l-113.609,314.658C1430.613,1584.366,1460.825,1260.126,1533.576,1053.941z" mygroup="clC91231"></path>
	<path fill="#C91231" d="M1557.433,1653.827l0.548,2.995l1.684,9.326l1.539,8.67l1.398,8.02l1.373,8.026l1.234,7.368l1.209,7.378
		l1.076,6.717l1.053,6.73l1.025,6.73l0.9,6.072l0.914,6.333l0.852,6.081l0.828,6.082l0.803,6.084l0.779,6.091l0.754,6.089
		l0.732,6.095l0.785,6.771l0.758,6.771l0.729,6.772l0.703,6.778l0.674,6.776l0.646,6.78l0.631,6.884l0.594,6.781l0.568,6.786
		l0.541,6.785l0.518,6.785l0.49,6.789l0.467,6.79l0.439,6.789l0.416,6.79l0.391,6.794l0.367,6.79l0.342,6.794l0.316,6.794
		l0.313,7.224l0.295,7.418l0.289,7.921l0.273,8.235l0.271,8.84l0.246,8.859l0.219,8.714l0.172,7.751l-0.135,6.101l-0.223,9.113
		l-0.236,8.664l-0.225,7.491l-0.277,8.353l-0.33,9.188l-1.221,31.611l0,0h-169.973c0.002-1.193,0.006-2.392,0.01-3.593
		L1557.433,1653.827z" mygroup="clC91231"></path>
</g>
<desc>Created with Snap</desc><defs></defs><defs><clipPath id="clip_pathback"><polygon id="polygonSjsmz7urc5x" fill="none" stroke="#000000" stroke-width="0.25" stroke-miterlimit="10" points="2.607,2049.201 
		1.391,2017.522 1.057,2008.142 0.787,1999.922 0.56,1992.265 0.326,1983.591 0.099,1974.281 0,1969.827 0.205,1960.777 
		0.421,1952.34 0.672,1943.531 0.944,1934.781 1.222,1926.631 1.511,1918.781 1.805,1911.407 2.112,1904.291 2.431,1897.5 
		2.773,1890.702 3.14,1883.911 3.531,1877.116 3.946,1870.328 4.387,1863.534 4.854,1856.742 5.346,1849.95 5.864,1843.161 
		6.408,1836.375 6.978,1829.591 7.574,1822.804 8.199,1816.017 8.798,1809.754 9.474,1802.974 10.177,1796.196 10.908,1789.421 
		11.667,1782.646 12.456,1775.873 13.189,1769.776 13.945,1763.69 14.726,1757.599 15.528,1751.517 16.357,1745.429 
		17.208,1739.355 18.115,1733.066 19.014,1726.996 20.041,1720.257 21.092,1713.531 22.167,1706.811 23.377,1699.43 24.612,1692.06 
		25.986,1684.03 27.383,1676.013 28.923,1667.339 30.606,1658.011 32.433,1648.035 34.559,1636.587 36.925,1623.99 39.683,1609.425 
		45.213,1580.352 47.962,1565.84 50.311,1553.326 52.233,1542.957 54.043,1533.086 55.704,1523.885 57.221,1515.344 
		58.597,1507.462 59.949,1499.58 61.162,1492.363 62.351,1485.141 63.407,1478.582 64.466,1471.846 65.476,1465.278 66.456,1458.72 
		67.314,1452.823 68.149,1446.918 68.951,1441.088 69.744,1435.117 70.498,1429.25 71.23,1423.339 71.858,1418.073 72.454,1412.886 
		73.037,1407.597 73.582,1402.434 74.115,1397.136 74.611,1391.948 75.087,1386.684 75.533,1381.447 75.953,1376.215 
		76.343,1370.954 76.659,1366.364 76.95,1361.805 77.217,1357.26 77.465,1352.636 77.685,1348.052 77.878,1343.505 78.042,1339.07 
		78.187,1334.508 78.305,1329.945 78.401,1325.313 78.471,1320.767 78.518,1316.145 78.543,1311.552 78.543,1306.984 
		78.516,1301.713 78.459,1296.454 78.385,1291.739 78.275,1286.43 78.137,1281.155 77.975,1275.896 77.787,1270.675 
		77.572,1265.391 77.332,1260.125 77.065,1254.799 76.777,1249.524 76.468,1244.282 76.096,1238.405 75.689,1232.431 
		75.258,1226.49 74.802,1220.551 74.322,1214.614 73.817,1208.678 73.228,1202.074 72.611,1195.476 71.968,1188.875 
		71.299,1182.274 70.605,1175.668 69.816,1168.4 69,1161.128 68.16,1153.861 67.215,1145.923 66.274,1138.233 65.279,1130.293 
		64.177,1121.689 62.962,1112.422 61.723,1103.153 60.279,1092.551 58.718,1081.284 56.945,1068.684 54.867,1054.08 
		50.707,1025.104 48.609,1010.452 46.621,996.449 44.937,984.427 43.459,973.73 42.096,963.683 40.78,953.813 39.554,944.421 
		38.265,934.365 37.002,924.304 35.764,914.241 34.55,904.178 33.359,894.11 32.115,883.375 30.896,872.635 29.713,861.99 
		28.41,850.048 27.095,837.753 25.729,824.757 24.363,811.523 22.965,797.759 21.62,784.273 18.819,755.613 37.449,747.534 
		40.593,746.145 43.798,744.703 47.007,743.236 50.048,741.82 52.943,740.448 55.494,739.213 58.011,737.972 60.32,736.808 
		62.616,735.627 64.927,734.413 67.229,733.178 69.475,731.947 71.695,730.703 73.933,729.422 76.179,728.109 78.379,726.794 
		80.565,725.457 82.749,724.095 84.878,722.737 86.828,721.468 88.792,720.161 90.723,718.851 92.63,717.528 94.516,716.191 
		96.324,714.88 98.018,713.625 99.682,712.367 101.323,711.097 102.931,709.823 104.554,708.509 106.14,707.194 107.533,706.01 
		108.906,704.817 110.273,703.598 111.607,702.381 112.894,701.175 114.186,699.932 115.306,698.827 116.426,697.694 
		117.499,696.581 118.583,695.427 119.648,694.267 120.692,693.1 121.826,691.799 122.965,690.457 124.122,689.058 125.244,687.663 
		126.353,686.248 127.444,684.819 128.546,683.334 129.585,681.898 130.646,680.393 131.668,678.906 132.651,677.437 
		133.661,675.892 134.633,674.362 135.609,672.788 136.556,671.224 137.494,669.633 138.479,667.92 139.467,666.151 
		140.458,664.331 141.437,662.48 142.331,660.743 143.277,658.856 144.184,656.996 145.068,655.132 145.951,653.219 
		146.802,651.323 147.73,649.197 148.551,647.26 149.431,645.122 150.288,642.982 151.134,640.797 151.956,638.615 152.771,636.378 
		153.555,634.159 154.32,631.928 155.048,629.739 155.78,627.471 156.538,625.041 157.266,622.631 157.976,620.198 158.682,617.693 
		159.363,615.19 160.018,612.696 160.662,610.155 161.294,607.569 161.89,605.036 162.514,602.283 163.118,599.505 163.693,596.75 
		164.25,593.963 164.784,591.174 165.297,588.383 165.785,585.597 166.294,582.553 166.773,579.541 167.235,576.48 167.671,573.434 
		168.083,570.378 168.481,567.267 168.854,564.166 169.197,561.117 169.543,557.849 169.874,554.48 170.168,551.239 
		170.451,547.867 170.702,544.59 170.941,541.145 171.152,537.796 171.351,534.258 171.527,530.699 171.677,527.136 
		171.804,523.573 171.91,519.991 171.99,516.422 172.049,512.873 172.086,509.223 172.1,505.612 172.092,501.834 172.058,498.01 
		172,494.227 171.918,490.379 171.813,486.606 171.683,482.78 171.532,479.004 171.355,475.189 171.157,471.386 170.934,467.553 
		170.69,463.769 170.421,459.926 170.118,455.928 169.784,451.86 169.433,447.865 169.04,443.68 168.642,439.693 168.213,435.625 
		167.765,431.597 167.268,427.335 166.748,423.087 166.202,418.819 165.639,414.601 165.045,410.33 164.397,405.835 
		163.721,401.314 163.027,396.845 162.309,392.368 161.531,387.659 160.725,382.925 159.868,378.042 158.978,373.104 
		158.025,367.954 157.035,362.742 155.998,357.401 154.921,351.988 153.783,346.378 152.553,340.44 151.274,334.389 
		149.924,328.104 148.501,321.605 147.003,314.878 145.43,307.925 143.73,300.521 141.956,292.891 139.998,284.584 137.855,275.599 
		135.418,265.483 132.464,253.333 129.093,239.56 125.705,225.789 122.289,211.974 118.865,198.185 115.392,184.249 
		111.915,170.349 108.427,156.458 99.427,120.767 564.155,0.001 574.55,16.392 576.145,18.862 577.765,21.33 579.348,23.704 
		580.805,25.849 582.232,27.913 583.505,29.718 584.74,31.434 585.875,32.978 587.033,34.516 588.121,35.925 589.189,37.275 
		590.235,38.564 591.266,39.802 592.334,41.054 593.401,42.269 594.48,43.466 595.478,44.543 596.521,45.639 597.531,46.669 
		598.493,47.625 599.453,48.551 600.35,49.389 602.176,51.019 603.002,51.722 604.609,53.018 606.205,54.211 607.654,55.213 
		609.345,56.293 611.066,57.307 612.875,58.292 614.893,59.303 617.116,60.329 618.149,60.776 619.355,61.276 620.602,61.77 
		621.836,62.238 623.106,62.698 624.493,63.18 625.906,63.648 627.309,64.091 628.838,64.551 630.395,64.998 631.996,65.436 
		633.581,65.848 635.321,66.278 637.063,66.688 638.911,67.101 640.824,67.505 642.74,67.889 644.746,68.269 646.847,68.644 
		649.045,69.014 651.365,69.381 653.83,69.749 656.451,70.115 659.188,70.476 662.262,70.858 665.443,71.23 668.724,71.59 
		672.135,71.943 675.872,72.306 679.794,72.663 684.194,73.041 689.108,73.438 694.734,73.868 700.53,74.288 706.593,74.704 
		712.782,75.106 719.365,75.509 726.204,75.905 733.439,76.3 741.318,76.707 749.845,77.124 759.521,77.572 770.796,78.07 
		783.407,78.603 794.002,79.031 804.636,78.601 817.247,78.068 828.53,77.57 838.216,77.121 846.747,76.704 854.633,76.297 
		861.868,75.901 868.717,75.505 875.3,75.101 881.495,74.698 887.557,74.281 893.362,73.861 898.988,73.43 903.808,73.041 
		908.209,72.663 912.139,72.305 915.848,71.945 919.291,71.588 922.576,71.228 925.707,70.862 928.816,70.476 931.566,70.113 
		934.185,69.747 936.644,69.381 938.941,69.017 941.155,68.645 943.24,68.272 945.288,67.884 947.166,67.508 949.077,67.104 
		950.963,66.683 952.682,66.278 954.414,65.85 956,65.437 957.606,64.999 959.169,64.55 960.689,64.092 962.103,63.646 
		963.5,63.183 964.902,62.697 966.166,62.238 967.396,61.772 968.653,61.273 969.843,60.781 970.891,60.327 973.115,59.301 
		975.125,58.293 976.936,57.308 978.66,56.291 980.349,55.214 981.796,54.213 983.393,53.018 985.004,51.72 985.827,51.019 
		987.648,49.393 988.549,48.551 989.508,47.626 990.474,46.669 991.483,45.637 992.523,44.546 993.531,43.456 994.595,42.277 
		995.671,41.051 996.731,39.811 997.787,38.54 998.806,37.287 999.882,35.925 1000.97,34.516 1002.122,32.983 1003.262,31.436 
		1004.507,29.707 1005.767,27.92 1007.195,25.854 1008.663,23.69 1010.232,21.339 1011.846,18.881 1013.476,16.359 1023.843,0 
		1488.573,120.766 1479.571,156.479 1476.082,170.369 1472.607,184.266 1469.134,198.203 1465.709,211.993 1462.291,225.813 
		1458.904,239.584 1455.529,253.369 1452.573,265.527 1450.135,275.651 1447.99,284.641 1446.031,292.954 1444.258,300.585 
		1442.557,307.996 1440.983,314.951 1439.486,321.681 1438.062,328.188 1436.711,334.468 1435.432,340.526 1434.2,346.469 
		1433.064,352.073 1431.995,357.454 1430.95,362.826 1429.973,367.989 1429.031,373.068 1428.13,378.072 1427.28,382.92 
		1426.471,387.665 1425.693,392.367 1424.979,396.825 1424.276,401.359 1423.609,405.808 1422.953,410.349 1422.371,414.543 
		1421.796,418.861 1421.26,423.051 1420.733,427.348 1420.237,431.596 1419.784,435.665 1419.363,439.668 1418.965,443.674 
		1418.57,447.866 1418.22,451.849 1417.885,455.935 1417.58,459.946 1417.315,463.728 1417.067,467.606 1416.848,471.356 
		1416.647,475.195 1416.473,478.973 1416.317,482.821 1416.192,486.56 1416.084,490.432 1416.002,494.219 1415.945,497.996 
		1415.911,501.823 1415.903,505.617 1415.916,509.207 1415.954,512.86 1416.014,516.449 1416.093,519.975 1416.198,523.595 
		1416.324,527.138 1416.477,530.698 1416.652,534.269 1416.85,537.798 1417.062,541.149 1417.3,544.568 1417.555,547.89 
		1417.832,551.218 1418.129,554.48 1418.459,557.837 1418.804,561.099 1419.156,564.224 1419.521,567.259 1419.916,570.363 
		1420.33,573.419 1420.769,576.482 1421.229,579.532 1421.709,582.562 1422.22,585.606 1422.704,588.379 1423.218,591.175 
		1423.753,593.964 1424.309,596.741 1424.887,599.511 1425.489,602.284 1426.113,605.036 1426.709,607.569 1427.347,610.177 
		1427.979,612.675 1428.641,615.191 1429.32,617.69 1430.025,620.19 1430.74,622.639 1431.464,625.035 1432.227,627.483 
		1432.945,629.711 1433.688,631.947 1434.446,634.156 1435.229,636.37 1436.047,638.61 1436.871,640.807 1437.716,642.981 
		1438.573,645.127 1439.455,647.271 1440.268,649.183 1441.203,651.33 1442.05,653.216 1442.931,655.125 1443.814,656.985 
		1444.733,658.87 1445.668,660.739 1446.566,662.481 1447.547,664.335 1448.531,666.146 1449.531,667.932 1450.503,669.622 
		1451.453,671.236 1452.395,672.791 1453.36,674.347 1454.346,675.896 1455.343,677.424 1456.336,678.908 1457.359,680.397 
		1458.416,681.898 1459.457,683.334 1460.55,684.807 1461.657,686.259 1462.76,687.664 1463.884,689.062 1465.025,690.443 
		1466.187,691.81 1467.308,693.095 1468.36,694.272 1469.426,695.435 1470.503,696.58 1471.579,697.697 1472.686,698.816 
		1473.818,699.933 1475.11,701.177 1476.398,702.383 1477.73,703.599 1479.091,704.811 1480.47,706.01 1481.857,707.189 
		1483.447,708.507 1485.077,709.828 1486.676,711.093 1488.323,712.367 1489.998,713.636 1491.68,714.881 1493.479,716.185 
		1495.369,717.526 1497.28,718.851 1499.215,720.164 1501.168,721.463 1503.115,722.73 1505.267,724.103 1507.438,725.457 
		1509.623,726.794 1511.823,728.109 1514.075,729.426 1516.302,730.7 1518.515,731.94 1520.791,733.188 1523.078,734.416 
		1525.39,735.629 1527.676,736.805 1529.988,737.971 1532.502,739.209 1535.053,740.442 1537.771,741.73 1540.793,743.136 
		1543.83,744.524 1547.075,745.981 1550.308,747.407 1569.189,755.572 1566.39,784.201 1565.045,797.69 1563.646,811.456 
		1562.28,824.687 1560.914,837.68 1559.601,849.972 1558.3,861.908 1557.112,872.584 1555.894,883.322 1554.649,894.06 
		1553.459,904.125 1552.244,914.188 1551.008,924.25 1549.742,934.312 1548.454,944.369 1547.229,953.755 1545.914,963.627 
		1544.55,973.679 1543.072,984.381 1541.387,996.41 1539.397,1010.426 1537.297,1025.094 1533.133,1054.102 1531.053,1068.721 
		1529.279,1081.33 1527.718,1092.605 1526.272,1103.211 1525.032,1112.483 1523.818,1121.755 1522.715,1130.361 1521.722,1138.297 
		1520.78,1145.996 1519.834,1153.938 1518.993,1161.207 1518.177,1168.481 1517.389,1175.75 1516.696,1182.355 1516.026,1188.964 
		1515.384,1195.566 1514.768,1202.17 1514.179,1208.774 1513.674,1214.709 1513.193,1220.648 1512.741,1226.506 1512.311,1232.481 
		1511.909,1238.367 1511.53,1244.355 1511.222,1249.598 1510.934,1254.891 1510.671,1260.133 1510.433,1265.381 1510.218,1270.636 
		1510.029,1275.888 1509.864,1281.207 1509.729,1286.448 1509.617,1291.702 1509.543,1296.459 1509.488,1301.703 1509.459,1306.988 
		1509.461,1311.558 1509.485,1316.143 1509.531,1320.763 1509.603,1325.317 1509.697,1329.926 1509.817,1334.525 1509.961,1339.071 
		1510.125,1343.487 1510.319,1348.086 1510.537,1352.611 1510.783,1357.232 1511.055,1361.841 1511.343,1366.354 1511.66,1370.965 
		1512.053,1376.236 1512.469,1381.436 1512.916,1386.712 1513.388,1391.902 1513.894,1397.187 1514.418,1402.397 1514.969,1407.616 
		1515.553,1412.916 1516.148,1418.109 1516.781,1423.409 1517.505,1429.252 1518.271,1435.212 1519.057,1441.113 1519.865,1447.012 
		1520.701,1452.907 1521.562,1458.812 1522.541,1465.371 1523.55,1471.928 1524.609,1478.663 1525.666,1485.218 1526.854,1492.437 
		1528.067,1499.655 1529.418,1507.534 1530.793,1515.409 1532.311,1523.948 1533.972,1533.148 1535.778,1543.007 1537.701,1553.37 
		1540.049,1565.879 1542.791,1580.375 1548.317,1609.406 1551.073,1623.957 1553.437,1636.545 1555.56,1647.982 1557.387,1657.953 
		1559.069,1667.278 1560.608,1675.942 1562.006,1683.961 1563.379,1691.983 1564.613,1699.357 1565.821,1706.728 1566.898,1713.447 
		1567.949,1720.175 1568.976,1726.908 1569.875,1732.979 1570.782,1739.259 1571.635,1745.346 1572.463,1751.424 1573.268,1757.515 
		1574.047,1763.604 1574.804,1769.693 1575.537,1775.783 1576.324,1782.554 1577.084,1789.328 1577.816,1796.104 1578.521,1802.885 
		1579.197,1809.666 1579.798,1815.935 1580.421,1822.716 1581.019,1829.498 1581.589,1836.291 1582.133,1843.077 1582.651,1849.866 
		1583.144,1856.661 1583.61,1863.449 1584.052,1870.243 1584.468,1877.036 1584.859,1883.83 1585.227,1890.625 1585.568,1897.422 
		1585.887,1904.216 1586.195,1911.328 1586.49,1918.712 1586.78,1926.568 1587.057,1934.719 1587.329,1943.469 1587.579,1952.282 
		1587.798,1960.705 1588.004,1969.83 1587.904,1974.24 1587.679,1983.534 1587.445,1992.2 1587.218,1999.853 1586.948,2008.078 
		1586.615,2017.457 1585.39,2049.201 	" style=""></polygon></clipPath></defs></svg>