<?xml version="1.0" encoding="utf-8"?><!DOCTYPE svg PUBLIC "-//W3C//DTD SVG 1.1//EN" "http://www.w3.org/Graphics/SVG/1.1/DTD/svg11.dtd"><svg version="1.1" id="图层_1" xmlns="http://www.w3.org/2000/svg" xmlns:xlink="http://www.w3.org/1999/xlink" x="0" y="0" width="101" height="404" viewBox="0 0 101.922 404.223" enable-background="new 0 0 101.922 404.223" xml:space="preserve">
<g>
	<polygon id="caipian" fill="#FFFFFF" stroke="none" stroke-width="0.25" stroke-miterlimit="10" points="0,403.686 0.068,0 
		28.106,3.78 31.098,4.155 33.358,4.421 35.788,4.686 38.2,4.926 40.568,5.14 43.219,5.356 46.174,5.573 49.253,5.776 50.955,5.876 
		52.646,5.777 55.741,5.572 58.689,5.356 61.336,5.14 63.709,4.926 66.129,4.685 68.545,4.422 70.804,4.156 73.802,3.78 101.838,0 
		101.922,404.223 	" style="stroke-width: 5; stroke-dasharray: 26;" mygroup="clFFFFFF"></polygon>
</g>
<desc>Created with Snap</desc><defs></defs><defs><clipPath id="clip_pathPlacket"><polygon id="polygonSjsmz7urcn" fill="none" stroke="#000000" stroke-width="0.25" stroke-miterlimit="10" points="0,403.686 0.068,0 
		28.106,3.78 31.098,4.155 33.358,4.421 35.788,4.686 38.2,4.926 40.568,5.14 43.219,5.356 46.174,5.573 49.253,5.776 50.955,5.876 
		52.646,5.777 55.741,5.572 58.689,5.356 61.336,5.14 63.709,4.926 66.129,4.685 68.545,4.422 70.804,4.156 73.802,3.78 101.838,0 
		101.922,404.223 	" style=""></polygon></clipPath></defs></svg>